<?xml version="1.0" standalone="no"?>
<!DOCTYPE svg PUBLIC "-//W3C//DTD SVG 20010904//EN"
 "http://www.w3.org/TR/2001/REC-SVG-20010904/DTD/svg10.dtd">
<svg version="1.0" xmlns="http://www.w3.org/2000/svg"
 width="512.000000pt" height="512.000000pt" viewBox="0 0 512.000000 512.000000"
 preserveAspectRatio="xMidYMid meet">

<g transform="translate(0.000000,512.000000) scale(0.100000,-0.100000)"
 stroke="none">
<path d="M4373 5105 c-81 -22 -132 -52 -193 -114 -125 -125 -159 -304 -89
-468 l20 -47 -346 -346 -347 -347 -59 24 c-155 63 -327 29 -454 -88 l-41 -38
-251 72 c-138 40 -254 75 -257 77 -3 3 -9 34 -15 69 -38 235 -256 398 -482
362 -262 -43 -428 -311 -342 -555 7 -22 10 -43 6 -46 -5 -4 -153 -123 -330
-264 l-322 -258 -67 27 c-86 35 -180 42 -261 21 -90 -22 -139 -51 -203 -115
-164 -164 -168 -418 -9 -586 95 -100 196 -141 333 -133 114 7 182 36 262 110
136 127 177 311 105 473 l-20 45 326 258 325 259 67 -34 c86 -44 171 -59 254
-44 110 19 210 80 279 171 l27 34 246 -69 246 -70 -6 -41 c-7 -51 16 -167 45
-225 28 -54 111 -142 164 -173 127 -74 305 -74 432 0 53 31 136 119 164 173
31 62 53 175 45 236 -4 27 -18 79 -32 114 l-25 64 347 347 348 348 56 -26 c75
-34 193 -42 277 -17 80 23 132 55 193 120 155 164 155 409 1 578 -104 114
-268 162 -417 122z"/>
<path d="M4101 3394 c-53 -38 -51 38 -51 -1634 l0 -1550 -210 0 -210 0 0 910
c0 980 1 957 -51 994 -21 14 -66 16 -379 16 -313 0 -358 -2 -379 -16 -52 -37
-51 -14 -51 -994 l0 -910 -210 0 -210 0 0 1125 c0 1233 3 1178 -59 1209 -45
24 -697 24 -742 0 -62 -31 -59 24 -59 -1209 l0 -1125 -210 0 -210 0 0 590 c0
635 0 638 -51 674 -21 14 -66 16 -379 16 -313 0 -358 -2 -379 -16 -51 -36 -51
-39 -51 -674 l0 -590 -65 0 c-78 0 -108 -12 -130 -55 -23 -41 -14 -93 21 -126
l26 -24 2498 0 2498 0 26 24 c35 33 44 85 21 126 -22 43 -52 55 -130 55 l-65
0 0 1550 c0 1672 2 1596 -51 1634 -21 14 -66 16 -379 16 -313 0 -358 -2 -379
-16z"/>
</g>
</svg>
