<svg id="svg" version="1.1" xmlns="http://www.w3.org/2000/svg" xmlns:xlink="http://www.w3.org/1999/xlink" width="400" height="400" viewBox="0, 0, 400,400"><g id="svgg"><path id="path0" d="M148.000 62.808 C 147.010 63.018,145.030 63.383,143.600 63.619 C 132.396 65.468,121.427 69.409,111.454 75.169 C 108.254 77.017,102.015 81.075,101.600 81.578 C 101.490 81.712,100.590 82.445,99.600 83.208 C 94.224 87.353,85.273 96.394,82.423 100.557 C 82.106 101.021,81.724 101.490,81.575 101.600 C 80.898 102.099,75.093 111.379,73.319 114.800 C 68.589 123.918,65.195 133.887,63.650 143.200 C 63.412 144.630,63.027 146.914,62.794 148.275 C 62.145 152.061,62.264 168.275,62.974 172.800 C 64.029 179.529,64.893 183.821,65.710 186.400 C 66.024 187.390,66.700 189.550,67.212 191.200 C 67.725 192.850,68.292 194.371,68.472 194.580 C 68.652 194.789,68.800 195.189,68.800 195.470 C 68.800 196.812,73.864 206.908,77.271 212.357 C 82.705 221.050,91.312 230.627,99.200 236.756 C 101.510 238.551,103.612 240.190,103.871 240.398 C 107.057 242.961,118.031 248.843,123.800 251.080 C 129.716 253.374,130.590 253.680,133.400 254.435 C 139.440 256.057,140.424 256.253,149.550 257.641 C 151.474 257.933,155.299 257.998,160.550 257.828 C 170.295 257.512,175.698 256.837,183.439 254.965 C 192.059 252.880,201.949 248.972,208.200 245.178 C 209.300 244.511,210.515 243.862,210.900 243.736 C 211.285 243.610,211.600 243.377,211.600 243.218 C 211.600 243.059,212.046 242.725,212.591 242.477 C 219.958 239.120,238.144 220.936,242.371 212.700 C 242.681 212.095,243.085 211.600,243.268 211.600 C 243.450 211.600,243.600 211.417,243.600 211.193 C 243.600 210.969,244.280 209.664,245.110 208.293 C 246.647 205.757,246.865 205.327,249.348 199.944 C 252.147 193.876,255.323 183.429,256.322 177.000 C 256.562 175.460,256.947 173.009,257.179 171.554 C 257.717 168.174,257.727 152.290,257.194 148.833 C 256.970 147.385,256.591 144.940,256.350 143.400 C 254.815 133.576,249.097 117.794,244.729 111.328 C 244.108 110.408,243.600 109.543,243.600 109.406 C 243.600 108.046,234.357 96.347,229.205 91.187 C 223.689 85.662,212.384 76.800,210.851 76.800 C 210.640 76.800,210.407 76.665,210.333 76.500 C 210.045 75.852,200.028 70.811,195.800 69.185 C 188.213 66.269,182.360 64.746,173.551 63.396 C 168.642 62.644,150.716 62.231,148.000 62.808 M217.186 125.574 C 217.630 126.404,217.775 146.707,217.348 148.300 L 217.107 149.200 202.020 149.200 C 193.722 149.200,168.273 149.080,145.466 148.934 L 104.000 148.668 104.000 136.937 L 104.000 125.205 132.300 125.100 C 223.955 124.759,216.728 124.718,217.186 125.574 M217.348 172.900 C 217.662 174.073,217.662 193.927,217.348 195.100 L 217.107 196.000 160.553 196.000 L 104.000 196.000 104.000 184.267 C 104.000 177.813,104.120 172.413,104.267 172.267 C 104.413 172.120,129.862 172.000,160.820 172.000 L 217.107 172.000 217.348 172.900 " stroke="none" fill="#f3eff3" fill-rule="evenodd"></path><path id="path1" d="M140.800 0.473 C 138.930 0.658,136.275 0.913,134.900 1.039 C 133.525 1.165,132.400 1.433,132.400 1.634 C 132.400 1.835,131.601 2.000,130.624 2.000 C 129.647 2.000,128.736 2.180,128.600 2.400 C 128.464 2.620,127.553 2.800,126.576 2.800 C 125.599 2.800,124.800 2.980,124.800 3.200 C 124.800 3.420,124.001 3.600,123.024 3.600 C 122.047 3.600,121.136 3.780,121.000 4.000 C 120.864 4.220,120.234 4.400,119.600 4.400 C 118.966 4.400,118.336 4.580,118.200 4.800 C 118.064 5.020,117.434 5.200,116.800 5.200 C 116.166 5.200,115.536 5.380,115.400 5.600 C 115.264 5.820,114.634 6.000,114.000 6.000 C 113.366 6.000,112.736 6.180,112.600 6.400 C 112.464 6.620,111.823 6.800,111.176 6.800 C 110.529 6.800,110.000 6.980,110.000 7.200 C 110.000 7.420,109.640 7.600,109.200 7.600 C 108.760 7.600,108.400 7.780,108.400 8.000 C 108.400 8.220,107.860 8.400,107.200 8.400 C 106.540 8.400,106.000 8.574,106.000 8.787 C 106.000 9.001,105.775 9.089,105.500 8.984 C 105.225 8.879,104.010 9.174,102.800 9.639 C 101.590 10.104,99.880 10.747,99.000 11.068 C 96.697 11.910,93.023 13.717,92.867 14.085 C 92.793 14.258,92.208 14.400,91.567 14.400 C 90.925 14.400,90.400 14.580,90.400 14.800 C 90.400 15.020,90.040 15.200,89.600 15.200 C 89.160 15.200,88.800 15.350,88.800 15.532 C 88.800 15.715,87.765 16.341,86.500 16.922 C 84.294 17.936,82.022 19.178,81.600 19.600 C 81.490 19.710,80.590 20.237,79.600 20.770 C 78.610 21.304,77.710 21.844,77.600 21.971 C 77.490 22.098,76.860 22.470,76.200 22.798 C 75.540 23.126,74.709 23.711,74.353 24.097 C 73.997 24.484,73.423 24.800,73.077 24.800 C 72.730 24.800,72.339 24.975,72.207 25.189 C 72.074 25.403,71.344 25.874,70.583 26.235 C 69.822 26.596,69.200 27.051,69.200 27.246 C 69.200 27.441,68.975 27.607,68.700 27.616 C 68.425 27.625,67.577 28.165,66.815 28.816 C 66.053 29.467,65.238 30.000,65.003 30.000 C 64.769 30.000,64.317 30.360,64.000 30.800 C 63.683 31.240,63.233 31.600,63.000 31.600 C 62.767 31.600,62.317 31.960,62.000 32.400 C 61.683 32.840,61.233 33.200,61.000 33.200 C 60.767 33.200,60.317 33.560,60.000 34.000 C 59.683 34.440,59.287 34.800,59.121 34.800 C 58.955 34.800,57.795 35.791,56.545 37.002 C 55.294 38.213,54.199 39.133,54.112 39.045 C 53.700 38.633,38.800 53.535,38.800 54.360 C 38.800 54.557,37.900 55.638,36.800 56.761 C 35.700 57.885,34.800 59.103,34.800 59.469 C 34.800 59.834,34.689 60.022,34.552 59.886 C 34.274 59.607,33.200 60.558,33.200 61.083 C 33.200 61.270,32.840 61.683,32.400 62.000 C 31.960 62.317,31.600 62.725,31.600 62.906 C 31.600 63.088,31.150 63.686,30.600 64.236 C 30.050 64.786,29.600 65.380,29.600 65.556 C 29.600 65.732,29.150 66.399,28.600 67.038 C 28.051 67.677,27.601 68.425,27.600 68.700 C 27.600 68.975,27.441 69.200,27.246 69.200 C 27.051 69.200,26.596 69.822,26.235 70.583 C 25.874 71.344,25.403 72.074,25.189 72.207 C 24.975 72.339,24.800 72.730,24.800 73.077 C 24.800 73.423,24.476 73.997,24.080 74.353 C 23.683 74.709,23.049 75.667,22.669 76.483 C 22.289 77.299,21.808 78.071,21.600 78.200 C 21.392 78.329,20.911 79.101,20.532 79.917 C 20.152 80.733,19.742 81.490,19.621 81.600 C 19.204 81.978,17.978 84.203,16.922 86.500 C 16.341 87.765,15.715 88.800,15.532 88.800 C 15.350 88.800,15.200 89.160,15.200 89.600 C 15.200 90.040,15.020 90.400,14.800 90.400 C 14.580 90.400,14.400 90.672,14.400 91.005 C 14.400 91.338,14.243 91.923,14.050 92.305 C 12.552 95.280,12.000 96.553,12.000 97.038 C 12.000 97.347,11.820 97.600,11.600 97.600 C 11.380 97.600,11.200 97.962,11.200 98.405 C 11.200 98.848,11.041 99.523,10.847 99.905 C 10.652 100.287,10.311 101.050,10.087 101.600 C 8.990 104.299,8.744 105.187,8.985 105.576 C 9.129 105.809,9.057 106.000,8.824 106.000 C 8.591 106.000,8.400 106.349,8.400 106.776 C 8.400 107.203,8.220 107.664,8.000 107.800 C 7.780 107.936,7.600 108.487,7.600 109.024 C 7.600 109.561,7.420 110.000,7.200 110.000 C 6.980 110.000,6.800 110.392,6.800 110.872 C 6.800 111.792,6.140 114.128,5.551 115.295 C 5.358 115.677,5.200 116.431,5.200 116.971 C 5.200 117.511,5.020 118.064,4.800 118.200 C 4.580 118.336,4.400 118.966,4.400 119.600 C 4.400 120.234,4.220 120.864,4.000 121.000 C 3.780 121.136,3.600 122.047,3.600 123.024 C 3.600 124.001,3.420 124.800,3.200 124.800 C 2.980 124.800,2.800 125.599,2.800 126.576 C 2.800 127.553,2.620 128.464,2.400 128.600 C 2.180 128.736,2.000 129.647,2.000 130.624 C 2.000 131.601,1.835 132.400,1.634 132.400 C 1.433 132.400,1.170 133.525,1.050 134.900 C 0.931 136.275,0.661 139.020,0.451 141.000 C -0.039 145.629,-0.040 173.827,0.450 178.800 C 0.656 180.890,0.924 183.680,1.046 185.000 C 1.168 186.320,1.432 187.571,1.634 187.780 C 1.835 187.989,2.000 189.013,2.000 190.056 C 2.000 191.099,2.180 192.064,2.400 192.200 C 2.620 192.336,2.800 193.157,2.800 194.024 C 2.800 194.891,2.980 195.600,3.200 195.600 C 3.420 195.600,3.600 196.309,3.600 197.176 C 3.600 198.043,3.780 198.864,4.000 199.000 C 4.220 199.136,4.400 199.856,4.400 200.600 C 4.400 201.344,4.580 202.064,4.800 202.200 C 5.020 202.336,5.200 202.966,5.200 203.600 C 5.200 204.234,5.380 204.864,5.600 205.000 C 5.820 205.136,6.000 205.777,6.000 206.424 C 6.000 207.071,6.180 207.600,6.400 207.600 C 6.620 207.600,6.800 208.050,6.800 208.600 C 6.800 209.150,6.980 209.600,7.200 209.600 C 7.420 209.600,7.600 210.140,7.600 210.800 C 7.600 211.460,7.780 212.000,8.000 212.000 C 8.220 212.000,8.400 212.444,8.400 212.986 C 8.400 213.528,8.679 214.833,9.020 215.886 C 9.673 217.901,9.814 218.257,11.160 221.296 C 11.622 222.338,12.000 223.463,12.000 223.796 C 12.000 224.128,12.180 224.400,12.400 224.400 C 12.620 224.400,12.800 224.760,12.800 225.200 C 12.800 225.640,12.980 226.000,13.200 226.000 C 13.420 226.000,13.600 226.272,13.600 226.605 C 13.600 226.938,13.761 227.523,13.958 227.905 C 14.155 228.287,14.916 229.860,15.650 231.400 C 16.384 232.940,17.092 234.290,17.224 234.400 C 17.356 234.510,17.719 235.185,18.030 235.900 C 18.341 236.615,18.731 237.200,18.898 237.200 C 19.064 237.200,19.200 237.560,19.200 238.000 C 19.200 238.440,19.336 238.800,19.502 238.800 C 19.669 238.800,20.060 239.385,20.372 240.100 C 20.684 240.815,21.268 241.691,21.670 242.047 C 22.071 242.403,22.400 242.988,22.400 243.347 C 22.400 243.706,22.580 244.000,22.800 244.000 C 23.020 244.000,23.200 244.371,23.200 244.824 C 23.200 245.277,23.380 245.536,23.600 245.400 C 23.820 245.264,24.000 245.433,24.000 245.776 C 24.000 246.119,24.180 246.400,24.400 246.400 C 24.620 246.400,24.800 246.760,24.800 247.200 C 24.800 247.640,24.953 248.000,25.139 248.000 C 25.326 248.000,25.803 248.720,26.200 249.600 C 26.597 250.480,27.029 251.205,27.161 251.211 C 27.292 251.217,27.841 251.937,28.380 252.811 C 28.920 253.685,29.505 254.400,29.680 254.400 C 29.856 254.400,30.000 254.591,30.000 254.823 C 30.000 255.335,32.178 258.179,33.700 259.655 C 34.305 260.241,34.800 260.930,34.800 261.186 C 34.800 261.442,35.700 262.529,36.800 263.600 C 37.900 264.671,38.800 265.740,38.800 265.974 C 38.800 266.208,38.980 266.400,39.200 266.400 C 39.420 266.400,39.600 266.604,39.600 266.853 C 39.600 267.409,53.860 281.600,54.420 281.600 C 54.640 281.600,55.609 282.365,56.573 283.300 C 60.101 286.724,66.603 291.600,67.641 291.600 C 67.865 291.600,67.936 291.780,67.800 292.000 C 67.664 292.220,67.884 292.400,68.288 292.400 C 68.693 292.400,69.283 292.760,69.600 293.200 C 69.917 293.640,70.497 294.000,70.888 294.000 C 71.280 294.000,71.600 294.150,71.600 294.332 C 71.600 294.515,72.095 294.920,72.700 295.232 C 73.305 295.545,74.118 296.086,74.507 296.436 C 74.895 296.786,75.705 297.320,76.307 297.624 C 76.908 297.927,78.152 298.676,79.072 299.288 C 79.992 299.899,80.937 300.400,81.172 300.400 C 81.407 300.400,81.600 300.580,81.600 300.800 C 81.600 301.020,81.945 301.200,82.367 301.200 C 82.788 301.200,83.193 301.345,83.267 301.522 C 83.500 302.084,96.805 308.451,98.231 308.683 C 98.984 308.805,99.600 309.061,99.600 309.252 C 99.600 309.444,99.949 309.600,100.376 309.600 C 100.803 309.600,101.264 309.780,101.400 310.000 C 101.536 310.220,102.087 310.400,102.624 310.400 C 103.161 310.400,103.600 310.580,103.600 310.800 C 103.600 311.020,104.140 311.200,104.800 311.200 C 105.460 311.200,106.000 311.380,106.000 311.600 C 106.000 311.820,106.540 312.000,107.200 312.000 C 107.860 312.000,108.400 312.180,108.400 312.400 C 108.400 312.620,108.850 312.800,109.400 312.800 C 109.950 312.800,110.400 312.980,110.400 313.200 C 110.400 313.420,110.929 313.600,111.576 313.600 C 112.223 313.600,112.864 313.780,113.000 314.000 C 113.136 314.220,113.766 314.400,114.400 314.400 C 115.034 314.400,115.664 314.580,115.800 314.800 C 115.936 315.020,116.577 315.200,117.224 315.200 C 117.871 315.200,118.400 315.380,118.400 315.600 C 118.400 315.820,119.120 316.000,120.000 316.000 C 120.880 316.000,121.600 316.180,121.600 316.400 C 121.600 316.620,122.320 316.800,123.200 316.800 C 124.080 316.800,124.800 316.980,124.800 317.200 C 124.800 317.420,125.599 317.600,126.576 317.600 C 127.553 317.600,128.464 317.780,128.600 318.000 C 128.736 318.220,129.701 318.400,130.744 318.400 C 131.787 318.400,132.811 318.565,133.020 318.766 C 133.391 319.124,135.504 319.389,141.600 319.845 C 143.250 319.968,144.780 320.218,145.000 320.400 C 145.220 320.582,148.685 320.754,152.700 320.782 L 160.000 320.832 160.006 301.716 C 160.009 291.202,160.157 282.373,160.333 282.095 C 160.547 281.757,162.172 281.522,165.227 281.387 C 170.201 281.166,176.748 280.534,179.600 279.998 C 180.590 279.813,182.570 279.443,184.000 279.177 C 202.885 275.665,224.348 265.230,239.000 252.438 C 241.511 250.245,251.675 239.974,253.089 238.200 C 253.790 237.320,255.292 235.430,256.428 234.000 C 265.763 222.241,274.009 205.271,277.796 190.026 C 280.479 179.224,281.310 172.119,281.304 160.012 C 281.300 150.581,281.120 147.994,279.964 140.800 C 270.900 84.377,223.492 41.947,166.200 38.981 C 162.844 38.807,160.482 38.512,160.306 38.245 C 160.144 38.000,160.009 29.295,160.006 18.900 L 160.000 0.000 152.100 0.068 C 147.755 0.105,142.670 0.287,140.800 0.473 M160.000 50.010 L 160.000 61.220 160.907 61.565 C 161.406 61.754,163.971 62.027,166.607 62.171 C 193.940 63.661,219.924 77.385,237.472 99.600 C 240.303 103.183,243.200 107.404,243.200 107.945 C 243.200 108.158,243.343 108.393,243.518 108.467 C 243.838 108.600,246.701 113.508,248.330 116.713 C 250.004 120.006,253.195 128.048,254.040 131.100 C 254.238 131.815,254.592 133.075,254.827 133.900 C 258.085 145.356,259.323 163.277,257.557 173.400 C 255.929 182.731,255.557 184.292,253.312 191.200 C 251.067 198.108,247.176 206.500,244.039 211.200 C 243.672 211.750,243.122 212.695,242.818 213.300 C 242.514 213.905,242.115 214.400,241.932 214.400 C 241.750 214.400,241.597 214.625,241.593 214.900 C 241.589 215.175,241.149 215.940,240.616 216.600 C 240.083 217.260,238.949 218.742,238.096 219.893 C 233.743 225.765,225.760 233.750,219.908 238.083 C 218.748 238.942,217.526 239.867,217.191 240.140 C 216.019 241.095,212.853 243.200,212.590 243.200 C 212.443 243.200,211.846 243.539,211.262 243.953 C 210.267 244.659,209.378 245.183,205.400 247.408 C 195.206 253.111,179.199 257.446,165.200 258.296 L 160.200 258.600 160.094 270.043 L 159.988 281.485 155.094 281.334 C 130.845 280.588,107.129 272.060,87.000 256.848 C 63.226 238.883,46.676 212.395,41.069 183.338 C 38.952 172.366,38.252 155.490,39.528 146.200 C 41.902 128.925,46.496 114.738,54.068 101.300 C 54.470 100.585,55.166 99.353,55.614 98.563 C 63.464 84.704,77.624 69.608,92.000 59.772 C 98.385 55.403,109.145 49.663,114.508 47.764 C 115.338 47.470,116.598 46.972,117.308 46.657 C 120.121 45.410,126.084 43.582,131.600 42.275 C 141.475 39.935,147.614 39.116,157.100 38.874 L 160.000 38.800 160.000 50.010 " stroke="none" fill="#4c94fb" fill-rule="evenodd"></path><path id="path2" d="M132.300 125.499 L 104.000 125.605 104.000 136.954 L 104.000 148.302 159.700 148.600 C 190.335 148.764,215.760 148.828,216.200 148.743 C 216.978 148.593,217.000 148.271,217.000 136.995 L 217.000 125.400 188.800 125.396 C 173.290 125.394,147.865 125.440,132.300 125.499 M104.181 172.906 C 104.074 173.184,104.035 178.359,104.093 184.406 L 104.200 195.400 160.081 195.750 C 190.816 195.943,216.241 195.993,216.581 195.863 C 217.120 195.656,217.200 194.124,217.200 184.013 L 217.200 172.400 160.787 172.400 C 115.689 172.400,104.336 172.501,104.181 172.906 " stroke="none" fill="#5c6064" fill-rule="evenodd"></path><path id="path3" d="M152.000 39.065 C 141.690 39.613,124.924 43.282,117.308 46.657 C 116.598 46.972,115.338 47.470,114.508 47.764 C 93.028 55.370,67.710 77.207,55.614 98.563 C 55.166 99.353,54.470 100.585,54.068 101.300 C 26.056 151.017,38.095 216.800,81.800 252.836 C 103.355 270.609,128.861 280.527,155.094 281.334 L 159.988 281.485 160.094 270.043 L 160.200 258.600 165.200 258.296 C 179.199 257.446,195.206 253.111,205.400 247.408 C 209.378 245.183,210.267 244.659,211.262 243.953 C 211.846 243.539,212.443 243.200,212.590 243.200 C 212.853 243.200,216.019 241.095,217.191 240.140 C 217.526 239.867,218.748 238.942,219.908 238.083 C 225.760 233.750,233.743 225.765,238.096 219.893 C 238.949 218.742,240.083 217.260,240.616 216.600 C 241.149 215.940,241.589 215.175,241.593 214.900 C 241.597 214.625,241.750 214.400,241.932 214.400 C 242.115 214.400,242.514 213.905,242.818 213.300 C 243.122 212.695,243.672 211.750,244.039 211.200 C 247.176 206.500,251.067 198.108,253.312 191.200 C 255.557 184.292,255.929 182.731,257.557 173.400 C 259.323 163.277,258.085 145.356,254.827 133.900 C 254.592 133.075,254.238 131.815,254.040 131.100 C 253.195 128.048,250.004 120.006,248.330 116.713 C 246.701 113.508,243.838 108.600,243.518 108.467 C 243.343 108.393,243.200 108.158,243.200 107.945 C 243.200 107.404,240.303 103.183,237.472 99.600 C 219.924 77.385,193.940 63.661,166.607 62.171 C 163.971 62.027,161.406 61.754,160.907 61.565 L 160.000 61.220 160.000 50.010 L 160.000 38.800 157.100 38.874 C 155.505 38.915,153.210 39.001,152.000 39.065 M173.551 63.396 C 182.360 64.746,188.213 66.269,195.800 69.185 C 200.028 70.811,210.045 75.852,210.333 76.500 C 210.407 76.665,210.640 76.800,210.851 76.800 C 212.384 76.800,223.689 85.662,229.205 91.187 C 234.357 96.347,243.600 108.046,243.600 109.406 C 243.600 109.543,244.108 110.408,244.729 111.328 C 249.097 117.794,254.815 133.576,256.350 143.400 C 256.591 144.940,256.970 147.385,257.194 148.833 C 257.727 152.290,257.717 168.174,257.179 171.554 C 256.947 173.009,256.562 175.460,256.322 177.000 C 255.323 183.429,252.147 193.876,249.348 199.944 C 246.865 205.327,246.647 205.757,245.110 208.293 C 244.280 209.664,243.600 210.969,243.600 211.193 C 243.600 211.417,243.450 211.600,243.268 211.600 C 243.085 211.600,242.681 212.095,242.371 212.700 C 238.144 220.936,219.958 239.120,212.591 242.477 C 212.046 242.725,211.600 243.059,211.600 243.218 C 211.600 243.377,211.285 243.610,210.900 243.736 C 210.515 243.862,209.300 244.511,208.200 245.178 C 201.949 248.972,192.059 252.880,183.439 254.965 C 175.698 256.837,170.295 257.512,160.550 257.828 C 155.299 257.998,151.474 257.933,149.550 257.641 C 140.424 256.253,139.440 256.057,133.400 254.435 C 130.590 253.680,129.716 253.374,123.800 251.080 C 118.031 248.843,107.057 242.961,103.871 240.398 C 103.612 240.190,101.510 238.551,99.200 236.756 C 91.312 230.627,82.705 221.050,77.271 212.357 C 73.864 206.908,68.800 196.812,68.800 195.470 C 68.800 195.189,68.652 194.789,68.472 194.580 C 68.292 194.371,67.725 192.850,67.212 191.200 C 66.700 189.550,66.024 187.390,65.710 186.400 C 64.893 183.821,64.029 179.529,62.974 172.800 C 62.264 168.275,62.145 152.061,62.794 148.275 C 63.027 146.914,63.412 144.630,63.650 143.200 C 65.195 133.887,68.589 123.918,73.319 114.800 C 75.093 111.379,80.898 102.099,81.575 101.600 C 81.724 101.490,82.106 101.021,82.423 100.557 C 85.273 96.394,94.224 87.353,99.600 83.208 C 100.590 82.445,101.490 81.712,101.600 81.578 C 102.015 81.075,108.254 77.017,111.454 75.169 C 121.427 69.409,132.396 65.468,143.600 63.619 C 145.030 63.383,147.010 63.018,148.000 62.808 C 150.716 62.231,168.642 62.644,173.551 63.396 M132.400 125.223 C 112.238 125.388,120.293 125.446,160.661 125.427 C 191.714 125.412,217.039 125.265,216.937 125.100 C 216.742 124.783,179.506 124.837,132.400 125.223 M217.376 137.000 C 217.376 143.160,217.432 145.624,217.499 142.476 C 217.567 139.327,217.567 134.287,217.499 131.276 C 217.431 128.264,217.376 130.840,217.376 137.000 M135.200 148.800 C 179.248 149.205,217.200 149.251,217.199 148.900 C 217.199 148.735,191.774 148.581,160.699 148.558 C 111.610 148.521,108.266 148.552,135.200 148.800 M104.262 172.300 C 104.094 172.571,142.995 172.570,197.000 172.296 C 208.220 172.239,191.986 172.149,160.924 172.096 C 129.862 172.043,104.364 172.135,104.262 172.300 M217.375 184.000 C 217.375 190.050,217.431 192.525,217.499 189.500 C 217.567 186.475,217.567 181.525,217.499 178.500 C 217.431 175.475,217.375 177.950,217.375 184.000 M104.000 195.700 C 104.000 195.865,116.735 195.958,132.300 195.907 C 147.865 195.856,156.100 195.766,150.600 195.708 C 124.639 195.431,104.000 195.428,104.000 195.700 " stroke="none" fill="#8cbbfb" fill-rule="evenodd"></path><path id="path4" d="M160.006 18.837 C 160.009 29.267,160.144 38.000,160.306 38.245 C 160.482 38.512,162.844 38.807,166.200 38.981 C 223.492 41.947,270.900 84.377,279.964 140.800 C 281.120 147.994,281.300 150.581,281.304 160.012 C 281.310 172.119,280.479 179.224,277.796 190.026 C 274.009 205.271,265.763 222.241,256.428 234.000 C 255.292 235.430,253.790 237.320,253.089 238.200 C 251.675 239.974,241.511 250.245,239.000 252.438 C 224.348 265.230,202.885 275.665,184.000 279.177 C 182.570 279.443,180.590 279.813,179.600 279.998 C 176.748 280.534,170.201 281.166,165.227 281.387 C 162.172 281.522,160.547 281.757,160.333 282.095 C 160.157 282.373,160.009 291.195,160.006 301.700 L 160.000 320.800 167.600 320.800 C 172.400 320.800,175.200 320.653,175.200 320.400 C 175.200 320.163,176.667 320.000,178.800 320.000 C 180.933 320.000,182.400 319.837,182.400 319.600 C 182.400 319.378,183.467 319.200,184.800 319.200 C 186.133 319.200,187.200 319.022,187.200 318.800 C 187.200 318.580,188.190 318.400,189.400 318.400 C 190.610 318.400,191.600 318.220,191.600 318.000 C 191.600 317.780,192.500 317.600,193.600 317.600 C 194.700 317.600,195.600 317.420,195.600 317.200 C 195.600 316.980,196.320 316.800,197.200 316.800 C 198.080 316.800,198.800 316.620,198.800 316.400 C 198.800 316.180,199.520 316.000,200.400 316.000 C 201.280 316.000,202.000 315.820,202.000 315.600 C 202.000 315.380,202.619 315.200,203.376 315.200 C 204.133 315.200,204.864 315.020,205.000 314.800 C 205.136 314.580,205.676 314.400,206.200 314.400 C 206.724 314.400,207.264 314.220,207.400 314.000 C 207.536 313.780,208.087 313.600,208.624 313.600 C 209.161 313.600,209.600 313.420,209.600 313.200 C 209.600 312.980,210.129 312.800,210.776 312.800 C 211.423 312.800,212.064 312.620,212.200 312.400 C 212.336 312.180,212.887 312.000,213.424 312.000 C 213.961 312.000,214.400 311.820,214.400 311.600 C 214.400 311.380,214.940 311.200,215.600 311.200 C 216.260 311.200,216.800 311.020,216.800 310.800 C 216.800 310.580,217.239 310.400,217.776 310.400 C 218.313 310.400,218.864 310.220,219.000 310.000 C 219.136 309.780,219.597 309.600,220.024 309.600 C 220.451 309.600,220.800 309.442,220.800 309.250 C 220.800 309.058,221.385 308.787,222.100 308.649 C 222.815 308.510,224.480 307.882,225.800 307.253 C 227.120 306.623,229.190 305.686,230.400 305.171 C 231.610 304.655,233.078 303.911,233.662 303.517 C 234.246 303.122,234.921 302.800,235.162 302.800 C 235.403 302.800,235.600 302.620,235.600 302.400 C 235.600 302.180,235.960 302.000,236.400 302.000 C 236.840 302.000,237.200 301.820,237.200 301.600 C 237.200 301.380,237.560 301.200,238.000 301.200 C 238.440 301.200,238.800 301.020,238.800 300.800 C 238.800 300.580,239.070 300.400,239.400 300.400 C 239.730 300.400,240.000 300.220,240.000 300.000 C 240.000 299.780,240.320 299.600,240.712 299.600 C 241.103 299.600,241.683 299.240,242.000 298.800 C 242.317 298.360,242.882 298.000,243.255 298.000 C 243.628 298.000,243.993 297.834,244.067 297.630 C 244.140 297.427,244.470 297.202,244.800 297.130 C 245.130 297.059,245.702 296.673,246.071 296.273 C 246.709 295.580,249.246 298.049,298.972 347.773 C 344.702 393.500,351.349 400.000,352.381 400.000 C 354.161 400.000,400.000 354.161,400.000 352.381 C 400.000 351.349,393.500 344.703,347.785 298.988 C 301.822 253.024,295.641 246.702,296.159 246.184 C 296.483 245.860,296.862 245.236,297.001 244.798 C 297.140 244.359,297.422 244.000,297.627 244.000 C 297.832 244.000,298.000 243.680,298.000 243.288 C 298.000 242.897,298.360 242.317,298.800 242.000 C 299.240 241.683,299.600 241.103,299.600 240.712 C 299.600 240.320,299.780 240.000,300.000 240.000 C 300.220 240.000,300.400 239.730,300.400 239.400 C 300.400 239.070,300.580 238.800,300.800 238.800 C 301.020 238.800,301.200 238.440,301.200 238.000 C 301.200 237.560,301.380 237.200,301.600 237.200 C 301.820 237.200,302.000 236.840,302.000 236.400 C 302.000 235.960,302.135 235.599,302.300 235.597 C 302.659 235.593,303.600 233.656,303.600 232.920 C 303.600 232.634,303.748 232.400,303.929 232.400 C 304.290 232.400,306.000 228.827,306.000 228.072 C 306.000 227.812,306.180 227.600,306.400 227.600 C 306.620 227.600,306.800 227.335,306.800 227.012 C 306.800 226.689,307.149 225.802,307.576 225.042 C 308.003 224.282,308.473 223.017,308.621 222.230 C 308.768 221.444,309.049 220.800,309.245 220.800 C 309.440 220.800,309.600 220.451,309.600 220.024 C 309.600 219.597,309.780 219.136,310.000 219.000 C 310.220 218.864,310.400 218.313,310.400 217.776 C 310.400 217.239,310.580 216.800,310.800 216.800 C 311.020 216.800,311.200 216.260,311.200 215.600 C 311.200 214.940,311.380 214.400,311.600 214.400 C 311.820 214.400,312.000 213.961,312.000 213.424 C 312.000 212.887,312.180 212.336,312.400 212.200 C 312.620 212.064,312.800 211.423,312.800 210.776 C 312.800 210.129,312.980 209.600,313.200 209.600 C 313.420 209.600,313.600 209.161,313.600 208.624 C 313.600 208.087,313.780 207.536,314.000 207.400 C 314.220 207.264,314.400 206.623,314.400 205.976 C 314.400 205.329,314.580 204.800,314.800 204.800 C 315.020 204.800,315.200 204.170,315.200 203.400 C 315.200 202.630,315.380 202.000,315.600 202.000 C 315.820 202.000,316.000 201.280,316.000 200.400 C 316.000 199.520,316.180 198.800,316.400 198.800 C 316.620 198.800,316.800 198.091,316.800 197.224 C 316.800 196.357,316.980 195.536,317.200 195.400 C 317.420 195.264,317.600 194.353,317.600 193.376 C 317.600 192.399,317.780 191.600,318.000 191.600 C 318.220 191.600,318.400 190.621,318.400 189.424 C 318.400 188.227,318.580 187.136,318.800 187.000 C 319.020 186.864,319.200 185.773,319.200 184.576 C 319.200 183.379,319.380 182.400,319.600 182.400 C 319.835 182.400,320.000 181.008,320.000 179.024 C 320.000 177.167,320.180 175.536,320.400 175.400 C 320.947 175.062,320.947 145.338,320.400 145.000 C 320.180 144.864,320.000 143.233,320.000 141.376 C 320.000 139.519,319.835 138.000,319.634 138.000 C 319.433 138.000,319.171 136.875,319.052 135.500 C 318.676 131.168,318.334 129.013,317.961 128.620 C 317.763 128.411,317.600 127.466,317.600 126.520 C 317.600 125.574,317.420 124.800,317.200 124.800 C 316.980 124.800,316.800 124.080,316.800 123.200 C 316.800 122.320,316.620 121.600,316.400 121.600 C 316.180 121.600,316.000 120.880,316.000 120.000 C 316.000 119.120,315.820 118.400,315.600 118.400 C 315.380 118.400,315.200 117.781,315.200 117.024 C 315.200 116.267,315.020 115.536,314.800 115.400 C 314.580 115.264,314.400 114.623,314.400 113.976 C 314.400 113.329,314.220 112.800,314.000 112.800 C 313.780 112.800,313.600 112.260,313.600 111.600 C 313.600 110.940,313.420 110.400,313.200 110.400 C 312.980 110.400,312.800 109.950,312.800 109.400 C 312.800 108.850,312.620 108.400,312.400 108.400 C 312.180 108.400,312.000 107.860,312.000 107.200 C 312.000 106.540,311.820 106.000,311.600 106.000 C 311.380 106.000,311.200 105.460,311.200 104.800 C 311.200 104.140,311.020 103.600,310.800 103.600 C 310.580 103.600,310.400 103.150,310.400 102.600 C 310.400 102.050,310.220 101.600,310.000 101.600 C 309.780 101.600,309.600 101.150,309.600 100.600 C 309.600 100.050,309.420 99.600,309.200 99.600 C 308.980 99.600,308.800 99.222,308.800 98.760 C 308.800 98.299,308.548 97.354,308.240 96.660 C 307.932 95.967,307.439 94.815,307.143 94.100 C 306.847 93.385,306.469 92.800,306.302 92.800 C 306.136 92.800,306.000 92.528,306.000 92.195 C 306.000 91.557,305.749 90.964,304.649 89.000 C 304.279 88.340,303.692 87.125,303.345 86.300 C 302.997 85.475,302.553 84.800,302.357 84.800 C 302.160 84.800,302.000 84.440,302.000 84.000 C 302.000 83.560,301.820 83.200,301.600 83.200 C 301.380 83.200,301.200 82.840,301.200 82.400 C 301.200 81.960,301.020 81.600,300.800 81.600 C 300.580 81.600,300.400 81.240,300.400 80.800 C 300.400 80.360,300.220 80.000,300.000 80.000 C 299.780 80.000,299.600 79.730,299.600 79.400 C 299.600 79.070,299.420 78.800,299.200 78.800 C 298.980 78.800,298.800 78.530,298.800 78.200 C 298.800 77.870,298.664 77.600,298.498 77.600 C 298.331 77.600,297.940 77.015,297.628 76.300 C 297.316 75.585,296.732 74.709,296.330 74.353 C 295.929 73.997,295.600 73.452,295.600 73.141 C 295.600 72.831,295.240 72.317,294.800 72.000 C 294.360 71.683,294.000 71.143,294.000 70.800 C 294.000 70.457,293.640 69.917,293.200 69.600 C 292.760 69.283,292.400 68.703,292.400 68.312 C 292.400 67.920,292.253 67.600,292.074 67.600 C 291.894 67.600,291.362 66.915,290.892 66.078 C 290.422 65.241,289.623 64.095,289.118 63.530 C 288.613 62.966,287.840 61.999,287.400 61.382 C 286.960 60.765,286.251 59.932,285.825 59.530 C 285.398 59.129,285.185 58.800,285.351 58.800 C 285.517 58.800,284.741 57.912,283.627 56.826 C 282.512 55.740,281.600 54.658,281.600 54.420 C 281.600 53.836,266.593 38.800,266.010 38.800 C 265.756 38.800,264.671 37.900,263.600 36.800 C 262.529 35.700,261.454 34.800,261.213 34.800 C 260.971 34.800,260.173 34.215,259.440 33.500 C 257.886 31.985,257.117 31.352,255.200 30.005 C 254.430 29.464,253.451 28.702,253.025 28.311 C 252.598 27.920,252.096 27.600,251.908 27.600 C 251.720 27.600,251.187 27.246,250.723 26.814 C 250.259 26.381,249.750 26.107,249.593 26.204 C 249.436 26.302,248.985 26.025,248.591 25.591 C 248.198 25.156,247.584 24.800,247.226 24.800 C 246.869 24.800,246.317 24.440,246.000 24.000 C 245.683 23.560,245.103 23.200,244.712 23.200 C 244.320 23.200,244.000 23.020,244.000 22.800 C 244.000 22.580,243.764 22.400,243.475 22.400 C 243.187 22.400,242.602 22.075,242.175 21.678 C 241.749 21.280,240.815 20.697,240.100 20.380 C 239.385 20.064,238.800 19.669,238.800 19.502 C 238.800 19.336,238.440 19.200,238.000 19.200 C 237.560 19.200,237.200 19.020,237.200 18.800 C 237.200 18.580,236.945 18.400,236.633 18.400 C 236.322 18.400,236.007 18.265,235.933 18.100 C 235.755 17.699,230.687 15.200,230.052 15.200 C 229.778 15.200,229.642 15.056,229.751 14.880 C 229.860 14.704,229.105 14.314,228.074 14.014 C 227.043 13.714,226.110 13.364,226.000 13.235 C 225.598 12.763,223.995 12.000,223.405 12.000 C 223.072 12.000,222.800 11.820,222.800 11.600 C 222.800 11.380,222.438 11.200,221.995 11.200 C 221.552 11.200,220.877 11.041,220.495 10.847 C 219.412 10.296,217.895 9.679,216.800 9.345 C 216.250 9.177,215.710 9.011,215.600 8.976 C 215.490 8.940,214.815 8.774,214.100 8.606 C 213.385 8.438,212.800 8.143,212.800 7.950 C 212.800 7.758,212.260 7.600,211.600 7.600 C 210.940 7.600,210.400 7.440,210.400 7.244 C 210.400 7.048,209.815 6.786,209.100 6.663 C 206.088 6.142,205.200 5.890,205.200 5.555 C 205.200 5.360,204.581 5.200,203.824 5.200 C 203.067 5.200,202.336 5.020,202.200 4.800 C 202.064 4.580,201.233 4.400,200.353 4.400 C 199.388 4.400,198.851 4.241,199.000 4.000 C 199.151 3.756,198.537 3.600,197.424 3.600 C 196.421 3.600,195.600 3.420,195.600 3.200 C 195.600 2.980,194.880 2.800,194.000 2.800 C 193.120 2.800,192.400 2.620,192.400 2.400 C 192.400 2.180,191.421 2.000,190.224 2.000 C 189.027 2.000,187.936 1.820,187.800 1.600 C 187.664 1.380,186.408 1.200,185.010 1.200 C 183.570 1.200,182.405 1.016,182.325 0.775 C 182.232 0.496,178.364 0.268,171.092 0.112 L 160.000 -0.125 160.006 18.837 " stroke="none" fill="#545ce4" fill-rule="evenodd"></path></g></svg>