<svg id="svg" version="1.1" xmlns="http://www.w3.org/2000/svg" xmlns:xlink="http://www.w3.org/1999/xlink" width="400" height="400" viewBox="0, 0, 400,400"><g id="svgg"><path id="path0" d="M82.344 82.799 C 82.864 83.240,83.462 83.600,83.673 83.600 C 84.241 83.600,83.127 82.599,82.200 82.277 C 81.510 82.037,81.530 82.108,82.344 82.799 M37.588 89.539 C 37.484 92.036,37.547 94.169,37.727 94.279 C 38.216 94.580,38.218 94.549,37.989 89.600 L 37.775 85.000 37.588 89.539 M287.601 90.100 L 287.602 95.000 281.101 94.798 C 274.070 94.579,273.743 94.608,274.397 95.397 C 274.717 95.782,274.696 95.978,274.317 96.131 C 273.914 96.293,273.933 96.433,274.400 96.763 C 274.807 97.051,274.839 97.190,274.500 97.194 C 274.225 97.197,274.000 97.470,274.000 97.800 C 274.000 98.130,273.865 98.400,273.700 98.401 C 273.535 98.401,273.379 98.974,273.354 99.674 C 273.326 100.448,272.974 101.216,272.454 101.637 C 271.984 102.017,271.600 102.715,271.600 103.188 C 271.600 103.660,271.420 103.936,271.200 103.800 C 270.980 103.664,270.800 103.863,270.800 104.243 C 270.800 104.623,270.683 104.816,270.540 104.673 C 270.240 104.374,269.232 105.575,269.213 106.253 C 269.206 106.503,269.560 106.801,270.000 106.916 C 270.479 107.041,270.800 107.462,270.800 107.963 C 270.800 108.423,270.980 108.800,271.200 108.800 C 271.420 108.800,271.600 109.083,271.600 109.429 C 271.600 109.774,271.872 110.329,272.204 110.661 C 272.536 110.993,272.705 111.430,272.580 111.632 C 272.455 111.835,272.543 112.000,272.776 112.000 C 273.009 112.000,273.200 112.349,273.200 112.776 C 273.200 113.203,273.380 113.664,273.600 113.800 C 273.820 113.936,274.000 115.037,274.000 116.247 C 274.000 117.457,274.160 118.349,274.355 118.228 C 274.550 118.107,274.702 118.232,274.692 118.504 C 274.682 118.777,274.702 121.835,274.737 125.300 L 274.800 131.600 281.400 131.600 L 288.000 131.600 288.000 108.400 C 288.000 95.640,287.910 85.200,287.800 85.200 C 287.690 85.200,287.600 87.405,287.601 90.100 M49.709 92.800 C 49.709 93.790,49.787 94.195,49.882 93.700 C 49.978 93.205,49.978 92.395,49.882 91.900 C 49.787 91.405,49.709 91.810,49.709 92.800 M261.892 92.900 C 261.783 93.615,261.837 94.380,262.013 94.600 C 262.320 94.984,235.218 95.001,96.500 94.700 C 71.145 94.645,50.400 94.746,50.400 94.924 C 50.400 95.102,50.580 95.136,50.800 95.000 C 51.020 94.864,51.200 94.964,51.200 95.223 C 51.200 95.496,50.865 95.606,50.400 95.484 C 49.960 95.369,49.600 95.438,49.600 95.637 C 49.600 95.837,49.890 96.000,50.243 96.000 C 50.738 96.000,50.826 96.243,50.624 97.047 C 50.444 97.763,50.576 98.332,51.043 98.847 C 51.752 99.630,52.632 99.899,52.200 99.200 C 52.064 98.980,52.143 98.800,52.376 98.800 C 52.765 98.800,52.965 99.354,52.847 100.101 C 52.736 100.799,259.502 100.433,259.769 99.735 C 259.907 99.378,260.135 99.202,260.277 99.344 C 260.673 99.740,262.000 98.368,262.000 97.562 C 262.000 97.169,262.170 96.742,262.377 96.614 C 262.818 96.341,262.829 91.600,262.389 91.600 C 262.225 91.600,262.001 92.185,261.892 92.900 M25.057 97.259 C 24.916 98.611,24.800 108.331,24.800 118.859 L 24.800 138.000 31.380 138.000 L 37.961 138.000 38.133 128.100 C 38.323 117.237,38.569 113.877,39.190 113.670 C 39.416 113.595,39.600 113.182,39.600 112.753 C 39.600 112.323,39.891 111.528,40.246 110.986 C 40.601 110.444,40.768 110.000,40.617 110.000 C 40.466 110.000,40.581 109.736,40.871 109.414 C 42.222 107.916,42.400 107.542,42.400 106.200 C 42.400 104.870,42.225 104.496,40.919 103.034 C 40.655 102.738,40.550 102.384,40.686 102.248 C 40.822 102.111,40.746 102.000,40.517 102.000 C 40.288 102.000,39.990 101.448,39.855 100.773 C 39.714 100.071,39.432 99.657,39.195 99.803 C 38.967 99.944,38.806 99.911,38.837 99.730 C 38.869 99.548,38.857 99.220,38.812 99.000 C 38.766 98.780,38.748 97.700,38.772 96.600 C 38.807 94.982,38.731 94.738,38.374 95.324 C 38.132 95.723,38.027 96.293,38.141 96.591 C 38.256 96.890,38.100 97.229,37.796 97.346 C 37.371 97.509,37.283 97.237,37.418 96.179 L 37.595 94.800 31.455 94.800 L 25.314 94.800 25.057 97.259 M53.001 112.402 C 53.136 112.621,52.967 112.800,52.624 112.800 C 52.281 112.800,52.000 112.991,52.000 113.224 C 52.000 113.457,51.820 113.536,51.600 113.400 C 51.380 113.264,51.200 113.463,51.200 113.843 C 51.200 114.223,51.083 114.416,50.939 114.273 C 50.796 114.129,50.427 114.498,50.119 115.091 C 49.375 116.525,49.400 172.538,50.145 172.277 C 50.395 172.189,50.548 171.824,50.484 171.466 C 50.377 170.866,57.137 170.814,136.384 170.804 C 197.532 170.796,222.400 170.917,222.400 171.223 C 222.400 171.472,222.738 171.547,223.200 171.400 C 223.754 171.224,224.000 171.328,224.000 171.738 C 224.000 172.085,224.288 172.274,224.700 172.195 C 225.085 172.122,225.541 172.047,225.714 172.031 C 225.887 172.014,225.841 171.651,225.613 171.224 C 225.317 170.670,225.330 170.367,225.661 170.162 C 225.940 169.990,226.016 170.051,225.851 170.318 C 225.561 170.786,227.105 171.828,227.501 171.432 C 227.629 171.305,227.523 171.200,227.267 171.200 C 227.010 171.200,226.800 171.026,226.800 170.813 C 226.800 170.599,227.100 170.540,227.466 170.681 C 227.910 170.851,228.036 170.782,227.845 170.473 C 227.657 170.168,227.775 170.092,228.189 170.251 C 228.677 170.438,228.716 170.619,228.361 171.047 C 228.050 171.422,228.040 171.600,228.331 171.600 C 228.567 171.600,228.904 171.356,229.080 171.058 C 229.256 170.761,229.827 170.293,230.348 170.018 C 230.870 169.744,231.182 169.706,231.042 169.932 C 230.902 170.159,230.959 170.451,231.169 170.581 C 231.379 170.711,231.697 170.588,231.875 170.308 C 232.054 170.029,232.560 169.768,233.000 169.730 L 233.800 169.659 233.000 170.275 C 232.532 170.636,232.449 170.818,232.800 170.714 C 233.130 170.617,233.590 170.160,233.822 169.699 C 234.206 168.936,234.282 168.921,234.684 169.531 C 235.088 170.145,235.169 170.147,235.662 169.556 C 236.266 168.833,237.786 168.175,237.397 168.805 C 237.263 169.022,237.433 169.200,237.776 169.200 C 238.119 169.200,238.400 169.380,238.400 169.600 C 238.400 169.820,238.670 170.000,239.000 170.000 C 239.330 170.000,239.600 169.809,239.600 169.576 C 239.600 169.343,239.450 169.245,239.267 169.359 C 239.083 169.472,238.933 169.312,238.933 169.003 C 238.933 168.573,239.191 168.624,240.028 169.220 C 241.344 170.157,241.865 170.193,242.657 169.400 C 243.402 168.655,244.966 168.590,244.687 169.316 C 244.560 169.648,244.867 169.861,245.545 169.912 C 246.359 169.974,246.463 169.903,246.000 169.602 C 245.467 169.256,245.467 169.211,246.000 169.200 C 246.533 169.189,246.533 169.140,246.000 168.756 C 245.501 168.397,245.523 168.365,246.133 168.562 C 246.536 168.693,247.121 168.800,247.433 168.800 C 247.745 168.800,247.955 169.025,247.900 169.300 C 247.828 169.659,248.533 169.800,250.400 169.800 C 251.830 169.800,253.206 169.934,253.458 170.098 C 253.716 170.265,254.016 170.135,254.146 169.798 C 254.272 169.469,254.858 169.200,255.449 169.200 C 256.466 169.200,256.488 169.240,255.860 169.933 C 255.311 170.540,255.298 170.667,255.781 170.667 C 256.102 170.667,256.253 170.486,256.117 170.265 C 255.967 170.022,256.144 169.970,256.567 170.132 C 256.951 170.279,257.521 170.400,257.833 170.400 C 258.145 170.400,258.400 170.632,258.400 170.915 C 258.400 171.273,259.065 171.427,260.579 171.422 L 262.759 171.414 262.789 143.717 C 262.813 121.971,262.710 115.826,262.310 115.115 C 261.620 113.888,260.400 112.800,259.715 112.800 C 259.406 112.800,259.264 112.621,259.399 112.402 C 259.562 112.137,224.798 112.003,156.200 112.003 C 87.605 112.003,52.838 112.137,53.001 112.402 M93.800 125.600 C 93.936 125.820,95.117 126.000,96.424 126.000 C 97.741 126.000,98.800 126.178,98.800 126.400 C 98.800 126.620,99.034 126.800,99.320 126.800 C 100.056 126.800,101.993 127.741,101.997 128.100 C 101.999 128.265,102.320 128.400,102.712 128.400 C 103.103 128.400,103.683 128.760,104.000 129.200 C 104.317 129.640,104.762 130.000,104.988 130.000 C 106.296 130.002,108.283 132.861,110.632 138.122 C 111.443 139.938,111.613 148.020,110.859 148.928 C 110.611 149.228,110.524 149.591,110.668 149.734 C 110.811 149.878,110.624 150.332,110.252 150.743 C 109.880 151.154,109.503 151.864,109.415 152.320 C 109.328 152.776,108.703 153.727,108.028 154.434 C 107.353 155.140,106.800 155.962,106.800 156.259 C 106.800 156.557,106.575 156.800,106.300 156.801 C 105.586 156.802,103.200 158.922,103.200 159.555 C 103.200 159.916,102.893 160.010,102.246 159.847 C 101.634 159.694,101.109 159.828,100.782 160.222 C 100.501 160.560,100.053 160.752,99.785 160.649 C 99.517 160.547,99.086 160.673,98.829 160.931 C 98.325 161.435,88.336 161.627,88.645 161.128 C 88.737 160.978,88.630 160.742,88.407 160.604 C 88.183 160.466,87.997 160.588,87.994 160.876 C 87.989 161.306,87.928 161.305,87.654 160.874 C 87.470 160.584,86.837 160.097,86.247 159.791 C 85.657 159.484,85.280 159.406,85.410 159.617 C 85.851 160.330,85.290 160.005,84.000 158.800 C 83.293 158.140,82.503 157.600,82.244 157.600 C 81.985 157.600,81.477 157.105,81.116 156.500 C 80.755 155.895,79.816 154.702,79.029 153.850 C 78.243 152.997,77.600 151.973,77.600 151.573 C 77.600 151.174,77.420 150.736,77.200 150.600 C 76.980 150.464,76.800 149.913,76.800 149.376 C 76.800 148.839,76.620 148.400,76.400 148.400 C 76.157 148.400,76.000 146.600,76.000 143.800 C 76.000 141.000,76.157 139.200,76.400 139.200 C 76.620 139.200,76.800 138.649,76.800 137.976 C 76.800 137.263,76.967 136.856,77.200 137.000 C 77.428 137.141,77.600 136.796,77.600 136.200 C 77.600 135.604,77.772 135.259,78.000 135.400 C 78.220 135.536,78.400 135.357,78.400 135.002 C 78.400 134.647,78.939 133.781,79.598 133.078 C 80.257 132.375,80.797 131.575,80.798 131.300 C 80.799 131.025,80.993 130.800,81.229 130.800 C 81.464 130.800,81.894 130.575,82.184 130.300 C 83.534 129.018,84.460 128.400,85.028 128.400 C 85.369 128.400,85.536 128.220,85.400 128.000 C 85.259 127.772,85.604 127.600,86.200 127.600 C 86.796 127.600,87.141 127.428,87.000 127.200 C 86.856 126.967,87.263 126.800,87.976 126.800 C 88.649 126.800,89.200 126.620,89.200 126.400 C 89.200 126.180,90.235 125.997,91.500 125.994 C 93.133 125.990,93.626 125.875,93.200 125.600 C 92.839 125.367,92.790 125.210,93.076 125.206 C 93.338 125.203,93.664 125.380,93.800 125.600 M90.400 137.505 C 90.400 137.673,89.995 137.988,89.500 138.205 C 89.005 138.422,88.422 139.005,88.205 139.500 C 87.988 139.995,87.673 140.400,87.505 140.400 C 87.337 140.400,87.200 141.930,87.200 143.800 C 87.200 145.800,87.365 147.200,87.600 147.200 C 87.820 147.200,88.000 147.478,88.000 147.819 C 88.000 148.159,88.539 148.744,89.197 149.119 C 89.856 149.493,90.396 149.944,90.397 150.121 C 90.399 150.297,91.930 150.407,93.800 150.366 C 95.670 150.325,97.200 150.178,97.200 150.040 C 97.200 149.903,97.605 149.612,98.100 149.395 C 98.595 149.178,99.178 148.595,99.395 148.100 C 99.612 147.605,99.903 147.200,100.040 147.200 C 100.178 147.200,100.325 145.670,100.366 143.800 C 100.407 141.930,100.297 140.399,100.121 140.397 C 99.944 140.396,99.493 139.856,99.119 139.197 C 98.744 138.539,98.159 138.000,97.819 138.000 C 97.478 138.000,97.200 137.820,97.200 137.600 C 97.200 137.365,95.800 137.200,93.800 137.200 C 91.930 137.200,90.400 137.337,90.400 137.505 M162.000 143.800 L 162.000 149.600 156.200 149.600 L 150.400 149.600 150.400 143.800 L 150.400 138.000 156.200 138.000 L 162.000 138.000 162.000 143.800 M187.200 143.800 L 187.200 149.600 181.200 149.600 L 175.200 149.600 175.200 143.800 L 175.200 138.000 181.200 138.000 L 187.200 138.000 187.200 143.800 M212.000 143.800 L 212.000 149.600 206.200 149.600 L 200.400 149.600 200.400 143.800 L 200.400 138.000 206.200 138.000 L 212.000 138.000 212.000 143.800 M237.200 143.800 L 237.200 149.600 231.200 149.600 L 225.200 149.600 225.200 143.800 L 225.200 138.000 231.200 138.000 L 237.200 138.000 237.200 143.800 M274.874 155.786 C 274.978 166.144,274.903 168.429,274.455 168.601 C 273.995 168.777,273.995 168.914,274.455 169.482 C 274.830 169.944,274.844 170.060,274.500 169.853 C 273.831 169.451,273.888 170.018,274.613 170.976 C 274.936 171.404,275.200 171.539,275.200 171.276 C 275.200 170.929,276.821 170.800,281.182 170.800 L 287.164 170.800 287.409 172.300 C 287.543 173.125,287.711 174.070,287.783 174.400 C 287.854 174.730,287.887 167.890,287.856 159.200 L 287.800 143.400 281.274 143.290 L 274.748 143.180 274.874 155.786 M24.800 157.140 C 24.800 161.286,24.916 166.056,25.059 167.740 L 25.317 170.800 31.359 170.806 C 37.701 170.813,38.357 170.941,38.173 172.137 C 38.111 172.542,38.173 172.760,38.312 172.622 C 38.933 172.000,38.814 170.400,38.147 170.400 C 37.773 170.400,37.585 170.282,37.730 170.137 C 37.875 169.992,37.793 169.632,37.548 169.337 C 37.076 168.768,37.577 168.592,38.220 169.100 C 38.429 169.265,38.465 169.229,38.300 169.020 C 38.135 168.811,38.000 164.356,38.000 159.120 L 38.000 149.600 31.400 149.600 L 24.800 149.600 24.800 157.140 M216.442 174.434 C 215.915 174.645,215.563 174.896,215.659 174.993 C 215.947 175.281,217.600 174.736,217.600 174.353 C 217.600 174.159,217.555 174.011,217.500 174.025 C 217.445 174.039,216.969 174.223,216.442 174.434 M229.400 182.000 C 229.264 182.220,229.534 182.400,230.000 182.400 C 230.466 182.400,230.736 182.220,230.600 182.000 C 230.464 181.780,230.194 181.600,230.000 181.600 C 229.806 181.600,229.536 181.780,229.400 182.000 " stroke="none" fill="#aa1ca4" fill-rule="evenodd"></path><path id="path1" d="M169.709 243.200 C 169.709 244.190,169.787 244.595,169.882 244.100 C 169.978 243.605,169.978 242.795,169.882 242.300 C 169.787 241.805,169.709 242.210,169.709 243.200 M273.234 267.940 C 272.923 268.303,272.203 269.128,271.634 269.774 L 270.600 270.949 271.851 269.974 C 273.070 269.025,274.184 267.644,273.928 267.401 C 273.857 267.335,273.545 267.578,273.234 267.940 M219.246 273.540 C 219.771 273.948,220.650 274.497,221.200 274.762 C 222.154 275.222,222.163 275.215,221.400 274.614 C 220.960 274.268,220.283 273.718,219.895 273.392 C 219.508 273.067,218.989 272.800,218.741 272.800 C 218.494 272.800,218.721 273.133,219.246 273.540 M268.176 273.240 C 268.026 273.481,267.341 273.924,266.652 274.224 C 265.963 274.524,265.680 274.776,266.022 274.784 C 266.365 274.793,267.255 274.350,268.000 273.800 C 268.745 273.250,269.151 272.800,268.901 272.800 C 268.652 272.800,268.325 272.998,268.176 273.240 M206.400 275.951 C 206.400 276.198,206.567 276.400,206.771 276.400 C 206.975 276.400,207.224 276.715,207.324 277.100 C 207.479 277.691,207.514 277.698,207.554 277.149 C 207.579 276.791,207.330 276.274,207.000 276.000 C 206.585 275.656,206.400 275.641,206.400 275.951 M253.815 280.376 C 253.687 280.582,253.947 280.724,254.391 280.691 C 254.836 280.657,255.200 280.488,255.200 280.315 C 255.200 279.873,254.096 279.921,253.815 280.376 M235.600 281.246 C 235.600 281.436,236.050 281.554,236.600 281.508 C 237.150 281.463,237.600 281.307,237.600 281.163 C 237.600 281.018,237.150 280.900,236.600 280.900 C 236.050 280.900,235.600 281.055,235.600 281.246 M293.232 282.739 C 292.579 283.960,292.714 284.300,293.441 283.263 C 293.793 282.760,293.988 282.254,293.873 282.140 C 293.759 282.025,293.470 282.295,293.232 282.739 M213.569 282.497 C 213.280 283.475,213.362 283.913,213.804 283.743 C 214.097 283.631,214.397 283.864,214.481 284.271 C 214.616 284.920,214.658 284.908,214.862 284.163 C 215.042 283.510,213.759 281.857,213.569 282.497 M273.155 283.289 C 272.697 284.148,272.713 284.166,273.435 283.613 C 273.856 283.290,274.257 282.993,274.327 282.953 C 274.396 282.913,274.270 282.767,274.047 282.629 C 273.823 282.491,273.422 282.788,273.155 283.289 M195.200 284.376 C 195.200 284.542,195.538 285.067,195.950 285.542 L 196.700 286.407 196.700 285.437 C 196.700 284.825,196.423 284.395,195.950 284.271 C 195.538 284.163,195.200 284.211,195.200 284.376 M216.252 284.470 C 216.437 284.762,216.591 285.135,216.594 285.300 C 216.602 285.714,217.354 285.737,217.491 285.327 C 217.552 285.144,217.223 284.757,216.759 284.467 C 216.061 284.031,215.974 284.032,216.252 284.470 M271.232 284.300 C 271.214 284.575,270.919 284.800,270.576 284.800 C 270.233 284.800,270.064 284.980,270.200 285.200 C 270.336 285.420,270.287 285.600,270.090 285.600 C 269.894 285.600,269.733 285.870,269.733 286.200 C 269.733 286.930,269.892 286.948,270.615 286.300 C 270.921 286.025,271.448 285.568,271.786 285.284 C 272.124 285.001,272.397 284.551,272.394 284.284 C 272.390 283.951,272.280 283.970,272.042 284.345 C 271.751 284.806,271.663 284.806,271.480 284.345 C 271.326 283.958,271.254 283.945,271.232 284.300 M290.133 285.474 C 290.133 285.822,290.285 285.862,290.603 285.597 C 290.862 285.383,291.192 285.325,291.337 285.470 C 291.482 285.615,291.600 285.535,291.600 285.292 C 291.600 285.049,291.270 284.875,290.867 284.905 C 290.463 284.935,290.133 285.191,290.133 285.474 M197.333 285.747 C 197.333 286.106,197.483 286.400,197.667 286.400 C 197.850 286.400,197.979 286.535,197.953 286.700 C 197.834 287.451,198.030 288.028,198.340 287.837 C 198.527 287.722,198.914 288.065,199.200 288.600 C 199.486 289.135,199.846 289.495,200.000 289.400 C 200.154 289.305,200.517 289.671,200.807 290.214 C 201.098 290.756,201.524 291.200,201.755 291.200 C 201.986 291.200,202.552 291.639,203.012 292.175 C 203.473 292.711,204.101 293.206,204.407 293.275 C 204.713 293.344,205.388 293.808,205.908 294.308 C 206.427 294.807,207.048 295.094,207.288 294.946 C 207.537 294.791,207.610 294.860,207.457 295.108 C 207.221 295.489,209.120 297.200,209.778 297.200 C 209.919 297.200,210.425 297.564,210.903 298.010 C 211.381 298.455,212.003 298.731,212.286 298.622 C 212.569 298.514,212.800 298.557,212.800 298.718 C 212.800 299.012,214.004 299.740,215.300 300.229 C 215.685 300.374,216.000 300.652,216.000 300.847 C 216.000 301.041,216.345 301.200,216.767 301.200 C 217.188 301.200,217.593 301.378,217.667 301.597 C 217.740 301.815,218.295 302.034,218.900 302.084 C 219.505 302.134,220.000 302.315,220.000 302.487 C 220.000 302.659,220.461 302.800,221.024 302.800 C 221.604 302.800,221.940 302.973,221.800 303.200 C 221.656 303.433,222.063 303.600,222.776 303.600 C 223.449 303.600,224.000 303.801,224.000 304.047 C 224.000 304.298,224.353 304.401,224.807 304.282 C 225.251 304.166,225.839 304.296,226.115 304.572 C 226.557 305.014,227.696 305.254,232.158 305.845 C 232.794 305.929,233.539 306.184,233.813 306.411 C 234.544 307.017,252.006 306.889,252.769 306.272 C 253.234 305.897,253.287 305.911,253.029 306.340 C 252.767 306.774,252.864 306.794,253.525 306.440 C 253.978 306.198,255.069 306.000,255.950 306.000 C 256.832 306.000,257.664 305.820,257.800 305.600 C 257.936 305.380,258.631 305.200,259.344 305.200 C 260.057 305.200,260.819 305.021,261.038 304.802 C 261.256 304.584,261.918 304.365,262.508 304.316 C 263.098 304.267,263.664 304.010,263.766 303.745 C 263.868 303.479,264.316 303.357,264.761 303.474 C 265.217 303.593,265.845 303.412,266.197 303.060 C 266.544 302.713,267.115 302.546,267.477 302.685 C 267.915 302.853,268.035 302.781,267.842 302.468 C 267.644 302.147,267.969 301.998,268.876 301.994 C 269.878 301.989,270.054 301.893,269.600 301.600 C 269.112 301.285,269.164 301.211,269.876 301.206 C 270.358 301.203,270.864 301.020,271.000 300.800 C 271.136 300.580,271.672 300.400,272.190 300.400 C 272.709 300.400,273.193 300.259,273.267 300.088 C 273.340 299.916,274.030 299.470,274.800 299.097 C 275.570 298.724,275.933 298.414,275.606 298.409 C 275.280 298.404,275.640 298.061,276.406 297.646 C 277.173 297.231,277.963 296.989,278.162 297.107 C 278.361 297.226,278.395 297.116,278.238 296.862 C 278.057 296.569,278.259 296.400,278.789 296.400 C 279.249 296.400,279.728 296.131,279.854 295.802 C 279.981 295.474,280.232 295.296,280.413 295.408 C 280.594 295.520,280.857 295.249,280.998 294.806 C 281.222 294.101,281.903 293.795,282.900 293.953 C 283.065 293.979,283.200 293.700,283.200 293.333 C 283.200 292.967,283.309 292.776,283.442 292.909 C 283.961 293.427,285.653 291.199,285.429 290.293 C 285.307 289.802,285.313 289.633,285.443 289.917 C 285.631 290.331,285.809 290.334,286.339 289.936 C 286.896 289.517,286.921 289.527,286.500 289.999 C 286.225 290.308,286.000 290.732,286.000 290.941 C 286.000 291.151,286.360 290.907,286.800 290.400 C 287.240 289.893,287.597 289.190,287.594 288.839 C 287.589 288.336,287.516 288.314,287.250 288.734 C 286.977 289.163,286.864 289.144,286.668 288.634 C 286.344 287.789,268.404 287.658,268.394 288.500 C 268.390 288.810,268.276 288.848,268.094 288.600 C 267.630 287.969,264.498 287.967,264.256 288.597 C 264.142 288.895,263.723 289.088,263.324 289.026 C 262.926 288.965,262.825 288.992,263.100 289.087 C 263.375 289.181,263.600 289.445,263.600 289.674 C 263.600 289.902,263.954 289.664,264.387 289.144 C 264.881 288.550,265.178 288.406,265.187 288.756 C 265.209 289.680,263.939 290.357,262.914 289.967 C 262.349 289.753,262.000 289.769,262.000 290.010 C 262.000 290.224,261.809 290.400,261.576 290.400 C 261.343 290.400,261.264 290.220,261.400 290.000 C 261.536 289.780,261.467 289.600,261.247 289.600 C 261.027 289.600,260.736 289.780,260.600 290.000 C 260.464 290.220,259.913 290.400,259.376 290.400 C 258.839 290.400,258.400 290.560,258.400 290.755 C 258.400 291.116,257.211 291.408,254.000 291.836 C 253.011 291.968,252.093 292.249,251.962 292.461 C 251.831 292.674,251.221 292.720,250.602 292.565 C 249.704 292.339,249.548 292.395,249.817 292.842 C 250.095 293.303,250.045 293.312,249.525 292.891 C 249.070 292.522,248.609 292.492,247.849 292.782 C 247.173 293.038,246.800 293.041,246.800 292.790 C 246.800 292.196,245.732 292.325,245.057 293.000 C 244.392 293.665,243.822 293.811,244.185 293.224 C 244.323 293.000,243.845 292.940,243.009 293.076 C 242.093 293.225,241.600 293.146,241.600 292.852 C 241.600 292.604,241.409 292.400,241.176 292.400 C 240.943 292.400,240.836 292.535,240.938 292.700 C 241.040 292.865,240.618 293.000,240.000 293.000 C 239.382 293.000,238.952 292.878,239.044 292.730 C 239.135 292.581,238.443 292.463,237.505 292.468 C 236.567 292.472,235.350 292.361,234.800 292.220 C 234.250 292.078,233.189 291.953,232.441 291.941 C 231.458 291.926,231.237 291.816,231.641 291.543 C 232.027 291.283,231.706 291.197,230.600 291.264 C 229.627 291.323,229.033 291.192,229.083 290.930 C 229.129 290.694,228.704 290.500,228.138 290.500 C 227.572 290.500,226.994 290.343,226.855 290.150 C 226.715 289.957,226.330 289.741,226.000 289.670 C 225.670 289.598,225.340 289.373,225.267 289.170 C 225.193 288.966,224.698 288.800,224.167 288.800 C 223.635 288.800,223.182 288.575,223.160 288.300 C 223.138 288.025,222.974 288.250,222.796 288.800 L 222.471 289.800 222.189 288.900 C 222.024 288.372,221.585 288.000,221.130 288.000 C 220.702 288.000,220.464 288.180,220.600 288.400 C 220.920 288.918,220.548 288.908,219.545 288.371 C 218.839 287.993,204.668 287.827,200.486 288.147 C 199.523 288.221,199.228 288.104,199.380 287.709 C 199.493 287.412,199.321 287.068,198.996 286.943 C 198.671 286.818,198.522 286.510,198.666 286.258 C 198.810 286.006,198.782 285.932,198.604 286.094 C 198.425 286.255,198.066 286.097,197.806 285.741 C 197.371 285.146,197.333 285.147,197.333 285.747 M268.182 286.115 C 267.165 287.295,267.080 287.682,267.958 287.133 C 268.421 286.844,268.800 286.381,268.800 286.104 C 268.800 285.491,268.719 285.492,268.182 286.115 M289.488 286.686 C 289.646 287.097,289.576 287.232,289.296 287.059 C 289.053 286.909,288.742 286.970,288.604 287.193 C 288.322 287.651,288.820 287.721,289.767 287.357 C 290.558 287.054,290.582 286.555,289.820 286.263 C 289.413 286.107,289.314 286.233,289.488 286.686 M202.133 290.229 C 201.828 291.025,201.541 290.943,201.682 290.100 C 201.751 289.689,201.581 289.445,201.270 289.510 C 200.979 289.570,200.860 289.427,201.006 289.190 C 201.391 288.567,202.411 289.506,202.133 290.229 M299.824 292.509 C 299.461 292.999,299.289 293.130,299.443 292.800 C 299.597 292.470,298.797 293.100,297.666 294.200 C 296.535 295.300,295.607 296.455,295.605 296.767 C 295.602 297.078,295.480 297.214,295.334 297.068 C 294.807 296.540,291.576 300.272,291.876 301.062 C 292.246 302.040,293.043 302.824,293.352 302.514 C 293.489 302.378,293.600 302.747,293.600 303.333 C 293.600 303.920,293.791 304.400,294.024 304.400 C 294.257 304.400,294.316 304.175,294.155 303.900 C 293.994 303.625,294.253 303.743,294.731 304.162 C 295.209 304.581,295.600 305.179,295.600 305.491 C 295.600 305.802,295.870 306.327,296.200 306.657 C 296.530 306.987,296.800 307.065,296.800 306.831 C 296.800 306.597,297.250 306.797,297.800 307.275 C 298.350 307.753,298.800 308.382,298.800 308.672 C 298.800 308.962,299.017 309.155,299.282 309.100 C 299.547 309.045,299.773 309.270,299.784 309.600 C 299.862 311.937,309.600 305.165,309.600 302.775 C 309.600 302.543,309.780 302.464,310.000 302.600 C 310.239 302.748,310.400 302.255,310.400 301.376 C 310.400 299.899,308.310 297.361,307.504 297.859 C 307.326 297.969,307.225 297.911,307.279 297.730 C 307.443 297.182,305.940 295.190,305.546 295.433 C 305.345 295.558,305.230 295.421,305.290 295.130 C 305.351 294.838,305.175 294.645,304.900 294.700 C 304.625 294.755,304.445 294.575,304.500 294.300 C 304.555 294.025,304.285 293.825,303.900 293.856 C 303.515 293.886,303.200 293.738,303.200 293.527 C 303.200 293.316,302.930 292.873,302.600 292.543 C 302.270 292.213,302.000 292.052,302.000 292.186 C 302.000 292.319,301.659 292.246,301.243 292.023 C 300.641 291.701,300.350 291.801,299.824 292.509 M320.953 306.883 C 317.026 310.756,308.459 319.360,306.900 320.997 C 305.324 322.651,304.571 324.800,305.567 324.800 C 305.769 324.800,306.684 325.520,307.600 326.400 C 308.516 327.280,309.165 328.000,309.042 328.000 C 308.919 328.000,309.970 329.140,311.377 330.533 C 313.488 332.623,315.749 334.012,314.959 332.733 C 314.845 332.550,314.949 332.400,315.190 332.400 C 315.782 332.400,318.400 329.747,318.400 329.147 C 318.400 328.883,318.497 328.764,318.616 328.883 C 318.910 329.177,321.522 326.678,321.316 326.300 C 321.226 326.135,321.444 326.000,321.800 326.000 C 322.156 326.000,322.336 325.820,322.200 325.600 C 322.064 325.380,322.206 325.200,322.514 325.200 C 323.264 325.200,324.481 323.822,324.101 323.403 C 323.935 323.221,324.037 323.209,324.327 323.376 C 324.676 323.577,324.928 323.398,325.072 322.845 C 325.193 322.385,325.450 322.108,325.645 322.228 C 325.840 322.349,326.000 322.156,326.000 321.800 C 326.000 321.444,326.135 321.226,326.300 321.316 C 326.678 321.522,329.177 318.910,328.883 318.616 C 328.764 318.497,328.883 318.400,329.147 318.400 C 329.411 318.400,330.239 317.788,330.987 317.040 C 333.088 314.939,333.028 314.091,330.596 311.453 C 329.608 310.382,328.795 309.662,328.788 309.853 C 328.781 310.044,328.587 309.875,328.356 309.478 C 328.124 309.081,327.500 308.590,326.968 308.388 C 326.435 308.185,326.000 307.735,326.000 307.386 C 326.000 307.038,325.846 306.848,325.658 306.964 C 325.471 307.080,325.115 306.731,324.867 306.187 C 324.211 304.748,322.878 304.984,320.953 306.883 M340.566 322.920 C 340.145 323.155,339.136 324.015,338.325 324.832 C 337.514 325.649,336.794 326.286,336.725 326.247 C 336.656 326.208,334.232 328.567,331.339 331.488 C 328.445 334.410,326.143 336.800,326.223 336.800 C 326.303 336.800,325.689 337.475,324.858 338.300 C 322.236 340.902,322.222 341.079,324.472 343.270 C 325.562 344.331,326.366 345.200,326.260 345.200 C 326.154 345.200,328.797 347.964,332.134 351.343 C 335.470 354.721,338.335 357.410,338.500 357.319 C 338.665 357.228,338.800 357.421,338.800 357.749 C 338.800 358.078,339.115 358.456,339.500 358.590 C 339.885 358.723,340.830 359.541,341.600 360.407 C 345.071 364.308,354.732 373.934,354.954 373.713 C 355.089 373.577,355.200 373.767,355.200 374.133 C 355.200 374.500,355.372 374.800,355.582 374.800 C 355.792 374.800,356.414 375.250,356.964 375.800 C 358.788 377.624,358.183 378.041,368.112 368.112 C 376.463 359.762,376.800 359.392,376.800 358.600 C 376.800 358.254,376.395 357.525,375.900 356.979 C 373.924 354.801,361.600 342.455,361.600 342.653 C 361.600 342.770,360.880 342.116,360.000 341.200 C 359.120 340.284,358.400 339.369,358.400 339.167 C 358.400 338.965,358.100 338.800,357.733 338.800 C 357.367 338.800,357.180 338.687,357.319 338.548 C 357.584 338.282,354.833 335.625,354.276 335.609 C 354.098 335.604,354.029 335.465,354.123 335.300 C 354.216 335.135,352.247 333.005,349.746 330.566 C 347.246 328.128,345.200 326.184,345.200 326.247 C 345.200 326.310,344.330 325.492,343.266 324.428 C 341.629 322.791,341.215 322.560,340.566 322.920 " stroke="none" fill="#7e14c3" fill-rule="evenodd"></path><path id="path2" d="M52.800 37.600 C 52.800 37.820,52.517 38.000,52.171 38.000 C 51.363 38.000,50.400 38.963,50.400 39.771 C 50.400 40.117,50.210 40.400,49.977 40.400 C 49.137 40.400,49.658 95.362,50.500 95.524 C 50.885 95.598,51.200 95.455,51.200 95.206 C 51.200 94.957,51.020 94.864,50.800 95.000 C 50.580 95.136,50.400 95.102,50.400 94.924 C 50.400 94.746,71.145 94.645,96.500 94.700 C 235.218 95.001,262.320 94.984,262.013 94.600 C 261.610 94.095,261.970 91.600,262.445 91.600 C 262.648 91.600,262.800 80.615,262.800 66.000 C 262.800 49.200,262.663 40.400,262.400 40.400 C 262.180 40.400,262.000 40.117,262.000 39.771 C 262.000 38.963,261.037 38.000,260.229 38.000 C 259.883 38.000,259.600 37.820,259.600 37.600 C 259.600 37.334,224.867 37.200,156.200 37.200 C 87.533 37.200,52.800 37.334,52.800 37.600 M98.733 51.654 C 98.807 51.844,99.128 52.000,99.447 52.000 C 100.268 52.000,103.748 53.814,104.374 54.569 C 104.662 54.916,105.081 55.200,105.306 55.200 C 105.944 55.200,108.775 58.400,109.391 59.818 C 109.806 60.773,109.790 60.725,110.194 62.200 C 110.375 62.860,110.680 63.503,110.871 63.629 C 111.062 63.756,111.240 64.566,111.265 65.429 C 111.291 66.293,111.511 67.260,111.756 67.577 C 112.090 68.010,112.081 68.082,111.721 67.866 C 111.364 67.652,111.280 68.180,111.393 69.932 C 111.492 71.468,111.344 72.671,110.968 73.396 C 110.652 74.006,110.282 75.199,110.146 76.046 C 110.011 76.893,109.743 77.488,109.550 77.369 C 109.358 77.250,109.200 77.394,109.200 77.688 C 109.200 77.983,108.840 78.483,108.400 78.800 C 107.960 79.117,107.600 79.631,107.600 79.942 C 107.600 80.254,107.150 80.925,106.600 81.435 C 106.050 81.945,105.600 82.280,105.600 82.181 C 105.600 82.081,105.269 82.315,104.863 82.700 C 104.458 83.085,104.202 83.539,104.293 83.710 C 104.385 83.880,104.311 83.994,104.130 83.963 C 102.932 83.754,102.067 84.100,101.867 84.866 C 101.667 85.632,101.557 85.668,100.920 85.179 C 100.524 84.875,100.337 84.787,100.504 84.984 C 100.910 85.462,98.169 86.386,96.324 86.394 C 95.512 86.397,94.731 86.589,94.588 86.819 C 94.407 87.112,94.176 87.112,93.823 86.819 C 93.195 86.298,91.202 86.426,91.194 86.987 C 91.190 87.259,91.088 87.264,90.894 87.000 C 90.732 86.780,90.240 86.537,89.800 86.460 C 89.360 86.383,88.910 86.185,88.800 86.020 C 88.619 85.748,86.916 85.246,85.738 85.117 C 85.484 85.089,85.374 84.813,85.492 84.503 C 85.623 84.164,85.488 83.984,85.154 84.051 C 83.989 84.285,80.428 81.602,80.707 80.700 C 80.758 80.535,80.620 80.400,80.400 80.400 C 80.180 80.400,80.000 80.119,80.000 79.776 C 80.000 79.433,79.828 79.259,79.618 79.389 C 79.162 79.670,77.885 77.836,77.704 76.642 C 77.634 76.179,77.402 75.740,77.188 75.667 C 76.975 75.593,76.800 75.109,76.800 74.590 C 76.800 74.072,76.620 73.536,76.400 73.400 C 76.173 73.260,76.000 71.270,76.000 68.800 C 76.000 66.330,76.173 64.340,76.400 64.200 C 76.620 64.064,76.800 63.639,76.800 63.256 C 76.800 62.381,77.699 60.407,78.100 60.403 C 78.265 60.401,78.400 60.104,78.400 59.743 C 78.400 59.382,78.940 58.571,79.600 57.940 C 80.260 57.309,80.800 56.692,80.800 56.568 C 80.800 56.205,81.909 55.200,82.309 55.200 C 82.511 55.200,83.002 54.840,83.400 54.400 C 83.798 53.960,84.366 53.600,84.662 53.600 C 84.958 53.600,85.201 53.465,85.203 53.300 C 85.207 52.912,87.169 52.000,88.000 52.000 C 88.352 52.000,88.811 51.832,89.020 51.627 C 89.769 50.891,98.449 50.915,98.733 51.654 M90.400 62.305 C 90.400 62.473,89.995 62.788,89.500 63.005 C 89.005 63.222,88.422 63.805,88.205 64.300 C 87.988 64.795,87.673 65.200,87.505 65.200 C 86.618 65.200,87.204 71.968,88.176 72.939 C 88.712 73.476,89.252 73.814,89.376 73.691 C 89.499 73.568,89.600 73.747,89.600 74.091 C 89.600 75.868,97.059 75.638,98.989 73.800 C 101.831 71.094,100.597 64.432,96.885 62.446 C 95.955 61.948,90.400 61.828,90.400 62.305 M162.000 68.800 L 162.000 74.800 156.200 74.800 L 150.400 74.800 150.400 68.800 L 150.400 62.800 156.200 62.800 L 162.000 62.800 162.000 68.800 M187.200 68.800 L 187.200 74.800 181.200 74.800 L 175.200 74.800 175.200 68.800 L 175.200 62.800 181.200 62.800 L 187.200 62.800 187.200 68.800 M212.000 68.800 L 212.000 74.800 206.200 74.800 L 200.400 74.800 200.400 68.800 L 200.400 62.800 206.200 62.800 L 212.000 62.800 212.000 68.800 M237.200 68.800 L 237.200 74.800 231.200 74.800 L 225.200 74.800 225.200 68.800 L 225.200 62.800 231.200 62.800 L 237.200 62.800 237.200 68.800 M274.889 81.149 C 274.974 90.852,274.887 93.855,274.526 93.716 C 274.219 93.599,274.064 93.970,274.087 94.767 C 274.106 95.445,274.285 96.000,274.484 96.000 C 274.684 96.000,274.736 95.820,274.600 95.600 C 274.464 95.380,274.588 95.197,274.876 95.194 C 275.254 95.189,275.270 95.106,274.937 94.894 C 274.521 94.630,278.042 94.634,285.041 94.905 L 287.482 95.000 287.740 87.600 C 287.882 83.530,287.998 77.545,287.999 74.300 L 288.000 68.400 281.389 68.400 L 274.778 68.400 274.889 81.149 M24.870 86.500 C 24.908 92.935,25.009 97.435,25.093 96.500 L 25.246 94.800 31.421 94.800 L 37.595 94.800 37.418 96.179 C 37.283 97.237,37.371 97.509,37.796 97.346 C 38.100 97.229,38.257 96.893,38.144 96.598 C 38.031 96.304,38.128 95.708,38.360 95.275 C 38.697 94.645,38.643 94.452,38.090 94.308 C 37.464 94.145,37.424 93.648,37.660 88.964 C 37.803 86.124,37.938 81.775,37.960 79.300 L 38.000 74.800 31.400 74.800 L 24.800 74.800 24.870 86.500 M49.733 96.600 C 49.733 96.930,49.973 97.200,50.267 97.200 C 50.560 97.200,50.800 96.930,50.800 96.600 C 50.800 96.270,50.560 96.000,50.267 96.000 C 49.973 96.000,49.733 96.270,49.733 96.600 M42.400 106.133 C 42.400 106.720,42.550 107.200,42.733 107.200 C 43.123 107.200,43.077 105.744,42.675 105.341 C 42.524 105.190,42.400 105.547,42.400 106.133 M269.823 107.367 C 270.661 107.980,271.040 107.913,270.616 107.227 C 270.471 106.992,270.059 106.800,269.700 106.800 C 269.154 106.800,269.174 106.893,269.823 107.367 " stroke="none" fill="#bc1c9c" fill-rule="evenodd"></path><path id="path3" d="M109.722 226.800 C 109.473 227.460,109.339 228.000,109.424 228.000 C 109.510 228.000,109.859 227.460,110.200 226.800 C 110.541 226.140,110.675 225.600,110.498 225.600 C 110.321 225.600,109.972 226.140,109.722 226.800 M181.764 234.341 C 181.921 234.597,181.810 234.898,181.517 235.011 C 180.854 235.265,180.555 252.601,181.206 253.004 C 181.423 253.138,181.600 254.137,181.600 255.224 C 181.600 256.311,181.762 257.200,181.960 257.200 C 182.158 257.200,182.416 257.965,182.534 258.900 C 182.890 261.725,183.272 263.200,183.645 263.200 C 183.840 263.200,184.000 263.562,184.000 264.005 C 184.000 264.448,184.165 265.123,184.367 265.505 C 185.028 266.754,186.498 270.190,186.564 270.640 C 186.600 270.882,186.938 271.551,187.315 272.126 C 187.692 272.701,188.000 273.448,188.000 273.786 C 188.000 274.124,188.158 274.400,188.351 274.400 C 188.545 274.400,188.926 274.938,189.198 275.595 C 189.470 276.252,189.852 276.691,190.046 276.571 C 190.241 276.451,190.400 276.689,190.400 277.101 C 190.400 277.512,190.760 278.236,191.200 278.708 C 191.640 279.180,192.000 279.762,192.000 280.001 C 192.000 280.240,192.464 280.922,193.031 281.517 C 193.598 282.113,194.224 283.006,194.422 283.503 C 194.620 284.000,194.921 284.383,195.091 284.356 C 195.953 284.215,196.800 284.447,196.800 284.824 C 196.800 285.057,196.624 285.138,196.408 285.005 C 196.192 284.872,196.320 285.293,196.693 285.942 C 197.153 286.744,197.617 287.074,198.142 286.973 C 199.240 286.761,199.662 287.136,199.231 287.941 C 198.936 288.494,199.035 288.647,199.725 288.699 C 200.384 288.749,200.453 288.680,200.014 288.408 C 199.666 288.193,203.146 288.038,208.797 288.015 C 213.944 287.995,218.234 287.899,218.330 287.803 C 218.426 287.707,218.881 287.892,219.342 288.214 C 220.304 288.888,220.962 288.985,220.600 288.400 C 220.464 288.180,220.678 287.997,221.076 287.994 C 221.671 287.989,221.697 287.922,221.219 287.620 C 220.900 287.418,220.495 287.342,220.319 287.450 C 220.144 287.558,220.000 287.388,220.000 287.070 C 220.000 286.496,218.830 285.911,217.503 285.823 C 217.120 285.798,216.817 285.634,216.830 285.458 C 216.893 284.585,215.034 283.534,214.741 284.278 C 214.471 284.964,214.455 284.963,214.428 284.257 C 214.410 283.783,214.193 283.594,213.827 283.734 C 213.427 283.888,213.300 283.720,213.404 283.177 C 213.540 282.472,213.170 282.206,212.270 282.363 C 212.089 282.394,212.048 282.246,212.179 282.034 C 212.310 281.822,212.143 281.412,211.807 281.124 C 211.472 280.836,210.415 279.838,209.458 278.907 C 208.502 277.976,207.602 277.331,207.460 277.474 C 207.317 277.616,207.200 277.498,207.200 277.210 C 207.200 276.922,206.661 276.171,206.002 275.541 C 205.343 274.912,204.814 274.352,204.828 274.298 C 204.945 273.818,204.224 272.862,203.896 273.064 C 203.662 273.209,203.594 273.133,203.742 272.894 C 203.888 272.658,203.736 272.193,203.404 271.861 C 203.072 271.529,202.800 271.054,202.800 270.805 C 202.800 270.556,202.620 270.464,202.400 270.600 C 202.180 270.736,202.000 270.573,202.000 270.237 C 202.000 269.902,201.460 268.776,200.800 267.736 C 200.140 266.695,199.600 265.609,199.600 265.322 C 199.600 265.035,199.420 264.800,199.200 264.800 C 198.980 264.800,198.800 264.451,198.800 264.024 C 198.800 263.597,198.620 263.136,198.400 263.000 C 198.180 262.864,198.000 262.313,198.000 261.776 C 198.000 261.239,197.820 260.800,197.600 260.800 C 197.380 260.800,197.200 260.339,197.200 259.776 C 197.200 259.196,197.027 258.860,196.800 259.000 C 196.559 259.149,196.400 258.612,196.400 257.647 C 196.400 256.767,196.220 255.936,196.000 255.800 C 195.780 255.664,195.600 255.034,195.600 254.400 C 195.600 253.766,195.449 253.154,195.264 253.039 C 195.078 252.925,194.888 251.615,194.840 250.128 C 194.791 248.641,194.538 247.159,194.276 246.835 C 193.903 246.374,193.908 246.312,194.300 246.547 C 194.663 246.765,194.800 246.456,194.800 245.424 C 194.800 244.641,194.631 244.000,194.425 244.000 C 194.219 244.000,194.077 243.640,194.110 243.200 C 194.143 242.760,194.312 242.400,194.485 242.400 C 194.983 242.400,194.852 240.484,194.343 240.314 C 194.091 240.230,193.834 239.686,193.772 239.105 C 193.689 238.328,193.810 238.106,194.230 238.267 C 194.578 238.400,194.800 238.235,194.800 237.843 C 194.800 237.219,194.016 237.114,193.589 237.680 C 193.427 237.895,184.774 238.142,181.700 238.020 C 180.963 237.991,181.092 236.772,181.900 236.143 C 182.550 235.637,182.543 235.617,181.800 235.867 C 181.022 236.128,181.020 236.112,181.726 235.308 C 182.269 234.688,182.329 234.403,181.964 234.178 C 181.652 233.985,181.580 234.043,181.764 234.341 M292.028 234.700 C 292.138 235.873,292.746 236.526,292.772 235.500 C 292.787 234.895,292.620 234.400,292.400 234.400 C 292.180 234.400,292.013 234.535,292.028 234.700 M100.705 235.921 C 100.578 236.404,100.626 236.892,100.810 237.006 C 101.319 237.321,101.534 236.694,101.217 235.821 C 100.948 235.081,100.923 235.086,100.705 235.921 M86.603 235.995 C 86.463 236.222,86.623 236.289,86.979 236.153 C 87.370 236.003,87.600 236.136,87.600 236.514 C 87.600 236.844,87.915 237.234,88.300 237.381 C 88.861 237.595,88.901 237.548,88.500 237.144 C 88.225 236.867,88.000 236.460,88.000 236.240 C 88.000 236.018,88.213 236.053,88.480 236.320 C 88.744 236.584,89.138 236.800,89.356 236.800 C 89.575 236.800,89.404 236.536,88.976 236.213 C 88.074 235.530,86.954 235.428,86.603 235.995 M305.608 236.395 C 305.111 236.702,305.130 236.798,305.728 237.028 C 306.563 237.348,307.108 236.948,306.570 236.410 C 306.343 236.183,305.961 236.177,305.608 236.395 M91.200 236.813 C 91.200 237.466,92.355 237.735,92.969 237.225 C 93.334 236.923,93.615 236.901,93.777 237.163 C 93.914 237.385,94.543 237.528,95.174 237.483 C 95.805 237.437,96.227 237.246,96.111 237.057 C 95.995 236.869,96.327 236.835,96.850 236.983 C 97.583 237.191,97.663 237.156,97.200 236.832 C 96.417 236.284,95.074 236.286,94.525 236.835 C 94.212 237.148,94.015 237.148,93.822 236.835 C 93.480 236.281,91.200 236.262,91.200 236.813 M98.949 236.718 C 99.639 237.833,97.149 237.961,74.176 237.988 C 61.223 238.003,50.495 238.147,50.336 238.308 C 50.177 238.468,49.929 240.400,49.784 242.600 L 49.521 246.600 50.908 248.000 C 51.672 248.770,52.582 249.626,52.933 249.901 C 53.437 250.299,65.591 250.382,111.685 250.301 L 169.800 250.200 169.800 245.304 C 169.800 242.611,169.741 240.584,169.668 240.800 C 169.595 241.016,169.280 240.937,168.968 240.625 C 168.208 239.865,168.252 239.636,169.115 239.862 C 169.704 240.016,169.837 239.781,169.872 238.524 C 169.911 237.084,169.507 236.412,168.600 236.412 C 168.380 236.412,168.470 236.587,168.800 236.800 C 169.236 237.082,169.257 237.189,168.876 237.194 C 168.588 237.197,168.464 237.380,168.600 237.600 C 168.764 237.866,157.054 238.000,133.775 238.000 C 103.628 238.000,98.768 237.921,99.170 237.436 C 99.529 237.003,99.526 236.802,99.158 236.574 C 98.860 236.390,98.781 236.445,98.949 236.718 M206.358 236.500 C 206.078 237.159,206.261 239.088,206.585 238.894 C 206.813 238.758,206.792 238.906,206.539 239.223 C 206.000 239.897,205.776 250.800,206.301 250.800 C 206.486 250.800,206.681 251.456,206.735 252.257 C 206.789 253.058,207.007 254.039,207.219 254.436 C 207.432 254.833,207.643 255.617,207.690 256.179 C 207.736 256.740,207.915 257.200,208.087 257.200 C 208.259 257.200,208.400 257.560,208.400 258.000 C 208.400 258.440,208.580 258.800,208.800 258.800 C 209.020 258.800,209.200 259.034,209.200 259.320 C 209.200 260.080,210.146 261.993,210.524 261.997 C 210.702 261.999,210.745 262.165,210.621 262.366 C 210.401 262.722,212.887 266.305,213.763 266.894 C 214.003 267.056,214.050 267.191,213.866 267.194 C 213.507 267.200,215.980 270.508,216.520 270.741 C 216.699 270.818,217.277 271.313,217.805 271.841 C 218.332 272.368,218.937 272.800,219.148 272.800 C 219.360 272.800,219.593 272.945,219.667 273.123 C 219.859 273.591,223.465 276.000,223.972 276.000 C 224.207 276.000,224.400 276.180,224.400 276.400 C 224.400 276.620,224.670 276.800,225.000 276.800 C 225.330 276.800,225.600 276.980,225.600 277.200 C 225.600 277.420,225.945 277.600,226.367 277.600 C 226.788 277.600,227.193 277.764,227.267 277.963 C 227.340 278.163,227.760 278.388,228.200 278.463 C 228.640 278.539,229.090 278.710,229.200 278.844 C 229.565 279.289,234.236 280.800,235.247 280.800 C 235.793 280.800,236.482 281.025,236.779 281.300 C 237.210 281.700,237.261 281.700,237.035 281.300 C 236.880 281.025,236.943 280.800,237.176 280.800 C 237.409 280.800,237.600 280.971,237.600 281.180 C 237.600 281.676,248.711 281.667,249.018 281.171 C 249.157 280.946,249.570 280.970,250.058 281.231 C 250.684 281.566,251.024 281.521,251.566 281.031 C 251.950 280.683,252.386 280.519,252.533 280.666 C 252.681 280.814,253.206 280.745,253.701 280.513 C 254.908 279.947,257.713 279.122,258.155 279.203 C 258.351 279.239,258.621 279.118,258.755 278.934 C 259.144 278.403,260.732 277.600,261.395 277.600 C 261.728 277.600,262.000 277.420,262.000 277.200 C 262.000 276.980,262.360 276.800,262.800 276.800 C 263.240 276.800,263.600 276.620,263.600 276.400 C 263.600 276.180,263.883 276.000,264.229 276.000 C 264.867 276.000,266.332 274.813,265.729 274.784 C 265.548 274.776,265.955 274.527,266.633 274.232 C 268.225 273.539,274.400 267.374,274.400 266.478 C 274.400 266.312,274.760 265.917,275.200 265.600 C 275.640 265.283,276.000 264.703,276.000 264.312 C 276.000 263.920,276.180 263.600,276.400 263.600 C 276.620 263.600,276.800 263.240,276.800 262.800 C 276.800 262.360,276.980 262.000,277.200 262.000 C 277.420 262.000,277.600 261.640,277.600 261.200 C 277.600 260.760,277.780 260.400,278.000 260.400 C 278.220 260.400,278.400 260.040,278.400 259.600 C 278.400 259.160,278.580 258.800,278.800 258.800 C 279.020 258.800,279.200 258.528,279.200 258.195 C 279.200 257.862,279.358 257.277,279.551 256.895 C 280.180 255.649,280.800 253.366,280.800 252.295 C 280.800 251.719,280.981 251.135,281.203 250.998 C 281.447 250.847,281.582 248.520,281.545 245.075 C 281.512 241.954,281.405 239.625,281.309 239.900 C 281.212 240.175,280.998 240.400,280.834 240.400 C 280.435 240.400,280.559 238.900,280.989 238.508 C 281.176 238.339,281.182 238.453,281.002 238.762 C 280.783 239.140,280.828 239.230,281.138 239.038 C 281.998 238.507,281.711 237.112,280.838 237.580 C 279.624 238.229,206.845 238.348,207.094 237.700 C 207.199 237.425,207.076 237.200,206.819 237.200 C 206.563 237.200,206.464 237.020,206.600 236.800 C 206.736 236.580,206.747 236.400,206.624 236.400 C 206.501 236.400,206.381 236.445,206.358 236.500 M299.200 237.984 L 293.000 238.200 292.868 239.357 C 292.793 240.014,292.966 240.659,293.268 240.850 C 293.672 241.107,293.679 241.189,293.297 241.194 C 292.892 241.199,292.892 241.367,293.297 242.052 C 293.699 242.733,293.699 242.941,293.300 243.086 C 292.674 243.312,292.644 244.281,293.257 244.486 C 293.578 244.593,293.595 244.872,293.315 245.419 C 293.096 245.849,292.873 247.190,292.820 248.400 C 292.681 251.585,292.583 252.350,292.275 252.659 C 292.124 252.810,292.000 253.623,292.000 254.467 C 292.000 255.310,291.820 256.000,291.600 256.000 C 291.380 256.000,291.200 256.540,291.200 257.200 C 291.200 257.860,291.020 258.400,290.800 258.400 C 290.580 258.400,290.400 258.822,290.400 259.339 C 290.400 259.855,290.150 260.800,289.844 261.439 C 289.538 262.077,288.982 263.320,288.610 264.200 C 287.487 266.852,286.496 268.622,285.500 269.755 C 285.115 270.193,284.800 270.787,284.800 271.075 C 284.800 271.364,284.650 271.600,284.468 271.600 C 284.285 271.600,283.880 272.095,283.568 272.700 C 283.255 273.305,282.605 274.238,282.121 274.773 C 281.638 275.308,281.351 275.921,281.483 276.135 C 281.615 276.349,281.549 276.415,281.335 276.283 C 280.920 276.027,278.800 277.789,278.800 278.389 C 278.800 278.586,278.440 278.860,278.000 279.000 C 277.560 279.140,277.200 279.432,277.200 279.651 C 277.200 279.869,277.425 279.918,277.700 279.759 C 277.990 279.592,278.060 279.624,277.867 279.836 C 277.683 280.036,277.368 280.223,277.167 280.250 C 276.275 280.372,276.234 280.434,276.800 280.800 C 277.285 281.114,277.228 281.189,276.500 281.194 C 276.005 281.197,275.600 281.391,275.600 281.624 C 275.600 281.857,275.465 281.965,275.300 281.866 C 274.974 281.668,273.947 282.614,274.206 282.873 C 274.293 282.959,273.993 283.262,273.540 283.545 C 273.087 283.828,272.836 283.866,272.982 283.630 C 273.128 283.393,273.079 283.200,272.874 283.200 C 272.668 283.200,272.395 283.726,272.266 284.368 C 272.128 285.061,271.701 285.641,271.216 285.795 C 270.767 285.937,270.400 286.222,270.400 286.427 C 270.400 286.632,270.220 286.800,270.000 286.800 C 269.780 286.800,269.621 286.665,269.647 286.500 C 269.775 285.695,269.515 285.717,268.568 286.594 C 268.001 287.120,267.299 287.459,267.009 287.348 C 266.718 287.237,266.362 287.338,266.217 287.573 C 265.967 287.978,266.130 288.066,267.300 288.160 C 267.575 288.182,267.932 288.380,268.094 288.600 C 268.276 288.848,268.390 288.810,268.394 288.500 C 268.405 287.604,286.243 287.798,286.768 288.700 C 287.089 289.252,287.180 289.273,287.194 288.800 C 287.205 288.426,287.323 288.359,287.506 288.622 C 287.698 288.898,288.043 288.794,288.500 288.322 C 288.885 287.925,289.009 287.600,288.776 287.600 C 288.543 287.600,288.466 287.417,288.604 287.193 C 288.742 286.970,289.053 286.909,289.296 287.059 C 289.568 287.228,289.649 287.105,289.508 286.738 C 289.351 286.329,289.535 286.154,290.100 286.173 C 290.550 286.188,291.012 285.930,291.125 285.600 C 291.292 285.110,291.220 285.091,290.732 285.494 C 290.249 285.892,290.133 285.876,290.133 285.416 C 290.133 285.102,290.238 284.856,290.367 284.870 C 291.661 285.009,292.544 284.720,291.800 284.400 C 291.037 284.072,291.041 284.055,291.900 284.028 C 292.395 284.013,292.800 283.818,292.800 283.596 C 292.800 283.374,293.340 282.628,294.000 281.937 C 294.660 281.246,295.200 280.536,295.200 280.359 C 295.200 280.181,295.650 279.586,296.200 279.036 C 296.750 278.486,297.200 277.773,297.200 277.452 C 297.200 277.130,297.335 276.807,297.500 276.733 C 297.983 276.519,299.600 273.353,299.600 272.622 C 299.600 272.254,299.735 272.036,299.900 272.138 C 300.224 272.339,302.281 268.228,302.572 266.800 C 302.594 266.690,302.755 266.375,302.930 266.100 C 303.104 265.825,303.157 265.600,303.047 265.600 C 302.937 265.600,303.098 265.118,303.403 264.529 C 303.709 263.939,303.868 263.309,303.756 263.129 C 303.644 262.948,303.743 262.800,303.976 262.800 C 304.209 262.800,304.400 262.361,304.400 261.824 C 304.400 261.287,304.542 260.759,304.716 260.652 C 304.890 260.544,305.078 259.788,305.133 258.971 C 305.188 258.154,305.408 257.159,305.622 256.759 C 305.836 256.360,305.973 255.890,305.927 255.716 C 305.881 255.542,306.003 254.320,306.199 253.000 C 306.752 249.259,306.721 240.000,306.155 240.000 C 305.897 240.000,305.590 239.750,305.473 239.445 C 305.320 239.046,305.494 238.952,306.092 239.108 C 306.659 239.256,306.834 239.178,306.639 238.863 C 306.482 238.608,306.083 238.400,305.753 238.400 C 305.423 238.400,305.264 238.220,305.400 238.000 C 305.536 237.780,305.592 237.638,305.524 237.684 C 305.456 237.730,302.610 237.865,299.200 237.984 M169.076 243.500 C 168.975 243.885,168.893 243.570,168.893 242.800 C 168.893 242.030,168.975 241.715,169.076 242.100 C 169.176 242.485,169.176 243.115,169.076 243.500 M198.604 286.094 C 198.782 285.932,198.804 286.017,198.651 286.283 C 198.281 286.927,197.333 286.530,197.333 285.730 C 197.333 285.155,197.379 285.156,197.806 285.741 C 198.066 286.097,198.425 286.255,198.604 286.094 M222.000 288.576 C 222.000 288.893,222.180 289.264,222.400 289.400 C 222.620 289.536,222.800 289.277,222.800 288.824 C 222.800 288.371,222.620 288.000,222.400 288.000 C 222.180 288.000,222.000 288.259,222.000 288.576 M264.804 288.596 C 264.532 288.923,264.176 289.109,264.014 289.008 C 263.851 288.908,263.395 289.062,263.000 289.351 C 262.316 289.851,262.319 289.886,263.072 290.083 C 263.972 290.318,264.926 289.729,265.312 288.700 C 265.634 287.843,265.458 287.807,264.804 288.596 M201.006 289.190 C 200.860 289.427,200.979 289.570,201.270 289.510 C 201.581 289.445,201.751 289.689,201.682 290.100 C 201.541 290.943,201.828 291.025,202.133 290.229 C 202.411 289.506,201.391 288.567,201.006 289.190 M285.238 289.800 C 285.171 290.851,285.847 291.137,286.378 290.284 C 286.870 289.494,286.862 289.455,286.303 289.917 C 285.792 290.339,285.640 290.339,285.470 289.917 C 285.356 289.633,285.252 289.580,285.238 289.800 " stroke="none" fill="#8c19bc" fill-rule="evenodd"></path><path id="path4" d="M24.874 189.700 L 24.800 212.800 31.381 212.800 L 37.962 212.800 38.121 202.700 C 38.300 191.314,38.457 189.861,39.827 186.889 C 40.362 185.728,40.800 184.685,40.800 184.572 C 40.800 184.360,41.334 183.662,42.428 182.443 C 43.025 181.779,42.786 180.263,41.979 179.600 C 41.845 179.490,41.313 178.545,40.797 177.500 C 40.281 176.455,39.716 175.600,39.542 175.600 C 39.368 175.600,39.322 175.348,39.440 175.040 C 39.558 174.733,39.462 174.362,39.227 174.217 C 38.992 174.072,38.800 173.593,38.800 173.153 C 38.800 172.619,38.633 172.453,38.300 172.653 C 37.933 172.874,37.940 172.781,38.326 172.305 C 39.268 171.142,37.661 170.800,31.247 170.800 L 25.242 170.800 25.095 168.700 C 25.014 167.545,24.915 176.995,24.874 189.700 M49.850 168.050 C 49.511 169.745,49.535 171.514,49.900 171.734 C 50.065 171.834,50.222 170.764,50.248 169.358 C 50.302 166.499,50.216 166.218,49.850 168.050 M236.500 168.812 C 236.005 169.011,235.614 169.405,235.632 169.687 C 235.656 170.089,235.707 170.091,235.865 169.700 C 235.976 169.425,236.242 169.200,236.457 169.200 C 236.672 169.200,236.736 169.380,236.600 169.600 C 236.460 169.827,236.796 170.000,237.376 170.000 C 237.939 170.000,238.400 169.820,238.400 169.600 C 238.400 169.380,238.119 169.200,237.776 169.200 C 237.433 169.200,237.264 169.020,237.400 168.800 C 237.687 168.336,237.685 168.336,236.500 168.812 M238.933 169.006 C 238.933 169.314,239.068 169.482,239.233 169.380 C 239.397 169.278,239.601 169.403,239.686 169.658 C 239.802 170.007,240.128 170.007,241.020 169.656 C 241.708 169.385,241.836 169.258,241.326 169.351 C 240.845 169.439,240.110 169.272,239.693 168.980 C 239.056 168.534,238.933 168.538,238.933 169.006 M246.000 168.756 C 246.533 169.140,246.533 169.189,246.000 169.200 C 245.467 169.211,245.467 169.255,246.000 169.600 C 246.900 170.182,247.867 170.078,247.867 169.400 C 247.867 169.070,247.641 168.800,247.366 168.800 C 247.091 168.800,246.536 168.693,246.133 168.562 C 245.523 168.365,245.501 168.397,246.000 168.756 M37.497 169.272 C 37.770 169.603,37.875 169.992,37.730 170.137 C 37.585 170.282,37.690 170.400,37.963 170.400 C 38.645 170.400,38.341 169.113,37.600 168.868 C 37.109 168.706,37.090 168.779,37.497 169.272 M234.006 169.265 C 234.002 169.731,233.708 169.898,233.021 169.822 C 232.449 169.759,231.948 169.959,231.816 170.302 C 231.651 170.733,231.778 170.815,232.295 170.610 C 232.683 170.457,233.339 170.262,233.754 170.178 C 234.759 169.974,234.820 169.878,234.384 169.188 C 234.068 168.688,234.011 168.700,234.006 169.265 M242.900 169.065 C 241.976 169.438,242.390 169.800,243.754 169.812 C 244.692 169.820,245.047 169.666,244.911 169.312 C 244.713 168.798,243.831 168.689,242.900 169.065 M251.340 169.355 C 250.972 169.775,251.133 169.881,252.140 169.882 C 252.833 169.882,253.083 169.806,252.695 169.711 C 252.307 169.617,252.093 169.373,252.219 169.170 C 252.565 168.609,251.864 168.757,251.340 169.355 M254.267 169.467 C 253.480 170.254,254.158 170.659,256.300 170.682 C 258.175 170.701,258.385 170.644,257.434 170.370 C 256.793 170.185,256.073 170.151,255.834 170.294 C 255.595 170.437,255.647 170.249,255.949 169.877 C 256.515 169.179,254.939 168.795,254.267 169.467 M230.000 170.200 L 229.000 170.772 230.033 170.786 C 230.691 170.795,231.067 170.582,231.067 170.200 C 231.067 169.870,231.052 169.606,231.033 169.614 C 231.015 169.622,230.550 169.886,230.000 170.200 M225.450 170.319 C 225.056 170.956,225.850 171.561,226.928 171.446 C 228.347 171.295,229.095 170.599,228.206 170.258 C 227.777 170.093,227.655 170.166,227.845 170.473 C 228.036 170.782,227.910 170.851,227.466 170.681 C 227.100 170.540,226.800 170.614,226.800 170.846 C 226.800 171.077,226.575 171.184,226.300 171.083 C 226.025 170.983,225.845 170.697,225.900 170.450 C 226.015 169.931,225.740 169.850,225.450 170.319 M274.113 171.537 C 274.217 172.407,274.085 172.946,273.736 173.080 C 272.875 173.410,273.038 176.000,273.920 176.000 C 274.316 176.000,274.811 176.165,275.020 176.367 C 275.229 176.568,275.760 176.793,276.200 176.867 C 276.640 176.940,277.291 177.315,277.647 177.700 C 278.003 178.085,278.759 178.439,279.328 178.486 C 279.897 178.533,280.282 178.652,280.184 178.750 C 279.987 178.946,281.627 180.192,282.087 180.197 C 282.245 180.199,282.742 180.515,283.192 180.900 C 283.641 181.285,284.159 181.600,284.343 181.600 C 284.526 181.600,285.002 181.960,285.400 182.400 C 285.798 182.840,286.552 183.200,287.076 183.200 L 288.028 183.200 287.844 177.900 C 287.573 170.113,288.220 170.800,281.153 170.800 C 276.814 170.800,275.200 170.929,275.200 171.276 C 275.200 171.539,274.920 171.404,274.577 170.976 C 273.986 170.240,273.962 170.269,274.113 171.537 M50.487 172.007 C 50.467 172.742,50.655 173.200,50.978 173.200 C 51.266 173.200,51.771 173.605,52.100 174.100 L 52.698 175.000 133.849 175.108 C 194.531 175.188,215.220 175.099,215.873 174.754 C 216.354 174.501,217.074 174.265,217.473 174.230 C 218.713 174.122,222.800 172.671,222.800 172.340 C 222.800 172.167,223.070 172.129,223.400 172.255 C 223.786 172.404,224.000 172.247,224.000 171.816 C 224.000 171.328,223.783 171.215,223.200 171.400 C 222.738 171.547,222.400 171.472,222.400 171.223 C 222.400 170.917,197.554 170.796,136.461 170.804 L 50.521 170.814 50.487 172.007 M234.584 181.225 C 234.457 181.431,233.453 181.600,232.353 181.600 C 231.121 181.600,230.448 181.754,230.600 182.000 C 230.751 182.245,230.130 182.400,229.000 182.400 C 227.984 182.400,227.236 182.535,227.337 182.700 C 227.439 182.865,226.955 183.040,226.261 183.089 C 225.567 183.138,224.640 183.339,224.200 183.536 C 221.863 184.579,220.046 185.272,219.207 185.439 C 218.881 185.503,218.551 185.746,218.474 185.978 C 218.397 186.210,217.988 186.400,217.567 186.400 C 217.145 186.400,216.800 186.580,216.800 186.800 C 216.800 187.020,216.365 187.200,215.833 187.200 C 215.302 187.200,214.804 187.388,214.727 187.618 C 214.651 187.848,214.194 188.065,213.711 188.102 C 213.229 188.138,212.914 188.247,213.011 188.344 C 213.108 188.442,212.786 188.732,212.294 188.990 C 210.245 190.063,209.371 190.641,208.704 191.361 C 208.317 191.780,208.000 191.998,208.000 191.845 C 208.000 191.693,207.775 191.758,207.500 191.990 C 206.261 193.035,203.200 195.219,203.200 195.058 C 203.200 194.960,201.347 196.707,199.082 198.940 C 196.817 201.173,195.028 203.135,195.106 203.300 C 195.184 203.465,195.069 203.600,194.851 203.600 C 194.632 203.600,194.354 203.915,194.231 204.300 C 194.109 204.685,193.602 205.450,193.104 206.000 C 192.607 206.550,191.945 207.495,191.632 208.100 C 191.320 208.705,190.915 209.200,190.732 209.200 C 190.550 209.200,190.400 209.560,190.400 210.000 C 190.400 210.440,190.240 210.800,190.044 210.800 C 189.848 210.800,189.304 211.565,188.835 212.500 C 188.365 213.435,187.639 214.740,187.220 215.400 C 186.801 216.060,186.445 216.915,186.429 217.300 C 186.413 217.685,186.220 218.000,186.000 218.000 C 185.780 218.000,185.600 218.349,185.600 218.776 C 185.600 219.203,185.420 219.664,185.200 219.800 C 184.980 219.936,184.800 220.457,184.800 220.957 C 184.800 221.457,184.673 221.993,184.518 222.148 C 184.363 222.303,184.171 222.915,184.092 223.508 C 184.013 224.100,183.768 224.696,183.549 224.832 C 183.329 224.967,183.134 225.646,183.114 226.339 C 183.094 227.033,182.946 227.600,182.785 227.600 C 182.106 227.600,181.367 233.809,181.999 234.199 C 182.316 234.395,182.245 234.708,181.762 235.243 C 181.382 235.662,181.055 236.499,181.035 237.103 L 181.000 238.200 187.195 238.070 C 190.786 237.994,193.495 237.769,193.640 237.535 C 193.777 237.313,194.004 237.147,194.145 237.166 C 194.805 237.254,194.867 237.163,194.472 236.687 C 194.202 236.361,194.182 235.958,194.417 235.587 C 194.621 235.264,194.793 235.180,194.800 235.400 C 194.807 235.620,194.977 235.540,195.177 235.223 C 195.427 234.829,195.330 234.470,194.871 234.090 C 194.247 233.573,194.249 233.550,194.900 233.755 C 195.459 233.931,195.600 233.736,195.600 232.787 C 195.600 232.134,195.770 231.600,195.977 231.600 C 196.184 231.600,196.289 231.262,196.209 230.849 C 196.130 230.435,196.320 229.605,196.632 229.003 C 196.945 228.401,197.200 227.559,197.200 227.131 C 197.200 226.703,197.380 226.464,197.600 226.600 C 197.820 226.736,198.000 226.485,198.000 226.042 C 198.000 225.232,198.778 223.171,199.224 222.800 C 199.356 222.690,199.887 221.655,200.403 220.500 C 200.920 219.345,201.491 218.400,201.671 218.400 C 201.852 218.400,202.000 218.130,202.000 217.800 C 202.000 217.470,202.180 217.200,202.400 217.200 C 202.620 217.200,202.800 216.930,202.800 216.600 C 202.800 216.270,202.935 216.000,203.100 215.999 C 203.265 215.999,203.939 215.144,204.598 214.099 C 205.810 212.179,210.939 206.872,213.006 205.400 C 213.624 204.960,214.746 204.112,215.500 203.516 C 216.254 202.920,217.214 202.322,217.635 202.189 C 218.056 202.055,218.400 201.778,218.400 201.573 C 218.400 201.368,218.670 201.200,219.000 201.200 C 219.330 201.200,219.600 201.020,219.600 200.800 C 219.600 200.580,219.960 200.400,220.400 200.400 C 220.840 200.400,221.200 200.220,221.200 200.000 C 221.200 199.780,221.560 199.600,222.000 199.600 C 222.440 199.600,222.800 199.420,222.800 199.200 C 222.800 198.980,223.072 198.800,223.405 198.800 C 223.738 198.800,224.323 198.641,224.705 198.447 C 225.087 198.252,225.850 197.915,226.400 197.696 C 226.950 197.478,227.903 197.097,228.519 196.850 C 229.134 196.602,230.079 196.400,230.619 196.400 C 231.158 196.400,231.600 196.220,231.600 196.000 C 231.600 195.780,232.309 195.600,233.176 195.600 C 234.043 195.600,234.864 195.420,235.000 195.200 C 235.136 194.979,236.930 194.800,239.000 194.800 C 241.070 194.800,242.864 194.621,243.000 194.400 C 243.136 194.180,243.687 194.000,244.224 194.000 C 244.761 194.000,245.200 194.180,245.200 194.400 C 245.200 194.637,246.659 194.800,248.776 194.800 C 250.743 194.800,252.464 194.980,252.600 195.200 C 252.736 195.420,253.557 195.600,254.424 195.600 C 255.291 195.600,256.000 195.780,256.000 196.000 C 256.000 196.220,256.363 196.400,256.806 196.400 C 257.933 196.400,260.800 197.331,260.800 197.697 C 260.800 197.864,261.135 198.000,261.544 198.000 C 262.346 198.000,267.313 200.405,267.533 200.900 C 267.607 201.065,268.012 201.200,268.433 201.200 C 268.855 201.200,269.200 201.358,269.200 201.551 C 269.200 201.745,269.740 202.127,270.400 202.400 C 271.060 202.673,271.601 203.010,271.603 203.149 C 271.604 203.287,272.279 203.850,273.103 204.400 C 275.081 205.721,279.128 209.200,278.687 209.200 C 278.606 209.200,279.589 210.298,280.870 211.641 C 282.152 212.983,283.200 214.294,283.200 214.553 C 283.200 214.811,283.560 215.283,284.000 215.600 C 284.440 215.917,284.800 216.373,284.800 216.613 C 284.800 216.853,285.115 217.398,285.500 217.825 C 285.885 218.252,286.574 219.321,287.030 220.200 C 287.487 221.080,288.072 222.205,288.330 222.700 C 289.432 224.810,289.600 225.220,289.600 225.795 C 289.600 226.128,289.780 226.400,290.000 226.400 C 290.220 226.400,290.400 226.850,290.400 227.400 C 290.400 227.950,290.580 228.400,290.800 228.400 C 291.020 228.400,291.179 228.535,291.153 228.700 C 291.008 229.613,291.247 230.818,291.536 230.640 C 291.720 230.526,291.903 231.280,291.942 232.316 C 291.981 233.352,292.190 234.260,292.406 234.333 C 292.623 234.407,292.800 235.307,292.799 236.333 L 292.798 238.200 299.162 238.000 C 302.662 237.890,305.454 237.915,305.367 238.055 C 305.280 238.195,305.554 238.399,305.976 238.510 C 306.544 238.658,306.729 238.514,306.687 237.955 C 306.655 237.540,306.409 237.200,306.138 237.200 C 305.868 237.200,305.517 236.989,305.358 236.732 C 305.167 236.423,305.282 236.346,305.695 236.504 C 306.633 236.864,306.746 236.529,306.308 234.680 C 306.089 233.756,305.878 232.458,305.838 231.796 C 305.799 231.134,305.612 230.344,305.424 230.039 C 305.236 229.734,305.096 228.974,305.114 228.349 C 305.132 227.725,304.978 227.110,304.773 226.983 C 304.568 226.857,304.400 226.311,304.400 225.771 C 304.400 225.231,304.241 224.477,304.047 224.095 C 303.578 223.173,303.095 222.028,301.557 218.200 C 300.851 216.440,299.941 214.522,299.536 213.938 C 299.131 213.354,298.800 212.724,298.800 212.538 C 298.799 212.352,298.353 211.682,297.808 211.048 C 297.263 210.414,296.914 209.739,297.032 209.548 C 297.150 209.357,297.095 209.200,296.910 209.200 C 296.724 209.200,296.274 208.705,295.909 208.100 C 295.544 207.495,294.785 206.513,294.223 205.917 C 293.660 205.322,293.200 204.656,293.200 204.436 C 293.200 204.217,291.492 202.274,289.404 200.119 C 287.317 197.964,285.607 196.065,285.604 195.900 C 285.602 195.735,285.361 195.600,285.070 195.600 C 284.778 195.600,284.117 195.150,283.600 194.600 C 283.083 194.050,282.501 193.600,282.307 193.600 C 281.904 193.600,278.670 191.157,278.467 190.700 C 278.393 190.535,277.988 190.400,277.567 190.400 C 277.145 190.400,276.800 190.242,276.800 190.049 C 276.800 189.855,276.260 189.473,275.600 189.200 C 274.940 188.927,274.400 188.545,274.400 188.351 C 274.400 188.158,274.040 188.000,273.600 188.000 C 273.160 188.000,272.799 187.865,272.797 187.700 C 272.793 187.341,270.856 186.400,270.120 186.400 C 269.834 186.400,269.600 186.220,269.600 186.000 C 269.600 185.780,269.150 185.600,268.600 185.600 C 268.050 185.600,267.600 185.420,267.600 185.200 C 267.600 184.980,267.150 184.800,266.600 184.800 C 266.050 184.800,265.600 184.609,265.600 184.376 C 265.600 184.143,265.452 184.044,265.271 184.156 C 265.091 184.268,264.416 184.085,263.771 183.750 C 263.127 183.415,262.105 183.213,261.500 183.301 C 260.772 183.407,260.400 183.282,260.400 182.931 C 260.400 182.591,259.897 182.400,259.000 182.400 C 258.230 182.400,257.600 182.252,257.600 182.071 C 257.600 181.891,256.659 181.700,255.509 181.648 C 254.359 181.595,253.319 181.393,253.199 181.199 C 252.904 180.720,234.881 180.746,234.584 181.225 M53.000 187.682 C 52.560 187.933,51.615 188.773,50.900 189.548 L 49.600 190.956 49.670 216.578 C 49.708 230.670,49.810 241.390,49.895 240.400 C 49.981 239.410,50.180 238.468,50.338 238.307 C 50.496 238.146,61.262 238.002,74.263 237.988 C 97.925 237.961,101.690 237.745,98.699 236.585 C 97.888 236.271,95.882 236.684,96.145 237.112 C 96.242 237.270,95.805 237.437,95.174 237.483 C 94.543 237.528,93.922 237.397,93.794 237.191 C 93.657 236.969,93.235 237.017,92.757 237.308 C 92.081 237.721,91.864 237.682,91.411 237.071 C 90.887 236.366,90.864 236.366,90.681 237.071 C 90.502 237.765,90.491 237.764,90.446 237.057 C 90.414 236.543,90.200 236.391,89.749 236.564 C 89.391 236.701,88.851 236.609,88.549 236.358 C 87.863 235.788,87.821 236.459,88.500 237.144 C 88.901 237.548,88.861 237.595,88.300 237.381 C 87.915 237.234,87.600 236.844,87.600 236.514 C 87.600 236.136,87.370 236.003,86.979 236.153 C 86.602 236.297,86.461 236.225,86.619 235.969 C 86.908 235.502,85.588 234.360,85.104 234.659 C 84.937 234.763,84.800 234.657,84.800 234.424 C 84.800 234.191,84.612 234.000,84.383 234.000 C 84.154 234.000,83.580 233.640,83.108 233.200 C 82.636 232.760,82.025 232.400,81.752 232.400 C 81.478 232.400,81.140 232.040,81.000 231.600 C 80.860 231.160,80.578 230.800,80.373 230.800 C 80.168 230.800,80.000 230.530,80.000 230.200 C 80.000 229.870,79.858 229.600,79.685 229.600 C 79.219 229.600,76.800 225.474,76.800 224.681 C 76.800 224.306,76.620 224.000,76.400 224.000 C 76.180 224.000,76.000 223.226,76.000 222.280 C 76.000 221.334,75.777 220.337,75.503 220.063 C 75.186 219.746,75.150 219.464,75.403 219.283 C 75.622 219.128,75.862 217.830,75.937 216.400 C 76.012 214.970,76.237 213.740,76.437 213.667 C 76.637 213.593,76.800 213.199,76.800 212.790 C 76.800 212.382,76.980 211.936,77.200 211.800 C 77.420 211.664,77.600 211.195,77.600 210.758 C 77.600 210.321,78.005 209.544,78.500 209.032 C 79.947 207.535,80.800 206.418,80.800 206.022 C 80.800 205.820,81.160 205.540,81.600 205.400 C 82.040 205.260,82.400 204.978,82.400 204.773 C 82.400 204.568,82.636 204.400,82.925 204.400 C 83.213 204.400,83.836 204.040,84.308 203.600 C 84.780 203.160,85.357 202.800,85.589 202.800 C 85.821 202.800,86.323 202.641,86.705 202.447 C 89.166 201.195,94.143 200.269,95.274 200.852 C 95.644 201.044,96.679 201.200,97.574 201.200 C 98.468 201.200,99.200 201.380,99.200 201.600 C 99.200 201.820,99.549 202.000,99.976 202.000 C 100.403 202.000,100.864 202.180,101.000 202.400 C 101.136 202.620,101.597 202.800,102.024 202.800 C 102.451 202.800,102.800 202.941,102.800 203.114 C 102.800 203.286,103.318 203.733,103.951 204.107 C 105.377 204.950,107.600 207.000,107.600 207.472 C 107.600 207.665,107.960 208.083,108.400 208.400 C 108.840 208.717,109.200 209.205,109.200 209.484 C 109.200 209.763,109.471 210.308,109.803 210.695 C 110.135 211.083,110.375 211.490,110.336 211.600 C 110.297 211.710,110.455 212.160,110.687 212.600 C 110.919 213.040,111.235 214.657,111.389 216.194 C 111.543 217.731,111.754 219.126,111.858 219.294 C 111.962 219.462,111.887 219.600,111.692 219.600 C 111.496 219.600,111.358 220.455,111.385 221.500 C 111.411 222.545,111.301 223.586,111.140 223.812 C 110.979 224.039,110.755 224.733,110.643 225.354 C 110.437 226.488,109.509 228.143,108.523 229.132 C 108.231 229.425,108.113 229.875,108.260 230.132 C 108.408 230.390,108.384 230.470,108.208 230.310 C 107.884 230.017,105.618 232.310,105.606 232.943 C 105.603 233.131,105.335 233.184,105.011 233.059 C 104.686 232.935,104.281 233.051,104.110 233.317 C 103.669 234.000,101.409 235.907,101.759 235.300 C 101.918 235.025,101.844 234.800,101.595 234.800 C 101.346 234.800,101.196 235.205,101.261 235.700 C 101.326 236.195,101.203 236.605,100.989 236.612 C 100.775 236.618,100.645 236.429,100.699 236.192 C 100.754 235.954,100.349 235.760,99.799 235.760 C 98.764 235.760,98.490 236.161,99.219 236.612 C 99.506 236.789,99.491 237.050,99.170 237.436 C 98.768 237.921,103.628 238.000,133.775 238.000 C 155.240 238.000,168.758 237.856,168.618 237.629 C 168.492 237.425,168.728 237.150,169.144 237.018 C 169.953 236.761,170.248 234.784,169.450 234.966 C 169.203 235.023,169.147 234.990,169.326 234.892 C 170.024 234.515,170.706 231.903,171.465 226.700 C 171.586 225.875,171.820 225.200,171.987 225.200 C 172.154 225.200,172.284 224.795,172.276 224.300 C 172.267 223.805,172.454 222.950,172.691 222.400 C 172.927 221.850,173.401 220.500,173.743 219.400 C 174.658 216.460,175.415 214.452,175.726 214.141 C 175.877 213.990,176.000 213.537,176.000 213.133 C 176.000 212.730,176.180 212.400,176.400 212.400 C 176.620 212.400,176.800 212.113,176.800 211.762 C 176.800 211.411,177.132 210.646,177.537 210.062 C 177.943 209.478,178.527 208.415,178.835 207.700 C 179.143 206.985,179.531 206.400,179.698 206.400 C 179.864 206.400,180.000 206.130,180.000 205.800 C 180.000 205.470,180.180 205.200,180.400 205.200 C 180.620 205.200,180.800 205.004,180.800 204.765 C 180.800 204.386,183.023 200.944,183.619 200.400 C 183.740 200.290,184.270 199.582,184.798 198.828 C 185.740 197.480,187.302 195.646,189.118 193.756 C 189.623 193.230,189.950 192.800,189.844 192.800 C 189.738 192.800,190.135 192.299,190.726 191.688 C 191.316 191.076,191.848 190.599,191.907 190.628 C 192.255 190.800,194.807 187.934,194.602 187.603 C 194.226 186.996,54.064 187.073,53.000 187.682 M236.333 206.394 C 236.260 206.610,235.344 206.819,234.298 206.859 C 233.252 206.898,232.494 207.028,232.614 207.147 C 232.733 207.266,231.879 207.689,230.715 208.087 C 229.552 208.484,228.285 208.919,227.900 209.052 C 227.515 209.184,227.200 209.414,227.200 209.562 C 227.200 209.709,226.824 209.858,226.364 209.893 C 225.903 209.927,225.138 210.210,224.664 210.522 C 224.189 210.833,223.665 211.113,223.500 211.144 C 223.197 211.201,222.562 211.709,220.627 213.445 C 220.042 213.970,219.432 214.400,219.271 214.400 C 219.110 214.400,218.686 214.715,218.329 215.100 C 217.972 215.485,216.780 216.655,215.680 217.700 C 214.580 218.745,213.780 219.600,213.902 219.600 C 214.024 219.600,213.798 219.960,213.400 220.400 C 213.002 220.840,212.820 221.200,212.996 221.200 C 213.173 221.200,212.886 221.617,212.358 222.127 C 211.184 223.264,210.000 225.409,210.000 226.399 C 210.000 226.803,209.812 227.196,209.582 227.273 C 209.352 227.349,209.134 227.814,209.097 228.306 C 209.060 228.798,208.888 229.200,208.715 229.200 C 208.542 229.200,208.400 229.560,208.400 230.000 C 208.400 230.440,208.220 230.800,208.000 230.800 C 207.780 230.800,207.600 231.250,207.600 231.800 C 207.600 232.350,207.449 232.800,207.265 232.800 C 207.080 232.800,206.905 233.475,206.876 234.300 C 206.837 235.393,206.926 235.637,207.205 235.200 C 207.438 234.834,207.590 234.787,207.594 235.080 C 207.597 235.344,207.289 235.734,206.910 235.947 C 206.449 236.205,206.204 236.870,206.173 237.951 C 206.147 238.841,206.270 239.480,206.446 239.372 C 206.621 239.263,206.666 238.916,206.544 238.599 C 206.354 238.102,211.303 238.022,243.199 238.006 C 278.098 237.989,284.049 237.816,281.299 236.900 C 281.015 236.805,280.800 236.067,280.800 235.190 C 280.800 234.342,280.620 233.536,280.400 233.400 C 280.180 233.264,280.000 232.523,280.000 231.753 C 280.000 230.921,279.838 230.453,279.600 230.600 C 279.380 230.736,279.200 230.474,279.200 230.018 C 279.200 229.281,278.546 227.746,278.000 227.200 C 277.579 226.779,276.800 225.190,276.800 224.752 C 276.800 224.500,276.412 223.958,275.939 223.547 C 275.360 223.045,275.262 222.798,275.639 222.794 C 275.992 222.790,276.045 222.679,275.781 222.494 C 275.550 222.332,274.922 221.570,274.385 220.800 C 273.152 219.033,268.659 214.402,268.168 214.393 C 267.966 214.390,267.099 213.675,266.242 212.806 C 265.385 211.936,264.542 211.312,264.370 211.419 C 264.197 211.526,263.945 211.435,263.811 211.218 C 263.514 210.738,260.114 209.200,259.349 209.200 C 259.047 209.200,258.800 209.053,258.800 208.872 C 258.800 208.692,257.889 208.296,256.775 207.993 C 255.661 207.690,254.660 207.297,254.551 207.121 C 254.442 206.944,253.643 206.800,252.776 206.800 C 251.909 206.800,251.200 206.620,251.200 206.400 C 251.200 205.862,236.516 205.856,236.333 206.394 M89.015 213.764 L 87.200 215.579 87.200 218.719 C 87.200 221.192,87.349 222.001,87.900 222.521 C 90.807 225.265,90.483 225.127,93.962 225.105 C 96.678 225.088,97.324 224.958,97.754 224.345 C 98.039 223.938,98.391 223.724,98.536 223.869 C 98.681 224.014,98.800 223.833,98.800 223.467 C 98.800 223.100,98.951 222.800,99.136 222.800 C 99.320 222.800,99.680 222.342,99.936 221.781 C 100.505 220.531,100.557 215.600,100.000 215.600 C 99.780 215.600,99.600 215.414,99.600 215.187 C 99.600 213.594,96.940 212.127,93.892 212.038 L 90.830 211.949 89.015 213.764 M162.000 218.800 L 162.000 224.800 156.200 224.800 L 150.400 224.800 150.400 218.800 L 150.400 212.800 156.200 212.800 L 162.000 212.800 162.000 218.800 M180.988 234.420 C 180.607 235.035,181.128 235.432,181.642 234.918 C 181.929 234.631,181.936 234.407,181.662 234.239 C 181.439 234.100,181.135 234.182,180.988 234.420 M193.772 239.105 C 193.834 239.686,194.091 240.230,194.343 240.314 C 195.017 240.539,194.906 238.526,194.230 238.267 C 193.810 238.106,193.689 238.328,193.772 239.105 M280.767 238.433 C 280.536 239.589,280.620 240.399,280.986 240.539 C 281.485 240.731,281.582 239.048,281.100 238.567 C 280.935 238.402,280.785 238.342,280.767 238.433 M305.473 239.445 C 305.590 239.750,305.936 240.000,306.243 240.000 C 307.074 240.000,306.916 239.324,306.030 239.092 C 305.490 238.951,305.323 239.056,305.473 239.445 M168.400 239.866 C 168.400 240.501,169.534 241.150,169.733 240.629 C 169.857 240.308,169.624 239.995,169.172 239.877 C 168.748 239.766,168.400 239.761,168.400 239.866 M168.893 242.800 C 168.893 243.570,168.975 243.885,169.076 243.500 C 169.176 243.115,169.176 242.485,169.076 242.100 C 168.975 241.715,168.893 242.030,168.893 242.800 M292.800 242.376 C 292.800 242.829,292.980 243.200,293.200 243.200 C 293.420 243.200,293.600 242.941,293.600 242.624 C 293.600 242.307,293.420 241.936,293.200 241.800 C 292.980 241.664,292.800 241.923,292.800 242.376 M194.110 243.200 C 194.077 243.640,194.219 244.000,194.425 244.000 C 194.631 244.000,194.800 243.640,194.800 243.200 C 194.800 242.760,194.658 242.400,194.485 242.400 C 194.312 242.400,194.143 242.760,194.110 243.200 M292.806 245.300 C 292.811 246.028,292.886 246.085,293.200 245.600 C 293.701 244.824,293.701 244.400,293.200 244.400 C 292.980 244.400,292.803 244.805,292.806 245.300 " stroke="none" fill="#971bb2" fill-rule="evenodd"></path></g></svg>