<svg id="svg" version="1.1" xmlns="http://www.w3.org/2000/svg" xmlns:xlink="http://www.w3.org/1999/xlink" width="400" height="400.49937578027465" viewBox="0, 0, 400,400.49937578027465"><g id="svgg"><path id="path0" d="M197.276 24.441 C 145.389 29.058,102.332 70.279,94.956 122.400 C 92.668 138.566,95.051 163.497,100.016 175.345 C 100.213 175.815,101.026 177.910,101.823 180.000 C 103.490 184.374,107.772 193.221,109.769 196.418 C 110.519 197.618,111.632 199.410,112.242 200.400 C 117.332 208.664,129.152 221.784,136.858 227.726 C 138.990 229.370,143.139 232.364,145.200 233.747 C 146.410 234.558,147.715 235.437,148.099 235.699 C 148.520 235.986,148.708 236.459,148.572 236.888 C 148.448 237.279,148.538 237.600,148.773 237.600 C 149.008 237.600,149.200 237.319,149.200 236.976 C 149.200 236.633,149.380 236.464,149.600 236.600 C 149.820 236.736,150.000 237.197,150.000 237.624 C 150.000 238.051,150.180 238.400,150.400 238.400 C 150.620 238.400,150.800 238.108,150.800 237.751 C 150.800 237.211,150.904 237.188,151.419 237.616 C 151.759 237.898,151.894 238.235,151.719 238.365 C 151.131 238.798,151.144 239.707,151.735 239.480 C 152.418 239.218,153.205 239.922,153.188 240.780 C 153.178 241.286,153.100 241.269,152.763 240.692 C 152.197 239.719,151.553 240.217,151.958 241.314 C 152.419 242.563,152.089 243.200,150.979 243.200 C 150.298 243.200,150.091 243.371,150.254 243.797 C 150.387 244.144,150.201 244.502,149.808 244.652 C 149.271 244.858,149.242 244.980,149.666 245.250 C 149.999 245.461,149.448 245.592,148.200 245.600 C 146.024 245.613,144.940 246.056,145.372 246.755 C 145.529 247.009,145.379 247.200,145.024 247.200 C 144.681 247.200,144.400 247.470,144.400 247.800 C 144.400 248.362,143.896 248.590,143.026 248.423 C 142.238 248.271,140.778 248.841,141.007 249.212 C 141.139 249.425,140.961 249.600,140.611 249.600 C 140.261 249.600,139.878 249.851,139.761 250.159 C 139.643 250.466,138.703 250.849,137.673 251.011 C 136.643 251.173,136.026 251.387,136.302 251.487 C 137.019 251.746,136.499 252.400,135.576 252.400 C 134.609 252.400,134.552 253.083,135.500 253.317 C 135.893 253.414,135.814 253.452,135.320 253.404 C 134.815 253.355,134.093 253.719,133.623 254.259 C 133.055 254.913,132.377 255.200,131.403 255.200 C 130.243 255.200,130.000 255.346,130.000 256.043 C 130.000 256.743,129.830 256.844,129.000 256.636 C 128.105 256.411,128.000 256.507,128.000 257.546 C 128.000 258.813,127.371 259.146,124.800 259.241 C 124.030 259.269,123.717 259.376,124.105 259.477 C 125.000 259.710,124.605 260.400,123.576 260.400 C 123.149 260.400,122.800 260.537,122.800 260.704 C 122.800 261.761,120.666 263.201,119.084 263.212 C 117.746 263.222,117.544 263.308,118.100 263.632 C 119.161 264.250,118.959 264.927,117.800 264.636 C 116.594 264.333,114.718 264.744,115.026 265.243 C 115.148 265.439,114.937 265.600,114.557 265.600 C 114.177 265.600,113.978 265.711,114.114 265.848 C 114.418 266.151,113.421 267.200,112.829 267.200 C 112.593 267.200,112.445 267.425,112.500 267.700 C 112.564 268.019,111.948 268.272,110.800 268.400 C 109.810 268.510,109.061 268.764,109.136 268.964 C 109.211 269.164,108.986 269.488,108.636 269.684 C 108.286 269.880,108.000 270.301,108.000 270.620 C 108.000 270.979,107.601 271.200,106.951 271.200 C 106.092 271.200,105.987 271.302,106.372 271.766 C 106.749 272.220,106.668 272.388,105.968 272.610 C 105.284 272.827,105.214 272.964,105.647 273.238 C 106.065 273.502,106.074 273.589,105.687 273.594 C 105.406 273.597,105.081 273.356,104.967 273.058 C 104.710 272.387,102.398 272.413,101.677 273.095 C 101.257 273.492,101.415 273.551,102.477 273.396 L 103.800 273.203 102.465 273.622 C 101.552 273.908,101.200 274.224,101.353 274.620 C 101.484 274.964,101.336 275.200,100.987 275.200 C 100.664 275.200,100.400 275.470,100.400 275.800 C 100.400 276.431,100.074 276.528,98.338 276.416 C 97.547 276.365,97.098 276.649,96.578 277.530 C 95.999 278.510,95.532 278.759,93.856 278.981 C 92.446 279.168,92.006 279.357,92.405 279.603 C 93.257 280.129,91.902 280.560,90.364 280.253 C 89.251 280.030,89.205 280.062,89.798 280.656 C 90.651 281.508,89.551 282.623,87.473 283.013 C 86.506 283.194,86.122 283.452,86.264 283.823 C 86.395 284.165,86.089 284.463,85.436 284.627 C 84.866 284.770,84.400 285.013,84.400 285.168 C 84.400 286.037,82.640 287.203,81.284 287.232 C 80.468 287.249,80.026 287.354,80.302 287.466 C 81.011 287.751,80.507 288.400,79.576 288.400 C 79.149 288.400,78.800 288.537,78.800 288.704 C 78.800 289.680,76.671 291.200,75.304 291.200 C 74.165 291.200,73.947 291.307,74.320 291.680 C 75.139 292.499,74.856 292.759,73.400 292.523 C 72.554 292.385,72.000 292.459,72.000 292.710 C 72.000 292.984,71.661 292.967,71.003 292.662 C 69.868 292.136,69.728 291.679,70.600 291.345 C 70.930 291.218,71.200 290.864,71.200 290.557 C 71.200 290.251,71.399 290.000,71.643 290.000 C 71.886 290.000,71.982 290.270,71.855 290.600 C 71.715 290.965,71.855 291.200,72.213 291.200 C 72.536 291.200,72.800 290.840,72.800 290.400 C 72.800 289.752,72.533 289.600,71.400 289.600 C 70.422 289.600,70.000 289.419,70.000 289.000 C 70.000 288.670,69.823 288.400,69.607 288.400 C 68.908 288.400,69.068 360.932,69.773 363.605 C 72.284 373.128,83.270 380.255,92.000 378.023 C 95.598 377.103,101.710 375.483,109.400 373.408 C 114.020 372.162,119.060 370.813,120.600 370.410 C 122.140 370.007,127.180 368.648,131.800 367.391 C 136.420 366.133,141.100 364.874,142.200 364.592 C 143.300 364.309,146.630 363.409,149.600 362.590 C 152.570 361.772,156.260 360.779,157.800 360.384 C 159.340 359.989,164.380 358.644,169.000 357.395 C 173.620 356.146,178.660 354.799,180.200 354.402 C 181.740 354.005,185.070 353.108,187.600 352.408 C 190.130 351.709,193.460 350.810,195.000 350.409 C 196.540 350.009,201.490 348.689,206.000 347.475 C 214.342 345.229,216.581 344.625,225.800 342.129 C 228.660 341.355,231.900 340.489,233.000 340.204 C 234.100 339.920,238.780 338.663,243.400 337.411 C 248.020 336.158,253.420 334.713,255.400 334.199 C 257.380 333.685,261.070 332.687,263.600 331.982 C 266.130 331.277,269.460 330.382,271.000 329.995 C 272.540 329.607,277.580 328.259,282.200 326.999 C 286.820 325.740,292.433 324.235,294.674 323.655 L 298.748 322.600 297.098 320.800 C 294.478 317.944,286.342 309.205,279.600 302.005 C 276.190 298.364,271.150 292.967,268.400 290.013 C 262.655 283.842,258.854 279.783,253.777 274.400 C 250.771 271.214,241.531 261.296,232.947 252.043 L 230.894 249.830 226.483 250.533 C 206.213 253.765,185.474 251.520,166.400 244.028 C 158.175 240.797,151.015 236.836,141.061 230.009 C 135.458 226.166,122.000 213.208,122.000 211.656 C 122.000 211.405,121.839 211.200,121.643 211.200 C 121.255 211.200,120.680 209.987,120.943 209.724 C 121.032 209.635,121.420 209.877,121.805 210.262 C 122.472 210.929,122.492 210.921,122.227 210.085 C 122.010 209.401,122.157 209.111,122.890 208.777 C 123.409 208.541,124.005 207.955,124.216 207.474 C 124.427 206.993,125.003 206.543,125.496 206.473 C 126.587 206.318,127.628 204.939,127.300 204.085 C 127.124 203.625,127.238 203.529,127.731 203.718 C 128.099 203.859,128.670 203.871,129.000 203.745 C 130.032 203.349,129.657 202.439,128.300 202.048 L 127.000 201.672 128.481 201.636 C 130.646 201.583,132.000 200.852,132.000 199.736 C 132.000 198.937,132.201 198.800,133.367 198.800 C 135.252 198.800,136.000 198.447,136.000 197.557 C 136.000 196.842,136.392 196.630,137.471 196.763 C 137.730 196.795,138.000 196.412,138.071 195.911 C 138.155 195.316,138.518 194.955,139.116 194.870 C 139.769 194.777,140.101 194.395,140.272 193.538 C 140.453 192.636,140.690 192.383,141.225 192.522 C 141.723 192.653,142.008 192.422,142.176 191.754 C 142.317 191.191,142.710 190.800,143.136 190.800 C 143.946 190.800,146.400 188.764,146.400 188.091 C 146.400 187.851,146.760 187.540,147.200 187.400 C 148.567 186.966,148.081 186.402,146.300 186.356 L 144.600 186.312 146.730 185.792 C 148.780 185.292,149.840 184.800,148.867 184.800 C 148.610 184.800,148.400 184.530,148.400 184.200 C 148.400 183.870,148.580 183.600,148.800 183.600 C 149.020 183.600,149.200 183.780,149.200 184.000 C 149.200 184.220,149.380 184.400,149.600 184.400 C 149.820 184.400,150.000 184.130,150.000 183.800 C 150.000 183.356,150.467 183.200,151.800 183.200 C 153.270 183.200,153.600 183.067,153.600 182.476 C 153.600 181.317,154.703 180.077,155.142 180.743 C 155.601 181.438,156.094 180.712,155.759 179.836 C 155.624 179.486,155.714 179.200,155.957 179.200 C 157.440 179.200,156.050 178.391,154.500 178.352 L 152.600 178.304 154.337 177.887 C 155.635 177.576,156.148 177.592,156.368 177.949 C 156.531 178.212,156.965 178.312,157.332 178.171 C 157.699 178.030,158.000 178.099,158.000 178.324 C 158.000 178.549,157.775 178.824,157.500 178.935 C 157.102 179.096,157.102 179.143,157.499 179.168 C 157.773 179.186,158.223 178.658,158.499 177.995 L 159.000 176.790 163.411 181.095 C 167.482 185.068,172.530 189.208,174.700 190.353 C 176.383 191.242,175.608 190.430,173.462 189.057 C 169.719 186.663,163.211 180.705,160.397 177.096 C 159.923 176.489,159.343 176.112,159.106 176.258 C 158.849 176.417,158.793 176.335,158.966 176.055 C 159.129 175.792,158.744 174.930,158.091 174.093 C 148.643 161.985,144.181 141.581,147.574 126.000 C 159.031 73.394,224.443 58.671,257.681 101.216 C 258.276 101.977,258.771 102.407,258.781 102.172 C 258.792 101.937,258.170 101.008,257.400 100.108 C 256.630 99.209,256.000 98.389,256.000 98.287 C 256.000 98.184,255.366 97.408,254.591 96.562 C 253.816 95.716,253.274 94.784,253.386 94.491 C 253.499 94.198,253.413 94.068,253.195 94.203 C 252.978 94.337,252.800 94.251,252.800 94.011 C 252.800 93.771,253.070 93.471,253.400 93.345 C 253.730 93.218,254.000 92.684,254.000 92.157 C 254.000 91.387,254.215 91.194,255.100 91.170 C 256.166 91.140,256.158 91.124,254.823 90.642 C 253.708 90.239,253.582 90.092,254.159 89.871 C 254.551 89.720,255.044 89.703,255.254 89.833 C 255.817 90.182,256.733 89.276,256.616 88.485 C 256.560 88.108,256.592 88.025,256.687 88.300 C 256.955 89.081,257.884 88.887,258.116 88.000 C 258.281 87.370,258.662 87.200,259.913 87.200 C 261.365 87.200,261.521 87.095,261.746 85.972 C 261.947 84.965,262.136 84.789,262.795 84.999 C 263.417 85.196,263.692 85.011,264.008 84.180 C 264.469 82.966,266.629 80.800,267.378 80.800 C 267.780 80.800,268.800 79.223,268.800 78.601 C 268.800 78.512,267.765 78.375,266.500 78.296 C 264.461 78.168,264.556 78.143,267.329 78.076 C 269.494 78.023,270.642 77.815,271.057 77.400 C 271.387 77.070,271.464 76.800,271.229 76.800 C 270.993 76.800,270.800 76.542,270.800 76.227 C 270.800 75.848,271.210 75.665,272.006 75.688 C 274.340 75.754,274.132 74.855,271.704 74.384 L 270.200 74.092 271.820 74.046 C 273.944 73.986,275.508 73.219,275.789 72.100 C 275.968 71.387,276.298 71.200,277.379 71.200 C 278.809 71.200,280.000 70.358,280.000 69.346 C 280.000 68.957,280.313 68.793,280.900 68.875 C 281.576 68.969,281.832 68.776,281.928 68.100 C 281.998 67.605,282.223 67.200,282.428 67.200 C 282.633 67.200,282.800 66.911,282.800 66.557 C 282.800 66.167,283.023 66.000,283.367 66.132 C 283.679 66.252,284.033 66.091,284.154 65.775 C 284.276 65.459,284.644 65.200,284.973 65.200 C 285.303 65.200,285.765 64.840,286.000 64.400 C 286.235 63.960,286.670 63.600,286.965 63.600 C 287.737 63.600,288.691 62.410,287.949 62.373 C 287.647 62.358,287.805 62.151,288.300 61.912 C 289.220 61.468,289.520 60.800,288.800 60.800 C 288.580 60.800,288.400 60.530,288.400 60.200 C 288.400 59.870,288.503 59.600,288.629 59.600 C 289.070 59.600,289.959 60.708,289.714 60.952 C 289.578 61.089,289.666 61.200,289.910 61.200 C 290.153 61.200,290.471 61.008,290.616 60.774 C 291.000 60.153,291.986 61.138,296.447 66.600 C 301.886 73.258,302.289 73.707,300.576 71.200 C 278.926 39.526,237.663 20.848,197.276 24.441 M285.600 62.153 C 285.600 62.493,283.695 62.642,282.973 62.359 C 282.426 62.145,282.697 62.048,283.900 62.028 C 284.835 62.013,285.600 62.069,285.600 62.153 M278.000 70.418 C 278.000 70.683,277.450 70.737,276.500 70.565 C 274.424 70.190,274.368 70.000,276.333 70.000 C 277.250 70.000,278.000 70.188,278.000 70.418 M302.540 74.500 C 302.891 74.995,304.023 76.803,305.057 78.518 C 306.090 80.233,307.120 81.750,307.344 81.889 C 307.778 82.157,306.929 80.678,304.138 76.300 C 303.191 74.815,302.301 73.600,302.159 73.600 C 302.018 73.600,302.189 74.005,302.540 74.500 M309.685 86.585 C 310.608 88.447,311.428 89.905,311.507 89.826 C 311.685 89.649,308.465 83.200,308.198 83.200 C 308.093 83.200,308.761 84.723,309.685 86.585 M260.800 86.252 C 260.800 86.784,260.522 86.859,259.300 86.657 C 258.475 86.520,257.440 86.379,257.000 86.342 C 256.560 86.305,257.100 86.151,258.200 86.000 C 259.300 85.849,260.335 85.697,260.500 85.663 C 260.665 85.628,260.800 85.894,260.800 86.252 M312.428 92.200 C 312.428 92.420,312.686 93.050,313.000 93.600 C 313.314 94.150,313.572 94.420,313.572 94.200 C 313.572 93.980,313.314 93.350,313.000 92.800 C 312.686 92.250,312.428 91.980,312.428 92.200 M314.629 97.600 C 314.776 98.150,315.064 98.870,315.267 99.200 C 315.525 99.617,315.557 99.495,315.371 98.800 C 315.224 98.250,314.936 97.530,314.733 97.200 C 314.475 96.783,314.443 96.905,314.629 97.600 M260.549 105.543 C 261.541 107.161,262.482 108.601,262.641 108.743 C 263.243 109.278,260.252 104.163,259.516 103.400 C 259.092 102.960,259.557 103.924,260.549 105.543 M318.254 109.000 C 318.674 110.903,319.248 112.046,318.956 110.400 C 318.820 109.630,318.546 108.730,318.349 108.400 C 318.114 108.008,318.081 108.216,318.254 109.000 M263.218 110.300 C 263.243 110.717,265.160 114.262,265.182 113.933 C 265.212 113.489,263.644 110.000,263.414 110.000 C 263.296 110.000,263.208 110.135,263.218 110.300 M265.230 114.700 C 265.246 114.865,265.606 115.720,266.029 116.600 C 266.750 118.100,266.706 117.303,265.956 115.300 C 265.637 114.446,265.166 114.057,265.230 114.700 M320.487 119.200 C 320.483 119.750,320.624 120.650,320.800 121.200 C 321.231 122.544,321.231 121.092,320.800 119.400 C 320.526 118.322,320.494 118.302,320.487 119.200 M267.332 120.600 C 267.460 121.040,267.775 122.262,268.033 123.315 C 268.291 124.369,268.580 125.153,268.675 125.058 C 268.896 124.837,267.746 120.408,267.378 120.061 C 267.226 119.918,267.205 120.160,267.332 120.600 M269.731 133.800 C 269.733 135.340,269.805 135.921,269.892 135.091 C 269.979 134.261,269.977 133.001,269.889 132.291 C 269.800 131.581,269.729 132.260,269.731 133.800 M322.134 138.800 C 322.134 140.450,322.205 141.125,322.291 140.300 C 322.378 139.475,322.378 138.125,322.291 137.300 C 322.205 136.475,322.134 137.150,322.134 138.800 M269.728 142.000 C 269.728 143.430,269.801 144.015,269.889 143.300 C 269.978 142.585,269.978 141.415,269.889 140.700 C 269.801 139.985,269.728 140.570,269.728 142.000 M267.850 153.250 C 267.517 154.917,267.840 155.240,268.200 153.600 C 268.352 152.909,268.393 152.259,268.291 152.158 C 268.189 152.056,267.991 152.547,267.850 153.250 M267.400 171.200 C 268.259 172.080,269.052 172.800,269.162 172.800 C 269.272 172.800,268.659 172.080,267.800 171.200 C 266.941 170.320,266.148 169.600,266.038 169.600 C 265.928 169.600,266.541 170.320,267.400 171.200 M274.000 178.200 C 275.195 179.410,276.263 180.400,276.373 180.400 C 276.483 180.400,275.595 179.410,274.400 178.200 C 273.205 176.990,272.137 176.000,272.027 176.000 C 271.917 176.000,272.805 176.990,274.000 178.200 M153.200 182.000 C 153.200 182.220,152.469 182.400,151.576 182.400 C 150.596 182.400,150.051 182.242,150.200 182.000 C 150.336 181.780,151.067 181.600,151.824 181.600 C 152.581 181.600,153.200 181.780,153.200 182.000 M280.000 184.600 C 281.195 185.810,282.263 186.800,282.373 186.800 C 282.483 186.800,281.595 185.810,280.400 184.600 C 279.205 183.390,278.137 182.400,278.027 182.400 C 277.917 182.400,278.805 183.390,280.000 184.600 M145.594 188.100 C 145.589 188.828,145.514 188.885,145.200 188.400 C 144.699 187.624,144.699 187.200,145.200 187.200 C 145.420 187.200,145.597 187.605,145.594 188.100 M285.583 190.500 C 287.241 192.266,287.600 192.584,287.600 192.283 C 287.600 192.219,286.745 191.364,285.700 190.383 L 283.800 188.600 285.583 190.500 M176.800 191.567 C 177.763 192.352,178.400 192.608,178.400 192.210 C 178.400 192.106,177.815 191.735,177.100 191.386 L 175.800 190.752 176.800 191.567 M138.000 193.982 C 138.000 194.212,137.190 194.400,136.200 194.400 C 135.210 194.400,134.400 194.254,134.400 194.075 C 134.400 193.896,135.210 193.708,136.200 193.656 C 137.246 193.602,138.000 193.739,138.000 193.982 M291.183 196.500 C 292.164 197.545,293.019 198.400,293.083 198.400 C 293.384 198.400,293.066 198.041,291.300 196.383 L 289.400 194.600 291.183 196.500 M185.020 195.555 C 185.229 195.750,185.850 196.028,186.400 196.172 L 187.400 196.433 186.400 195.831 C 185.286 195.159,184.409 194.984,185.020 195.555 M241.600 197.800 C 242.795 199.010,243.863 200.000,243.973 200.000 C 244.083 200.000,243.195 199.010,242.000 197.800 C 240.805 196.590,239.737 195.600,239.627 195.600 C 239.517 195.600,240.405 196.590,241.600 197.800 M190.800 197.549 C 191.130 197.746,192.030 198.020,192.800 198.156 C 193.744 198.323,193.940 198.292,193.400 198.061 C 192.163 197.532,190.090 197.123,190.800 197.549 M134.000 198.000 C 134.000 198.509,132.388 198.509,131.600 198.000 C 131.154 197.712,131.384 197.611,132.500 197.606 C 133.325 197.603,134.000 197.780,134.000 198.000 M222.600 198.000 C 222.096 198.217,222.022 198.344,222.400 198.344 C 222.730 198.344,223.360 198.189,223.800 198.000 C 224.304 197.783,224.378 197.656,224.000 197.656 C 223.670 197.656,223.040 197.811,222.600 198.000 M204.918 199.898 C 206.633 199.973,209.333 199.972,210.918 199.897 C 212.503 199.821,211.100 199.759,207.800 199.760 C 204.500 199.761,203.203 199.822,204.918 199.898 M297.200 203.000 C 297.946 203.770,298.647 204.400,298.757 204.400 C 298.867 204.400,298.346 203.770,297.600 203.000 C 296.854 202.230,296.153 201.600,296.043 201.600 C 295.933 201.600,296.454 202.230,297.200 203.000 M248.400 205.000 C 249.146 205.770,249.847 206.400,249.957 206.400 C 250.067 206.400,249.546 205.770,248.800 205.000 C 248.054 204.230,247.353 203.600,247.243 203.600 C 247.133 203.600,247.654 204.230,248.400 205.000 M123.905 205.875 C 123.522 205.975,122.802 205.979,122.305 205.883 C 121.807 205.787,122.120 205.705,123.000 205.701 C 123.880 205.696,124.287 205.775,123.905 205.875 M253.600 210.600 C 254.795 211.810,255.863 212.800,255.973 212.800 C 256.083 212.800,255.195 211.810,254.000 210.600 C 252.805 209.390,251.737 208.400,251.627 208.400 C 251.517 208.400,252.405 209.390,253.600 210.600 M259.600 217.000 C 260.346 217.770,261.047 218.400,261.157 218.400 C 261.267 218.400,260.746 217.770,260.000 217.000 C 259.254 216.230,258.553 215.600,258.443 215.600 C 258.333 215.600,258.854 216.230,259.600 217.000 M264.800 222.525 C 264.800 222.594,265.385 223.179,266.100 223.825 L 267.400 225.000 266.225 223.700 C 265.130 222.488,264.800 222.216,264.800 222.525 M272.400 230.600 C 273.146 231.370,273.847 232.000,273.957 232.000 C 274.067 232.000,273.546 231.370,272.800 230.600 C 272.054 229.830,271.353 229.200,271.243 229.200 C 271.133 229.200,271.654 229.830,272.400 230.600 M155.410 239.752 C 156.000 240.342,155.797 240.800,154.946 240.800 C 154.647 240.800,154.523 240.544,154.655 240.200 C 154.782 239.870,154.701 239.600,154.476 239.600 C 154.251 239.600,153.976 239.825,153.865 240.100 C 153.744 240.399,153.650 240.318,153.632 239.900 C 153.594 239.064,154.635 238.978,155.410 239.752 M145.800 241.200 C 145.936 241.420,145.767 241.600,145.424 241.600 C 145.081 241.600,144.800 241.744,144.800 241.921 C 144.800 242.367,147.551 242.403,147.824 241.960 C 147.947 241.762,147.677 241.600,147.224 241.600 C 146.771 241.600,146.400 241.420,146.400 241.200 C 146.400 240.980,146.209 240.800,145.976 240.800 C 145.743 240.800,145.664 240.980,145.800 241.200 M143.329 241.881 C 143.758 241.992,143.969 242.303,143.842 242.635 C 143.723 242.946,143.799 243.200,144.013 243.200 C 144.226 243.200,144.400 242.840,144.400 242.400 C 144.400 241.823,144.149 241.613,143.500 241.646 C 142.778 241.684,142.744 241.730,143.329 241.881 M283.200 242.125 C 283.200 242.194,283.785 242.779,284.500 243.425 L 285.800 244.600 284.625 243.300 C 283.530 242.088,283.200 241.816,283.200 242.125 M147.400 244.800 C 146.691 245.105,146.725 245.147,147.700 245.172 C 148.305 245.187,148.800 245.020,148.800 244.800 C 148.800 244.331,148.493 244.331,147.400 244.800 M138.800 245.829 C 138.800 246.125,139.875 247.200,140.171 247.200 C 140.297 247.200,140.400 246.840,140.400 246.400 C 140.400 245.867,140.133 245.600,139.600 245.600 C 139.160 245.600,138.800 245.703,138.800 245.829 M289.200 248.525 C 289.200 248.594,289.785 249.179,290.500 249.825 L 291.800 251.000 290.625 249.700 C 289.530 248.488,289.200 248.216,289.200 248.525 M131.600 249.600 C 130.170 249.744,129.540 249.908,130.200 249.964 C 130.860 250.020,131.871 250.144,132.446 250.239 C 133.074 250.344,133.692 250.171,133.995 249.806 C 134.271 249.473,134.431 249.231,134.349 249.269 C 134.267 249.307,133.030 249.456,131.600 249.600 M125.173 253.974 C 126.368 254.118,127.418 254.453,127.506 254.718 C 127.765 255.496,128.400 255.271,128.400 254.400 C 128.400 253.673,128.152 253.605,125.700 253.656 L 123.000 253.713 125.173 253.974 M121.600 257.200 C 122.022 257.473,121.438 257.590,119.633 257.594 C 118.222 257.597,117.191 257.724,117.343 257.876 C 117.833 258.367,121.233 258.470,121.786 258.012 C 122.185 257.680,122.369 257.698,122.506 258.083 C 122.608 258.367,122.837 258.463,123.016 258.296 C 123.355 257.979,122.098 256.830,121.400 256.819 C 121.180 256.815,121.270 256.987,121.600 257.200 M117.600 261.200 C 117.600 261.420,117.870 261.600,118.200 261.600 C 118.530 261.600,118.800 261.420,118.800 261.200 C 118.800 260.980,118.530 260.800,118.200 260.800 C 117.870 260.800,117.600 260.980,117.600 261.200 M111.571 262.039 C 112.104 262.252,112.824 262.400,113.171 262.367 C 114.739 262.219,116.028 262.432,115.800 262.800 C 115.664 263.020,115.833 263.200,116.176 263.200 C 116.533 263.200,116.800 262.858,116.800 262.400 C 116.800 261.667,116.542 261.602,113.700 261.625 C 111.280 261.645,110.813 261.736,111.571 262.039 M104.523 265.856 C 105.008 266.341,111.200 266.514,111.200 266.042 C 111.200 265.753,109.997 265.600,107.733 265.600 C 105.827 265.600,104.382 265.715,104.523 265.856 M101.600 269.067 C 101.600 269.408,101.060 269.617,100.100 269.646 C 99.275 269.672,98.928 269.778,99.329 269.881 C 99.758 269.992,99.969 270.303,99.842 270.635 C 99.501 271.524,100.297 271.298,101.603 270.134 C 102.937 268.946,103.091 268.533,102.200 268.533 C 101.870 268.533,101.600 268.773,101.600 269.067 M105.600 269.200 C 105.600 269.420,105.870 269.600,106.200 269.600 C 106.530 269.600,106.800 269.420,106.800 269.200 C 106.800 268.980,106.530 268.800,106.200 268.800 C 105.870 268.800,105.600 268.980,105.600 269.200 M102.600 270.000 C 102.736 270.220,103.117 270.400,103.447 270.400 C 103.777 270.400,103.936 270.580,103.800 270.800 C 103.664 271.020,103.833 271.200,104.176 271.200 C 104.533 271.200,104.800 270.858,104.800 270.400 C 104.800 269.774,104.533 269.600,103.576 269.600 C 102.863 269.600,102.456 269.767,102.600 270.000 M94.432 273.100 C 94.414 273.375,93.920 273.600,93.333 273.600 C 91.866 273.600,92.439 274.055,94.047 274.166 C 94.765 274.216,95.423 274.469,95.509 274.728 C 95.772 275.516,96.800 275.255,96.800 274.400 C 96.800 273.821,96.533 273.600,95.833 273.600 C 95.302 273.600,94.776 273.375,94.665 273.100 C 94.504 272.700,94.457 272.700,94.432 273.100 M97.600 273.200 C 97.600 273.420,97.870 273.600,98.200 273.600 C 98.530 273.600,98.800 273.420,98.800 273.200 C 98.800 272.980,98.530 272.800,98.200 272.800 C 97.870 272.800,97.600 272.980,97.600 273.200 M87.600 277.600 C 86.170 277.744,85.540 277.908,86.200 277.964 C 86.860 278.021,87.850 278.117,88.400 278.179 C 88.950 278.240,89.755 278.045,90.189 277.745 C 90.623 277.445,90.803 277.231,90.589 277.269 C 90.375 277.307,89.030 277.456,87.600 277.600 M85.600 281.200 C 85.600 281.420,85.870 281.600,86.200 281.600 C 86.530 281.600,86.800 281.420,86.800 281.200 C 86.800 280.980,86.530 280.800,86.200 280.800 C 85.870 280.800,85.600 280.980,85.600 281.200 M78.867 281.800 C 78.977 281.910,79.817 282.030,80.734 282.066 C 81.650 282.102,82.400 282.276,82.400 282.453 C 82.400 282.630,82.670 282.671,83.000 282.545 C 83.330 282.418,83.600 282.514,83.600 282.757 C 83.600 283.001,83.870 283.200,84.200 283.200 C 84.533 283.200,84.800 282.844,84.800 282.400 C 84.800 281.670,84.533 281.600,81.733 281.600 C 80.047 281.600,78.757 281.690,78.867 281.800 M77.600 285.200 C 78.019 285.471,77.367 285.590,75.433 285.594 C 73.912 285.597,72.796 285.729,72.953 285.886 C 73.408 286.341,77.549 286.405,77.823 285.962 C 77.984 285.702,78.270 285.726,78.636 286.030 C 78.946 286.287,79.200 286.361,79.200 286.193 C 79.200 285.802,77.923 284.827,77.400 284.819 C 77.180 284.815,77.270 284.987,77.600 285.200 M73.600 289.200 C 73.600 289.420,73.870 289.600,74.200 289.600 C 74.530 289.600,74.800 289.420,74.800 289.200 C 74.800 288.980,74.530 288.800,74.200 288.800 C 73.870 288.800,73.600 288.980,73.600 289.200 " stroke="none" fill="#2bc3db" fill-rule="evenodd"></path><path id="path1" d="M288.400 60.200 C 288.400 60.530,288.580 60.800,288.800 60.800 C 289.520 60.800,289.220 61.468,288.300 61.912 C 287.805 62.151,287.647 62.358,287.949 62.373 C 288.691 62.410,287.737 63.600,286.965 63.600 C 286.670 63.600,286.235 63.960,286.000 64.400 C 285.765 64.840,285.303 65.200,284.973 65.200 C 284.644 65.200,284.276 65.459,284.154 65.775 C 284.033 66.091,283.679 66.252,283.367 66.132 C 283.023 66.000,282.800 66.167,282.800 66.557 C 282.800 66.911,282.633 67.200,282.428 67.200 C 282.223 67.200,281.998 67.605,281.928 68.100 C 281.832 68.776,281.576 68.969,280.900 68.875 C 280.313 68.793,280.000 68.957,280.000 69.346 C 280.000 70.358,278.809 71.200,277.379 71.200 C 276.298 71.200,275.968 71.387,275.789 72.100 C 275.508 73.219,273.944 73.986,271.820 74.046 L 270.200 74.092 271.704 74.384 C 274.132 74.855,274.340 75.754,272.006 75.688 C 271.210 75.665,270.800 75.848,270.800 76.227 C 270.800 76.542,270.993 76.800,271.229 76.800 C 271.464 76.800,271.387 77.070,271.057 77.400 C 270.642 77.815,269.494 78.023,267.329 78.076 C 264.556 78.143,264.461 78.168,266.500 78.296 C 267.765 78.375,268.800 78.512,268.800 78.601 C 268.800 79.223,267.780 80.800,267.378 80.800 C 266.629 80.800,264.469 82.966,264.008 84.180 C 263.692 85.011,263.417 85.196,262.795 84.999 C 262.136 84.789,261.947 84.965,261.746 85.972 C 261.521 87.095,261.365 87.200,259.913 87.200 C 258.662 87.200,258.281 87.370,258.116 88.000 C 257.884 88.887,256.955 89.081,256.687 88.300 C 256.592 88.025,256.560 88.108,256.616 88.485 C 256.733 89.276,255.817 90.182,255.254 89.833 C 255.044 89.703,254.551 89.720,254.159 89.871 C 253.582 90.092,253.708 90.239,254.823 90.642 C 256.158 91.124,256.166 91.140,255.100 91.170 C 254.215 91.194,254.000 91.387,254.000 92.157 C 254.000 92.684,253.730 93.218,253.400 93.345 C 253.070 93.471,252.800 93.771,252.800 94.011 C 252.800 94.251,252.978 94.337,253.195 94.203 C 253.413 94.068,253.499 94.198,253.386 94.491 C 253.274 94.784,253.816 95.716,254.591 96.562 C 255.366 97.408,256.000 98.184,256.000 98.287 C 256.000 98.389,256.630 99.209,257.400 100.108 C 258.170 101.008,258.800 101.960,258.800 102.223 C 258.800 102.486,259.062 102.920,259.383 103.186 C 259.913 103.625,264.400 111.338,264.400 111.809 C 264.400 111.919,264.757 112.772,265.193 113.704 C 271.696 127.609,271.580 147.173,264.902 162.661 L 263.340 166.284 264.523 167.642 C 265.174 168.389,266.732 170.080,267.985 171.400 C 269.239 172.720,276.860 180.869,284.922 189.509 C 292.984 198.149,299.720 205.255,299.890 205.299 C 300.303 205.406,306.664 195.843,308.275 192.693 C 316.198 177.197,320.109 164.293,321.640 148.600 C 322.154 143.327,321.880 126.833,321.221 123.400 C 321.009 122.300,320.556 119.722,320.212 117.670 C 318.316 106.352,312.021 89.462,306.321 80.400 C 305.343 78.844,301.586 73.156,300.509 71.600 C 297.373 67.069,291.021 60.118,290.616 60.774 C 290.471 61.008,290.153 61.200,289.910 61.200 C 289.666 61.200,289.578 61.089,289.714 60.952 C 289.959 60.708,289.070 59.600,288.629 59.600 C 288.503 59.600,288.400 59.870,288.400 60.200 M282.973 62.359 C 283.695 62.642,285.600 62.493,285.600 62.153 C 285.600 62.069,284.835 62.013,283.900 62.028 C 282.697 62.048,282.426 62.145,282.973 62.359 M274.833 70.147 C 275.305 70.563,278.000 70.793,278.000 70.418 C 278.000 70.188,277.250 70.000,276.333 70.000 C 275.417 70.000,274.742 70.066,274.833 70.147 M258.200 86.000 C 257.100 86.151,256.560 86.305,257.000 86.342 C 257.440 86.379,258.475 86.520,259.300 86.657 C 260.522 86.859,260.800 86.784,260.800 86.252 C 260.800 85.894,260.665 85.628,260.500 85.663 C 260.335 85.697,259.300 85.849,258.200 86.000 M158.469 177.975 C 158.234 178.649,157.807 179.186,157.521 179.168 C 157.118 179.144,157.114 179.091,157.500 178.935 C 157.775 178.824,158.000 178.549,158.000 178.324 C 158.000 178.099,157.699 178.030,157.332 178.171 C 156.965 178.312,156.531 178.212,156.368 177.949 C 156.148 177.592,155.635 177.576,154.337 177.887 L 152.600 178.304 154.500 178.352 C 156.050 178.391,157.440 179.200,155.957 179.200 C 155.714 179.200,155.624 179.486,155.759 179.836 C 156.094 180.712,155.601 181.438,155.142 180.743 C 154.703 180.077,153.600 181.317,153.600 182.476 C 153.600 183.067,153.270 183.200,151.800 183.200 C 150.467 183.200,150.000 183.356,150.000 183.800 C 150.000 184.130,149.820 184.400,149.600 184.400 C 149.380 184.400,149.200 184.220,149.200 184.000 C 149.200 183.780,149.020 183.600,148.800 183.600 C 148.580 183.600,148.400 183.870,148.400 184.200 C 148.400 184.530,148.610 184.800,148.867 184.800 C 149.840 184.800,148.780 185.292,146.730 185.792 L 144.600 186.312 146.300 186.356 C 148.081 186.402,148.567 186.966,147.200 187.400 C 146.760 187.540,146.400 187.851,146.400 188.091 C 146.400 188.764,143.946 190.800,143.136 190.800 C 142.710 190.800,142.317 191.191,142.176 191.754 C 142.008 192.422,141.723 192.653,141.225 192.522 C 140.690 192.383,140.453 192.636,140.272 193.538 C 140.101 194.395,139.769 194.777,139.116 194.870 C 138.518 194.955,138.155 195.316,138.071 195.911 C 138.000 196.412,137.730 196.795,137.471 196.763 C 136.392 196.630,136.000 196.842,136.000 197.557 C 136.000 198.447,135.252 198.800,133.367 198.800 C 132.201 198.800,132.000 198.937,132.000 199.736 C 132.000 200.852,130.646 201.583,128.481 201.636 L 127.000 201.672 128.300 202.048 C 129.657 202.439,130.032 203.349,129.000 203.745 C 128.670 203.871,128.099 203.859,127.731 203.718 C 127.238 203.529,127.124 203.625,127.300 204.085 C 127.628 204.939,126.587 206.318,125.496 206.473 C 125.003 206.543,124.427 206.993,124.216 207.474 C 124.005 207.955,123.409 208.541,122.890 208.777 C 122.157 209.111,122.010 209.401,122.227 210.085 C 122.492 210.921,122.472 210.929,121.805 210.262 C 121.420 209.877,121.032 209.635,120.943 209.724 C 120.680 209.987,121.255 211.200,121.643 211.200 C 121.839 211.200,122.000 211.405,122.000 211.656 C 122.000 213.208,135.458 226.166,141.061 230.009 C 151.015 236.836,158.175 240.797,166.400 244.028 C 185.474 251.520,206.213 253.765,226.483 250.533 L 230.894 249.830 232.947 252.043 C 241.531 261.296,250.771 271.214,253.777 274.400 C 258.854 279.783,262.655 283.842,268.400 290.013 C 271.150 292.967,276.190 298.364,279.600 302.005 C 286.529 309.404,294.607 318.082,297.071 320.774 L 298.694 322.548 303.047 321.422 C 305.441 320.803,309.200 319.797,311.400 319.187 C 313.600 318.577,318.165 317.334,321.544 316.424 C 332.043 313.600,335.082 310.794,335.516 303.526 C 335.833 298.217,335.457 297.674,320.183 281.400 C 312.957 273.700,300.297 260.200,292.051 251.400 C 283.805 242.600,276.775 235.115,276.429 234.767 C 276.083 234.418,273.370 231.543,270.400 228.377 C 267.430 225.211,261.940 219.368,258.200 215.393 C 245.388 201.775,240.158 196.198,238.552 194.447 L 236.944 192.693 235.372 193.541 C 213.230 205.488,183.388 200.603,164.231 181.895 C 162.257 179.968,160.249 178.022,159.769 177.571 L 158.896 176.750 158.469 177.975 M150.200 182.000 C 150.051 182.242,150.596 182.400,151.576 182.400 C 152.469 182.400,153.200 182.220,153.200 182.000 C 153.200 181.780,152.581 181.600,151.824 181.600 C 151.067 181.600,150.336 181.780,150.200 182.000 M144.806 187.500 C 144.824 188.377,145.588 188.959,145.594 188.100 C 145.597 187.605,145.420 187.200,145.200 187.200 C 144.980 187.200,144.803 187.335,144.806 187.500 M134.400 194.075 C 134.400 194.254,135.210 194.400,136.200 194.400 C 137.190 194.400,138.000 194.212,138.000 193.982 C 138.000 193.739,137.246 193.602,136.200 193.656 C 135.210 193.708,134.400 193.896,134.400 194.075 M131.600 198.000 C 132.388 198.509,134.000 198.509,134.000 198.000 C 134.000 197.780,133.325 197.603,132.500 197.606 C 131.384 197.611,131.154 197.712,131.600 198.000 M122.305 205.883 C 122.802 205.979,123.522 205.975,123.905 205.875 C 124.287 205.775,123.880 205.696,123.000 205.701 C 122.120 205.705,121.807 205.787,122.305 205.883 " stroke="none" fill="#0d3dfb" fill-rule="evenodd"></path><path id="path2" d="M0.000 200.200 L 0.000 400.400 200.000 400.400 L 400.000 400.400 400.000 200.200 L 400.000 0.000 200.000 0.000 L 0.000 0.000 0.000 200.200 M218.473 24.192 C 222.362 24.534,226.322 24.972,227.273 25.166 C 238.724 27.500,243.710 28.938,251.881 32.267 C 255.901 33.904,264.072 37.982,266.125 39.375 C 266.956 39.939,267.724 40.400,267.831 40.400 C 268.143 40.400,275.985 45.805,278.402 47.686 C 294.698 60.370,308.947 79.672,315.250 97.600 C 318.754 107.566,320.023 112.557,321.453 122.002 C 324.335 141.033,321.273 165.654,314.017 181.800 C 309.715 191.370,304.605 200.419,300.802 205.200 L 300.006 206.200 296.903 202.975 C 295.196 201.202,291.640 197.437,289.000 194.608 C 286.360 191.779,283.750 188.988,283.200 188.404 C 282.650 187.821,279.770 184.748,276.800 181.577 C 269.734 174.032,267.441 171.591,264.900 168.908 C 262.807 166.698,262.506 166.100,263.128 165.380 C 264.285 164.041,267.352 154.879,268.479 149.400 C 274.015 122.472,257.246 90.915,232.549 81.783 C 231.477 81.387,230.416 80.925,230.191 80.758 C 229.749 80.428,225.141 79.048,221.600 78.183 C 208.946 75.095,192.250 77.171,180.400 83.307 C 156.218 95.828,143.134 122.082,147.728 148.868 C 150.126 162.855,158.611 177.063,170.023 186.200 C 171.744 187.578,177.753 191.532,178.800 191.975 C 179.350 192.208,180.070 192.573,180.400 192.786 C 181.616 193.573,186.254 195.533,188.000 195.998 C 188.990 196.262,189.980 196.623,190.200 196.800 C 190.990 197.435,201.089 199.180,205.400 199.425 C 214.433 199.940,225.404 197.726,234.040 193.646 C 237.249 192.130,237.327 192.127,238.407 193.500 C 238.883 194.105,240.921 196.324,242.936 198.430 C 244.951 200.537,248.760 204.579,251.400 207.413 C 257.641 214.111,261.410 218.131,265.623 222.583 C 268.767 225.904,271.114 228.414,278.377 236.219 C 279.820 237.770,283.440 241.640,286.423 244.819 C 289.405 247.999,294.881 253.840,298.591 257.800 C 302.301 261.760,306.650 266.401,308.256 268.112 C 309.861 269.824,312.485 272.622,314.087 274.330 C 334.284 295.865,334.045 295.598,334.828 297.378 C 336.651 301.516,336.026 307.364,333.400 310.734 C 330.849 314.008,328.416 315.192,319.800 317.353 C 317.473 317.936,313.879 318.895,306.000 321.036 C 303.910 321.603,300.580 322.501,298.600 323.030 C 296.620 323.558,292.930 324.545,290.400 325.223 C 287.870 325.901,284.540 326.788,283.000 327.194 C 281.460 327.601,278.130 328.501,275.600 329.194 C 273.070 329.887,269.290 330.908,267.200 331.462 C 265.110 332.017,261.780 332.906,259.800 333.439 C 253.496 335.136,248.682 336.422,245.800 337.178 C 244.260 337.582,240.930 338.488,238.400 339.191 C 235.870 339.895,232.540 340.797,231.000 341.196 C 226.772 342.293,221.125 343.805,216.000 345.213 C 213.470 345.907,209.780 346.894,207.800 347.405 C 205.820 347.916,202.130 348.909,199.600 349.611 C 197.070 350.313,193.740 351.212,192.200 351.609 C 190.660 352.005,187.330 352.897,184.800 353.590 C 178.921 355.200,175.105 356.228,170.600 357.417 C 168.620 357.939,165.290 358.838,163.200 359.415 C 161.110 359.992,157.780 360.888,155.800 361.405 C 153.820 361.922,150.490 362.822,148.400 363.405 C 146.310 363.988,142.980 364.891,141.000 365.413 C 139.020 365.934,135.600 366.838,133.400 367.420 C 131.200 368.003,127.870 368.883,126.000 369.374 C 124.130 369.866,122.330 370.385,122.000 370.527 C 121.670 370.669,119.960 371.138,118.200 371.569 C 116.440 371.999,112.930 372.922,110.400 373.619 C 107.870 374.317,104.540 375.209,103.000 375.603 C 101.460 375.997,98.080 376.877,95.490 377.559 C 81.970 381.120,70.512 374.014,68.775 360.991 C 67.925 354.618,68.486 42.678,69.351 40.634 C 73.368 31.144,84.496 29.529,91.895 37.362 C 94.048 39.641,101.353 47.430,109.178 55.791 C 111.035 57.776,113.998 60.901,115.761 62.736 L 118.966 66.073 121.764 62.936 C 140.115 42.359,162.018 30.087,189.200 25.153 C 196.908 23.754,208.982 23.357,218.473 24.192 " stroke="none" fill="none" fill-rule="evenodd"></path><path id="path3" d="M78.694 32.814 C 74.933 33.754,71.760 36.390,70.045 40.000 L 69.000 42.200 68.898 201.569 C 68.842 289.221,68.886 360.848,68.995 360.738 C 69.104 360.629,69.199 344.308,69.204 324.470 C 69.211 301.141,69.353 288.400,69.607 288.400 C 69.823 288.400,70.000 288.670,70.000 289.000 C 70.000 289.419,70.422 289.600,71.400 289.600 C 72.533 289.600,72.800 289.752,72.800 290.400 C 72.800 290.840,72.536 291.200,72.213 291.200 C 71.855 291.200,71.715 290.965,71.855 290.600 C 71.982 290.270,71.886 290.000,71.643 290.000 C 71.399 290.000,71.200 290.251,71.200 290.557 C 71.200 290.864,70.930 291.218,70.600 291.345 C 69.728 291.679,69.868 292.136,71.003 292.662 C 71.661 292.967,72.000 292.984,72.000 292.710 C 72.000 292.459,72.554 292.385,73.400 292.523 C 74.856 292.759,75.139 292.499,74.320 291.680 C 73.947 291.307,74.165 291.200,75.304 291.200 C 76.671 291.200,78.800 289.680,78.800 288.704 C 78.800 288.537,79.149 288.400,79.576 288.400 C 80.507 288.400,81.011 287.751,80.302 287.466 C 80.026 287.354,80.468 287.249,81.284 287.232 C 82.640 287.203,84.400 286.037,84.400 285.168 C 84.400 285.013,84.866 284.770,85.436 284.627 C 86.089 284.463,86.395 284.165,86.264 283.823 C 86.122 283.452,86.506 283.194,87.473 283.013 C 89.551 282.623,90.651 281.508,89.798 280.656 C 89.205 280.062,89.251 280.030,90.364 280.253 C 91.902 280.560,93.257 280.129,92.405 279.603 C 92.006 279.357,92.446 279.168,93.856 278.981 C 95.532 278.759,95.999 278.510,96.578 277.530 C 97.098 276.649,97.547 276.365,98.338 276.416 C 100.074 276.528,100.400 276.431,100.400 275.800 C 100.400 275.470,100.664 275.200,100.987 275.200 C 101.336 275.200,101.484 274.964,101.353 274.620 C 101.200 274.224,101.552 273.908,102.465 273.622 L 103.800 273.203 102.477 273.396 C 101.415 273.551,101.257 273.492,101.677 273.095 C 102.398 272.413,104.710 272.387,104.967 273.058 C 105.081 273.356,105.406 273.597,105.687 273.594 C 106.074 273.589,106.065 273.502,105.647 273.238 C 105.214 272.964,105.284 272.827,105.968 272.610 C 106.668 272.388,106.749 272.220,106.372 271.766 C 105.987 271.302,106.092 271.200,106.951 271.200 C 107.601 271.200,108.000 270.979,108.000 270.620 C 108.000 270.301,108.286 269.880,108.636 269.684 C 108.986 269.488,109.211 269.164,109.136 268.964 C 109.061 268.764,109.810 268.510,110.800 268.400 C 111.948 268.272,112.564 268.019,112.500 267.700 C 112.445 267.425,112.593 267.200,112.829 267.200 C 113.421 267.200,114.418 266.151,114.114 265.848 C 113.978 265.711,114.177 265.600,114.557 265.600 C 114.937 265.600,115.148 265.439,115.026 265.243 C 114.718 264.744,116.594 264.333,117.800 264.636 C 118.959 264.927,119.161 264.250,118.100 263.632 C 117.544 263.308,117.746 263.222,119.084 263.212 C 120.666 263.201,122.800 261.761,122.800 260.704 C 122.800 260.537,123.149 260.400,123.576 260.400 C 124.605 260.400,125.000 259.710,124.105 259.477 C 123.717 259.376,124.030 259.269,124.800 259.241 C 127.371 259.146,128.000 258.813,128.000 257.546 C 128.000 256.507,128.105 256.411,129.000 256.636 C 129.830 256.844,130.000 256.743,130.000 256.043 C 130.000 255.346,130.243 255.200,131.403 255.200 C 132.377 255.200,133.055 254.913,133.623 254.259 C 134.093 253.719,134.815 253.355,135.320 253.404 C 135.814 253.452,135.893 253.414,135.500 253.317 C 134.552 253.083,134.609 252.400,135.576 252.400 C 136.499 252.400,137.019 251.746,136.302 251.487 C 136.026 251.387,136.643 251.173,137.673 251.011 C 138.703 250.849,139.643 250.466,139.761 250.159 C 139.878 249.851,140.261 249.600,140.611 249.600 C 140.961 249.600,141.139 249.425,141.007 249.212 C 140.778 248.841,142.238 248.271,143.026 248.423 C 143.896 248.590,144.400 248.362,144.400 247.800 C 144.400 247.470,144.681 247.200,145.024 247.200 C 145.379 247.200,145.529 247.009,145.372 246.755 C 144.940 246.056,146.024 245.613,148.200 245.600 C 149.448 245.592,149.999 245.461,149.666 245.250 C 149.242 244.980,149.271 244.858,149.808 244.652 C 150.201 244.502,150.387 244.144,150.254 243.797 C 150.091 243.371,150.298 243.200,150.979 243.200 C 152.089 243.200,152.419 242.563,151.958 241.314 C 151.553 240.217,152.197 239.719,152.763 240.692 C 153.100 241.269,153.178 241.286,153.188 240.780 C 153.205 239.922,152.418 239.218,151.735 239.480 C 151.144 239.707,151.131 238.798,151.719 238.365 C 151.894 238.235,151.759 237.898,151.419 237.616 C 150.904 237.188,150.800 237.211,150.800 237.751 C 150.800 238.108,150.620 238.400,150.400 238.400 C 150.180 238.400,150.000 238.051,150.000 237.624 C 150.000 237.197,149.820 236.736,149.600 236.600 C 149.380 236.464,149.200 236.633,149.200 236.976 C 149.200 237.319,149.008 237.600,148.773 237.600 C 148.538 237.600,148.448 237.279,148.572 236.888 C 148.708 236.459,148.520 235.986,148.099 235.699 C 147.715 235.437,146.410 234.558,145.200 233.747 C 143.139 232.364,138.990 229.370,136.858 227.726 C 129.152 221.784,117.332 208.664,112.242 200.400 C 111.632 199.410,110.519 197.618,109.769 196.418 C 107.772 193.221,103.490 184.374,101.823 180.000 C 101.026 177.910,100.213 175.815,100.016 175.345 C 99.819 174.874,99.110 172.595,98.441 170.280 C 89.802 140.380,94.187 105.256,109.688 80.200 C 112.178 76.176,115.327 71.530,117.197 69.124 C 118.999 66.805,119.072 66.621,118.415 66.029 C 118.031 65.683,112.166 59.460,105.381 52.200 C 89.007 34.679,88.596 34.278,86.197 33.461 C 83.661 32.597,80.613 32.334,78.694 32.814 M153.632 239.900 C 153.650 240.318,153.744 240.399,153.865 240.100 C 153.976 239.825,154.251 239.600,154.476 239.600 C 154.701 239.600,154.782 239.870,154.655 240.200 C 154.523 240.544,154.647 240.800,154.946 240.800 C 155.797 240.800,156.000 240.342,155.410 239.752 C 154.635 238.978,153.594 239.064,153.632 239.900 M146.400 241.200 C 146.400 241.420,146.771 241.600,147.224 241.600 C 147.677 241.600,147.947 241.762,147.824 241.960 C 147.551 242.403,144.800 242.367,144.800 241.921 C 144.800 241.744,145.081 241.600,145.424 241.600 C 145.767 241.600,145.936 241.420,145.800 241.200 C 145.664 240.980,145.743 240.800,145.976 240.800 C 146.209 240.800,146.400 240.980,146.400 241.200 M144.400 242.400 C 144.400 242.840,144.226 243.200,144.013 243.200 C 143.799 243.200,143.723 242.946,143.842 242.635 C 143.969 242.303,143.758 241.992,143.329 241.881 C 142.744 241.730,142.778 241.684,143.500 241.646 C 144.149 241.613,144.400 241.823,144.400 242.400 M148.800 244.800 C 148.800 245.020,148.305 245.187,147.700 245.172 C 146.725 245.147,146.691 245.105,147.400 244.800 C 148.493 244.331,148.800 244.331,148.800 244.800 M140.400 246.400 C 140.400 247.347,140.147 247.404,139.371 246.629 C 138.596 245.853,138.653 245.600,139.600 245.600 C 140.133 245.600,140.400 245.867,140.400 246.400 M133.995 249.806 C 133.692 250.171,133.074 250.344,132.446 250.239 C 131.871 250.144,130.860 250.020,130.200 249.964 C 129.540 249.908,130.170 249.744,131.600 249.600 C 133.030 249.456,134.267 249.307,134.349 249.269 C 134.431 249.231,134.271 249.473,133.995 249.806 M128.400 254.400 C 128.400 255.271,127.765 255.496,127.506 254.718 C 127.418 254.453,126.368 254.118,125.173 253.974 L 123.000 253.713 125.700 253.656 C 128.152 253.605,128.400 253.673,128.400 254.400 M122.571 257.409 C 122.995 257.729,123.195 258.129,123.016 258.296 C 122.837 258.463,122.608 258.367,122.506 258.083 C 122.369 257.698,122.185 257.680,121.786 258.012 C 121.233 258.470,117.833 258.367,117.343 257.876 C 117.191 257.724,118.222 257.597,119.633 257.594 C 121.438 257.590,122.022 257.473,121.600 257.200 C 121.270 256.987,121.180 256.815,121.400 256.819 C 121.620 256.822,122.147 257.088,122.571 257.409 M118.800 261.200 C 118.800 261.420,118.530 261.600,118.200 261.600 C 117.870 261.600,117.600 261.420,117.600 261.200 C 117.600 260.980,117.870 260.800,118.200 260.800 C 118.530 260.800,118.800 260.980,118.800 261.200 M116.800 262.400 C 116.800 262.858,116.533 263.200,116.176 263.200 C 115.833 263.200,115.664 263.020,115.800 262.800 C 116.028 262.432,114.739 262.219,113.171 262.367 C 112.824 262.400,112.104 262.252,111.571 262.039 C 110.813 261.736,111.280 261.645,113.700 261.625 C 116.542 261.602,116.800 261.667,116.800 262.400 M111.200 266.042 C 111.200 266.514,105.008 266.341,104.523 265.856 C 104.382 265.715,105.827 265.600,107.733 265.600 C 109.997 265.600,111.200 265.753,111.200 266.042 M102.800 268.801 C 102.800 269.194,100.472 271.200,100.016 271.200 C 99.801 271.200,99.723 270.946,99.842 270.635 C 99.969 270.303,99.758 269.992,99.329 269.881 C 98.928 269.778,99.275 269.672,100.100 269.646 C 101.060 269.617,101.600 269.408,101.600 269.067 C 101.600 268.773,101.870 268.533,102.200 268.533 C 102.530 268.533,102.800 268.654,102.800 268.801 M106.800 269.200 C 106.800 269.420,106.530 269.600,106.200 269.600 C 105.870 269.600,105.600 269.420,105.600 269.200 C 105.600 268.980,105.870 268.800,106.200 268.800 C 106.530 268.800,106.800 268.980,106.800 269.200 M104.800 270.400 C 104.800 270.858,104.533 271.200,104.176 271.200 C 103.833 271.200,103.664 271.020,103.800 270.800 C 103.936 270.580,103.777 270.400,103.447 270.400 C 103.117 270.400,102.736 270.220,102.600 270.000 C 102.456 269.767,102.863 269.600,103.576 269.600 C 104.533 269.600,104.800 269.774,104.800 270.400 M95.833 273.600 C 96.533 273.600,96.800 273.821,96.800 274.400 C 96.800 275.255,95.772 275.516,95.509 274.728 C 95.423 274.469,94.765 274.216,94.047 274.166 C 92.439 274.055,91.866 273.600,93.333 273.600 C 93.920 273.600,94.414 273.375,94.432 273.100 C 94.457 272.700,94.504 272.700,94.665 273.100 C 94.776 273.375,95.302 273.600,95.833 273.600 M98.800 273.200 C 98.800 273.420,98.530 273.600,98.200 273.600 C 97.870 273.600,97.600 273.420,97.600 273.200 C 97.600 272.980,97.870 272.800,98.200 272.800 C 98.530 272.800,98.800 272.980,98.800 273.200 M90.189 277.745 C 89.755 278.045,88.950 278.240,88.400 278.179 C 87.850 278.117,86.860 278.021,86.200 277.964 C 85.540 277.908,86.170 277.744,87.600 277.600 C 89.030 277.456,90.375 277.307,90.589 277.269 C 90.803 277.231,90.623 277.445,90.189 277.745 M86.800 281.200 C 86.800 281.420,86.530 281.600,86.200 281.600 C 85.870 281.600,85.600 281.420,85.600 281.200 C 85.600 280.980,85.870 280.800,86.200 280.800 C 86.530 280.800,86.800 280.980,86.800 281.200 M84.800 282.400 C 84.800 282.844,84.533 283.200,84.200 283.200 C 83.870 283.200,83.600 283.001,83.600 282.757 C 83.600 282.514,83.330 282.418,83.000 282.545 C 82.670 282.671,82.400 282.630,82.400 282.453 C 82.400 282.276,81.650 282.102,80.734 282.066 C 77.802 281.951,78.555 281.600,81.733 281.600 C 84.533 281.600,84.800 281.670,84.800 282.400 M78.500 285.357 C 78.885 285.649,79.200 286.025,79.200 286.193 C 79.200 286.361,78.946 286.287,78.636 286.030 C 78.270 285.726,77.984 285.702,77.823 285.962 C 77.549 286.405,73.408 286.341,72.953 285.886 C 72.796 285.729,73.912 285.597,75.433 285.594 C 77.367 285.590,78.019 285.471,77.600 285.200 C 77.270 284.987,77.180 284.815,77.400 284.819 C 77.620 284.822,78.115 285.065,78.500 285.357 M74.800 289.200 C 74.800 289.420,74.530 289.600,74.200 289.600 C 73.870 289.600,73.600 289.420,73.600 289.200 C 73.600 288.980,73.870 288.800,74.200 288.800 C 74.530 288.800,74.800 288.980,74.800 289.200 " stroke="none" fill="#83f39e" fill-rule="evenodd"></path><path id="path4" d="M206.117 23.897 C 207.611 23.974,209.951 23.974,211.317 23.896 C 212.682 23.818,211.460 23.755,208.600 23.755 C 205.740 23.756,204.622 23.820,206.117 23.897 M198.300 24.282 C 198.795 24.378,199.605 24.378,200.100 24.282 C 200.595 24.187,200.190 24.109,199.200 24.109 C 198.210 24.109,197.805 24.187,198.300 24.282 M216.300 24.282 C 216.795 24.378,217.605 24.378,218.100 24.282 C 218.595 24.187,218.190 24.109,217.200 24.109 C 216.210 24.109,215.805 24.187,216.300 24.282 M193.700 24.676 C 194.085 24.776,194.715 24.776,195.100 24.676 C 195.485 24.575,195.170 24.493,194.400 24.493 C 193.630 24.493,193.315 24.575,193.700 24.676 M221.105 24.683 C 221.602 24.779,222.322 24.775,222.705 24.675 C 223.087 24.575,222.680 24.496,221.800 24.501 C 220.920 24.505,220.607 24.587,221.105 24.683 M188.507 25.176 C 187.577 25.328,186.692 25.575,186.541 25.726 C 186.157 26.110,186.995 26.034,190.000 25.415 C 192.671 24.864,191.536 24.682,188.507 25.176 M226.200 25.389 C 229.394 26.030,230.600 26.110,229.327 25.598 C 228.847 25.404,227.317 25.152,225.927 25.036 L 223.400 24.827 226.200 25.389 M180.070 27.008 C 178.898 27.294,177.833 27.634,177.703 27.764 C 177.323 28.143,178.022 28.030,181.000 27.227 C 184.140 26.381,183.378 26.201,180.070 27.008 M236.200 27.428 C 237.300 27.734,238.380 27.969,238.600 27.950 C 239.277 27.892,235.852 26.861,235.000 26.867 C 234.560 26.869,235.100 27.122,236.200 27.428 M171.675 29.473 C 170.726 29.809,170.021 30.154,170.107 30.240 C 170.193 30.327,171.240 30.051,172.432 29.628 C 173.624 29.205,174.330 28.860,174.000 28.861 C 173.670 28.862,172.624 29.138,171.675 29.473 M243.968 29.628 C 245.160 30.051,246.205 30.328,246.290 30.244 C 246.476 30.057,242.833 28.788,242.229 28.829 C 241.993 28.845,242.776 29.205,243.968 29.628 M248.202 31.141 C 249.083 31.550,250.253 31.998,250.802 32.137 C 251.351 32.276,251.080 32.052,250.200 31.639 C 249.320 31.226,248.150 30.778,247.600 30.644 C 247.050 30.509,247.321 30.733,248.202 31.141 M166.200 31.578 C 165.320 31.995,164.780 32.336,165.000 32.338 C 165.546 32.342,168.702 30.864,168.200 30.840 C 167.980 30.830,167.080 31.162,166.200 31.578 M160.600 33.925 C 155.951 36.127,152.400 37.982,152.400 38.209 C 152.400 38.317,154.515 37.363,157.100 36.087 C 159.685 34.811,162.430 33.472,163.200 33.109 C 163.970 32.747,164.420 32.442,164.200 32.430 C 163.980 32.418,162.360 33.091,160.600 33.925 M252.504 32.834 C 253.697 33.529,256.000 34.423,256.000 34.191 C 256.000 33.961,252.529 32.391,252.067 32.412 C 251.920 32.419,252.117 32.609,252.504 32.834 M75.900 33.429 C 75.295 33.757,74.800 34.114,74.800 34.223 C 74.800 34.332,75.295 34.171,75.900 33.865 C 76.505 33.560,77.270 33.209,77.600 33.086 C 78.133 32.888,78.133 32.861,77.600 32.848 C 77.270 32.839,76.505 33.101,75.900 33.429 M73.200 35.200 C 72.650 35.630,72.397 35.986,72.638 35.991 C 72.879 35.996,73.402 35.640,73.800 35.200 C 74.712 34.192,74.488 34.192,73.200 35.200 M256.433 34.554 C 256.840 34.929,264.000 38.387,264.000 38.208 C 264.000 37.986,256.977 34.400,256.541 34.400 C 256.390 34.400,256.342 34.469,256.433 34.554 M91.034 36.800 C 97.120 43.605,118.636 66.200,119.030 66.200 C 119.287 66.200,120.161 65.390,120.975 64.400 C 121.788 63.410,124.736 60.272,127.526 57.427 C 130.879 54.009,131.748 52.974,130.087 54.378 C 128.705 55.546,125.661 58.639,123.322 61.251 C 120.983 63.863,118.963 65.983,118.834 65.962 C 118.706 65.941,115.641 62.746,112.025 58.862 C 96.253 41.923,85.626 30.753,91.034 36.800 M69.589 40.100 C 69.165 41.035,68.826 42.160,68.836 42.600 C 68.845 43.040,69.080 42.680,69.357 41.800 C 69.634 40.920,70.078 39.795,70.344 39.300 C 70.610 38.805,70.723 38.400,70.595 38.400 C 70.466 38.400,70.014 39.165,69.589 40.100 M148.719 40.194 C 147.034 41.180,145.517 42.210,145.349 42.483 C 145.180 42.755,145.663 42.569,146.421 42.070 C 147.180 41.570,148.745 40.613,149.900 39.942 C 151.698 38.899,152.342 38.400,151.892 38.400 C 151.832 38.400,150.404 39.207,148.719 40.194 M265.000 39.010 C 266.215 39.995,267.355 40.574,267.023 40.037 C 266.872 39.794,266.176 39.317,265.475 38.978 C 264.291 38.406,264.257 38.408,265.000 39.010 M267.600 40.543 C 267.600 40.622,268.676 41.350,269.991 42.162 C 271.305 42.973,273.870 44.717,275.691 46.036 C 277.511 47.355,278.370 47.870,277.600 47.180 C 275.303 45.123,267.600 40.010,267.600 40.543 M143.000 43.916 C 138.821 46.792,132.724 51.658,132.980 51.914 C 133.076 52.010,134.309 51.109,135.720 49.912 C 137.131 48.715,139.751 46.703,141.543 45.440 C 144.328 43.477,145.173 42.773,144.700 42.807 C 144.645 42.811,143.880 43.310,143.000 43.916 M279.970 49.342 C 281.018 50.486,281.200 50.590,281.200 50.046 C 281.200 49.851,280.705 49.375,280.100 48.988 L 279.000 48.285 279.970 49.342 M286.724 55.374 C 292.382 60.844,297.104 66.233,300.679 71.300 C 302.744 74.226,304.121 75.677,302.578 73.300 C 298.607 67.186,289.967 57.507,283.800 52.266 C 282.480 51.145,283.796 52.543,286.724 55.374 M200.059 76.831 C 197.381 77.178,196.054 77.533,197.400 77.542 C 197.840 77.545,200.180 77.311,202.600 77.022 C 205.676 76.654,206.338 76.497,204.800 76.499 C 203.590 76.500,201.457 76.650,200.059 76.831 M211.000 76.765 C 218.239 77.480,219.848 77.573,218.400 77.193 C 217.630 76.991,214.930 76.741,212.400 76.637 C 208.467 76.476,208.264 76.494,211.000 76.765 M305.630 78.600 C 306.124 79.480,306.700 80.380,306.910 80.600 C 307.509 81.228,306.139 78.694,305.396 77.800 C 305.030 77.360,305.135 77.720,305.630 78.600 M189.858 79.052 C 188.790 79.380,187.996 79.729,188.094 79.828 C 188.193 79.926,189.337 79.663,190.636 79.243 C 191.936 78.823,192.730 78.474,192.400 78.468 C 192.070 78.461,190.926 78.724,189.858 79.052 M224.000 78.737 C 224.330 78.941,225.230 79.227,226.000 79.371 C 226.930 79.546,227.199 79.510,226.800 79.263 C 226.470 79.059,225.570 78.773,224.800 78.629 C 223.870 78.454,223.601 78.490,224.000 78.737 M184.200 81.207 C 183.308 81.645,183.042 81.884,183.600 81.747 C 184.769 81.459,186.786 80.435,186.200 80.427 C 185.980 80.423,185.080 80.775,184.200 81.207 M230.220 80.755 C 230.429 80.950,231.050 81.228,231.600 81.372 L 232.600 81.633 231.600 81.031 C 230.486 80.359,229.609 80.184,230.220 80.755 M307.800 82.400 C 308.141 83.060,308.511 83.600,308.621 83.600 C 308.731 83.600,308.541 83.060,308.200 82.400 C 307.859 81.740,307.489 81.200,307.379 81.200 C 307.269 81.200,307.459 81.740,307.800 82.400 M179.800 83.200 C 179.140 83.637,178.744 83.996,178.920 83.997 C 179.359 84.001,181.600 82.824,181.600 82.590 C 181.600 82.210,180.974 82.422,179.800 83.200 M235.000 82.695 C 235.220 82.904,236.660 83.745,238.200 84.563 C 239.740 85.382,240.640 85.755,240.200 85.393 C 239.307 84.659,234.370 82.097,235.000 82.695 M176.500 85.026 C 174.612 86.158,174.177 86.749,175.900 85.841 C 177.109 85.203,178.716 84.031,178.400 84.017 C 178.290 84.012,177.435 84.466,176.500 85.026 M310.081 86.591 C 310.559 87.576,311.019 88.314,311.103 88.230 C 311.284 88.049,309.668 84.800,309.397 84.800 C 309.294 84.800,309.602 85.606,310.081 86.591 M241.400 86.297 C 242.201 87.127,248.942 92.054,248.427 91.432 C 248.135 91.080,246.614 89.836,245.048 88.666 C 242.113 86.476,240.663 85.534,241.400 86.297 M170.539 89.139 C 167.000 91.877,160.906 97.959,159.188 100.468 C 158.014 102.182,158.802 101.396,162.401 97.265 C 164.909 94.386,169.336 90.395,173.430 87.322 C 174.074 86.839,174.483 86.434,174.339 86.422 C 174.196 86.410,172.486 87.632,170.539 89.139 M68.509 89.200 C 68.509 90.190,68.587 90.595,68.682 90.100 C 68.778 89.605,68.778 88.795,68.682 88.300 C 68.587 87.805,68.509 88.210,68.509 89.200 M311.617 89.900 C 311.639 90.301,313.162 93.070,313.183 92.749 C 313.211 92.335,312.005 89.600,311.795 89.600 C 311.688 89.600,311.608 89.735,311.617 89.900 M249.617 92.516 C 249.608 92.690,250.755 93.992,252.166 95.411 C 255.424 98.685,259.159 103.633,261.259 107.460 C 262.158 109.099,262.983 110.351,263.091 110.243 C 263.370 109.963,259.909 104.320,257.422 101.000 C 255.181 98.008,249.645 91.990,249.617 92.516 M313.646 94.200 C 313.653 94.420,314.006 95.320,314.429 96.200 C 314.852 97.080,315.086 97.350,314.949 96.800 C 314.667 95.667,313.625 93.588,313.646 94.200 M315.663 99.400 C 315.662 99.620,315.903 100.430,316.200 101.200 C 316.497 101.970,316.745 102.330,316.752 102.000 C 316.758 101.670,316.517 100.860,316.214 100.200 C 315.912 99.540,315.664 99.180,315.663 99.400 M157.143 103.300 C 156.496 104.222,156.436 104.435,156.937 104.033 C 157.650 103.460,158.587 102.000,158.241 102.000 C 158.139 102.000,157.644 102.585,157.143 103.300 M155.510 105.688 C 154.594 107.086,152.363 111.600,152.588 111.600 C 152.697 111.600,153.263 110.655,153.845 109.500 C 154.426 108.345,155.259 106.895,155.695 106.277 C 156.131 105.659,156.402 105.069,156.298 104.964 C 156.194 104.860,155.839 105.186,155.510 105.688 M317.829 106.400 C 317.973 107.170,318.259 108.070,318.463 108.400 C 318.710 108.799,318.746 108.530,318.571 107.600 C 318.427 106.830,318.141 105.930,317.937 105.600 C 317.690 105.201,317.654 105.470,317.829 106.400 M68.569 117.600 C 68.569 122.110,68.627 123.955,68.698 121.700 C 68.770 119.445,68.770 115.755,68.698 113.500 C 68.627 111.245,68.569 113.090,68.569 117.600 M151.227 114.027 C 150.741 115.155,150.421 116.154,150.515 116.248 C 150.609 116.342,151.073 115.486,151.547 114.347 C 152.020 113.207,152.341 112.207,152.258 112.125 C 152.176 112.043,151.712 112.899,151.227 114.027 M264.028 112.600 C 264.028 112.820,264.286 113.450,264.600 114.000 C 264.914 114.550,265.172 114.820,265.172 114.600 C 265.172 114.380,264.914 113.750,264.600 113.200 C 264.286 112.650,264.028 112.380,264.028 112.600 M319.643 113.200 C 319.638 113.530,319.890 114.880,320.202 116.200 L 320.769 118.600 320.534 116.400 C 320.306 114.265,319.659 111.944,319.643 113.200 M266.051 117.600 C 266.043 117.930,266.283 118.740,266.586 119.400 C 266.888 120.060,267.142 120.330,267.149 120.000 C 267.157 119.670,266.917 118.860,266.614 118.200 C 266.312 117.540,266.058 117.270,266.051 117.600 M149.057 120.057 C 148.253 122.801,148.515 123.064,149.400 120.400 C 149.775 119.271,149.990 118.257,149.879 118.146 C 149.768 118.034,149.398 118.895,149.057 120.057 M268.264 125.792 C 268.404 126.888,268.668 128.238,268.851 128.792 C 269.061 129.428,269.094 128.989,268.941 127.600 C 268.808 126.390,268.544 125.040,268.354 124.600 C 268.139 124.100,268.105 124.547,268.264 125.792 M321.903 128.200 C 322.238 133.133,322.253 142.531,321.933 147.600 C 321.726 150.900,321.754 151.371,322.065 149.800 C 322.589 147.158,322.590 128.701,322.068 126.400 C 321.730 124.913,321.701 125.227,321.903 128.200 M147.143 128.074 C 146.391 132.165,146.520 145.323,147.346 148.800 C 148.012 151.599,148.008 151.504,147.195 144.400 C 146.645 139.594,146.707 135.258,147.399 130.007 C 148.084 124.817,147.941 123.736,147.143 128.074 M68.554 131.200 C 68.554 133.950,68.618 135.075,68.696 133.700 C 68.774 132.325,68.774 130.075,68.696 128.700 C 68.618 127.325,68.554 128.450,68.554 131.200 M269.709 138.000 C 269.709 138.990,269.787 139.395,269.882 138.900 C 269.978 138.405,269.978 137.595,269.882 137.100 C 269.787 136.605,269.709 137.010,269.709 138.000 M68.597 251.400 C 68.597 311.020,68.643 335.350,68.700 305.468 C 68.757 275.585,68.757 226.805,68.700 197.068 C 68.643 167.330,68.597 191.780,68.597 251.400 M268.662 147.900 C 267.979 152.156,267.975 152.209,268.339 151.400 C 268.755 150.475,269.366 146.400,269.089 146.400 C 268.986 146.400,268.794 147.075,268.662 147.900 M148.400 153.758 C 148.400 154.271,150.084 159.250,150.213 159.120 C 150.408 158.926,148.833 153.600,148.581 153.600 C 148.481 153.600,148.400 153.671,148.400 153.758 M266.400 157.000 C 266.136 157.799,266.010 158.544,266.120 158.654 C 266.230 158.764,266.536 158.199,266.800 157.400 C 267.064 156.601,267.190 155.856,267.080 155.746 C 266.970 155.636,266.664 156.201,266.400 157.000 M320.036 160.356 C 319.751 161.948,319.605 163.338,319.710 163.444 C 319.976 163.710,320.921 158.562,320.718 157.953 C 320.627 157.682,320.320 158.763,320.036 160.356 M264.479 162.391 C 264.020 163.496,263.731 164.400,263.836 164.400 C 264.104 164.400,265.655 160.722,265.467 160.534 C 265.383 160.450,264.939 161.285,264.479 162.391 M150.817 161.100 C 150.839 161.501,152.362 164.270,152.383 163.949 C 152.411 163.535,151.205 160.800,150.995 160.800 C 150.888 160.800,150.808 160.935,150.817 161.100 M152.803 165.500 C 152.804 165.665,153.163 166.340,153.600 167.000 C 154.542 168.422,154.655 168.053,153.790 166.380 C 153.200 165.239,152.797 164.880,152.803 165.500 M263.067 165.467 C 262.509 166.024,262.863 166.686,264.855 168.809 C 265.985 170.014,266.670 170.640,266.376 170.200 C 266.083 169.760,265.224 168.738,264.468 167.928 C 263.608 167.007,263.183 166.221,263.334 165.828 C 263.591 165.158,263.499 165.034,263.067 165.467 M318.036 168.836 C 317.766 169.739,317.635 170.569,317.746 170.679 C 317.857 170.790,318.151 170.124,318.400 169.200 C 318.989 167.011,318.677 166.699,318.036 168.836 M154.731 169.052 C 155.615 170.664,156.507 171.541,155.822 170.125 C 155.483 169.424,155.006 168.728,154.763 168.577 C 154.446 168.381,154.437 168.516,154.731 169.052 M269.239 173.506 C 270.428 174.774,273.830 178.394,276.800 181.550 C 279.770 184.707,282.261 187.451,282.335 187.649 C 282.409 187.847,282.846 188.210,283.305 188.456 C 283.765 188.702,280.393 184.920,275.813 180.052 C 271.232 175.183,267.393 171.200,267.281 171.200 C 267.170 171.200,268.051 172.237,269.239 173.506 M156.651 172.100 C 157.234 173.077,160.099 176.800,160.268 176.800 C 160.362 176.800,160.296 176.572,160.120 176.294 C 158.676 174.010,155.499 170.170,156.651 172.100 M315.846 175.846 C 315.492 176.885,315.272 177.805,315.356 177.890 C 315.441 177.974,315.800 177.193,316.154 176.154 C 316.508 175.115,316.728 174.195,316.644 174.110 C 316.559 174.026,316.200 174.807,315.846 175.846 M162.022 179.051 C 164.516 181.676,168.174 185.159,168.302 185.031 C 168.445 184.888,161.118 177.600,160.830 177.600 C 160.727 177.600,161.263 178.253,162.022 179.051 M314.050 180.650 C 313.786 181.229,313.662 181.795,313.774 181.907 C 313.886 182.019,314.168 181.611,314.400 181.000 C 314.949 179.557,314.673 179.282,314.050 180.650 M310.885 187.815 C 309.961 189.677,309.293 191.200,309.398 191.200 C 309.665 191.200,312.885 184.751,312.707 184.574 C 312.628 184.495,311.808 185.953,310.885 187.815 M169.570 186.132 C 170.589 187.254,170.808 187.393,170.787 186.900 C 170.781 186.735,170.286 186.254,169.687 185.832 L 168.600 185.064 169.570 186.132 M171.469 187.625 C 171.727 187.941,172.537 188.549,173.269 188.975 C 174.104 189.461,174.425 189.535,174.131 189.175 C 173.873 188.859,173.063 188.251,172.331 187.825 C 171.496 187.339,171.175 187.265,171.469 187.625 M286.233 191.700 C 287.528 193.075,288.861 194.358,289.194 194.550 C 289.527 194.743,288.545 193.618,287.011 192.050 C 283.571 188.536,283.018 188.287,286.233 191.700 M174.974 189.958 C 175.123 190.199,175.616 190.595,176.071 190.838 C 176.662 191.154,176.820 191.156,176.626 190.842 C 176.477 190.601,175.984 190.205,175.529 189.962 C 174.938 189.646,174.780 189.644,174.974 189.958 M178.000 191.827 C 178.000 191.911,178.585 192.282,179.300 192.652 C 180.399 193.220,180.521 193.228,180.087 192.705 C 179.621 192.144,178.000 191.462,178.000 191.827 M308.054 193.275 C 307.541 194.167,307.320 194.773,307.563 194.623 C 308.060 194.316,309.334 192.001,309.123 191.790 C 309.048 191.715,308.567 192.383,308.054 193.275 M235.774 192.843 C 235.592 193.136,235.767 193.201,236.290 193.035 C 236.910 192.838,237.766 193.498,240.259 196.092 C 246.331 202.412,248.913 204.990,247.378 203.200 C 246.529 202.210,244.357 199.870,242.552 198.000 C 240.746 196.130,238.880 194.105,238.406 193.500 C 237.519 192.371,236.259 192.057,235.774 192.843 M181.304 193.634 C 182.497 194.329,184.800 195.223,184.800 194.991 C 184.800 194.761,181.329 193.191,180.867 193.212 C 180.720 193.219,180.917 193.409,181.304 193.634 M232.400 194.400 C 231.630 194.822,231.180 195.166,231.400 195.166 C 231.620 195.166,232.430 194.822,233.200 194.400 C 233.970 193.978,234.420 193.634,234.200 193.634 C 233.980 193.634,233.170 193.978,232.400 194.400 M228.036 196.027 C 225.588 196.896,224.798 197.414,226.601 196.969 C 227.993 196.624,231.191 195.256,230.600 195.257 C 230.380 195.258,229.226 195.604,228.036 196.027 M304.879 198.659 C 303.720 200.533,302.946 201.957,303.160 201.824 C 303.629 201.535,307.294 195.560,307.113 195.380 C 307.044 195.310,306.038 196.786,304.879 198.659 M186.461 195.795 C 186.808 196.142,190.400 197.214,190.400 196.971 C 190.400 196.742,189.048 196.226,187.401 195.826 C 186.741 195.666,186.319 195.652,186.461 195.795 M293.019 198.800 C 296.876 203.389,299.954 206.207,300.486 205.636 C 300.909 205.181,300.899 205.140,300.431 205.408 C 300.020 205.642,298.706 204.524,295.684 201.366 C 293.386 198.965,292.187 197.810,293.019 198.800 M192.845 197.755 C 193.165 198.105,199.613 199.321,199.856 199.077 C 199.959 198.974,198.819 198.679,197.322 198.421 C 195.825 198.164,194.150 197.848,193.600 197.720 C 193.050 197.592,192.710 197.608,192.845 197.755 M219.438 198.242 C 217.919 198.544,216.569 198.900,216.438 199.033 C 216.095 199.381,219.912 198.775,221.800 198.182 C 223.879 197.528,222.905 197.553,219.438 198.242 M202.305 199.483 C 202.802 199.579,203.522 199.575,203.905 199.475 C 204.287 199.375,203.880 199.296,203.000 199.301 C 202.120 199.305,201.807 199.387,202.305 199.483 M212.705 199.483 C 213.202 199.579,213.922 199.575,214.305 199.475 C 214.687 199.375,214.280 199.296,213.400 199.301 C 212.520 199.305,212.207 199.387,212.705 199.483 M301.600 203.600 C 301.130 204.260,300.836 204.800,300.946 204.800 C 301.056 204.800,301.530 204.260,302.000 203.600 C 302.470 202.940,302.764 202.400,302.654 202.400 C 302.544 202.400,302.070 202.940,301.600 203.600 M249.604 205.800 C 250.370 206.890,256.404 213.165,256.385 212.851 C 256.377 212.713,254.721 210.890,252.706 208.800 C 250.691 206.710,249.295 205.360,249.604 205.800 M259.219 216.281 C 260.638 217.777,261.980 219.070,262.200 219.156 C 262.797 219.388,257.895 214.153,257.219 213.836 C 256.899 213.685,257.799 214.786,259.219 216.281 M265.206 222.681 C 266.618 224.177,269.048 226.750,270.605 228.400 C 272.163 230.050,274.758 232.750,276.373 234.400 L 279.308 237.400 276.354 234.127 C 269.612 226.657,263.763 220.465,263.219 220.222 C 262.899 220.079,263.793 221.186,265.206 222.681 M279.600 237.831 C 279.600 238.046,280.899 239.477,282.487 241.011 L 285.374 243.800 282.811 241.000 C 281.402 239.460,280.103 238.029,279.924 237.820 C 279.721 237.581,279.600 237.585,279.600 237.831 M285.600 244.214 C 285.600 244.542,308.814 269.200,309.123 269.200 C 309.261 269.200,308.378 268.165,307.160 266.900 C 305.941 265.635,301.997 261.450,298.395 257.600 C 287.530 245.989,285.600 243.970,285.600 244.214 M309.922 270.200 C 310.153 270.640,311.475 272.080,312.859 273.400 L 315.376 275.800 312.812 273.000 C 311.402 271.460,310.081 270.020,309.875 269.800 C 309.670 269.580,309.691 269.760,309.922 270.200 M315.600 276.231 C 315.600 276.446,316.899 277.877,318.487 279.411 L 321.374 282.200 318.811 279.400 C 317.402 277.860,316.103 276.429,315.924 276.220 C 315.721 275.981,315.600 275.985,315.600 276.231 M327.293 288.918 C 330.740 292.572,333.922 296.245,334.363 297.081 C 334.804 297.916,335.173 298.402,335.182 298.160 C 335.226 297.064,322.979 283.065,321.427 282.437 C 321.206 282.348,323.845 285.264,327.293 288.918 M335.714 303.000 C 335.717 304.100,335.795 304.503,335.887 303.895 C 335.979 303.286,335.977 302.386,335.882 301.895 C 335.787 301.403,335.711 301.900,335.714 303.000 M334.400 308.690 C 334.400 309.523,330.655 313.260,328.844 314.232 C 327.830 314.777,327.450 315.105,328.000 314.961 C 330.141 314.400,335.426 309.293,334.659 308.526 C 334.517 308.383,334.400 308.457,334.400 308.690 M321.200 316.627 L 319.800 317.193 321.200 316.945 C 321.970 316.808,322.960 316.551,323.400 316.373 L 324.200 316.051 323.400 316.056 C 322.960 316.059,321.970 316.316,321.200 316.627 M314.681 318.287 C 313.406 318.622,312.441 318.975,312.538 319.071 C 312.742 319.275,317.166 318.168,317.506 317.828 C 317.822 317.511,317.348 317.588,314.681 318.287 M306.600 320.615 C 305.023 321.161,305.020 321.165,306.400 320.932 C 308.032 320.657,309.700 320.048,308.800 320.056 C 308.470 320.059,307.480 320.311,306.600 320.615 M299.881 322.287 C 298.606 322.622,297.641 322.975,297.738 323.071 C 297.942 323.275,302.366 322.168,302.706 321.828 C 303.022 321.511,302.548 321.588,299.881 322.287 M292.800 324.169 C 290.141 324.904,289.590 325.205,291.400 324.935 C 292.280 324.803,293.540 324.464,294.200 324.180 C 295.714 323.530,295.128 323.526,292.800 324.169 M283.200 326.833 C 281.990 327.248,281.540 327.491,282.200 327.372 C 284.143 327.022,286.400 326.384,286.400 326.185 C 286.400 325.865,285.473 326.053,283.200 326.833 M276.600 328.615 C 275.023 329.161,275.020 329.165,276.400 328.932 C 278.032 328.657,279.700 328.048,278.800 328.056 C 278.470 328.059,277.480 328.311,276.600 328.615 M268.281 330.687 C 265.403 331.442,265.517 331.778,268.442 331.162 C 270.678 330.691,272.403 329.997,271.200 330.052 C 270.870 330.067,269.556 330.353,268.281 330.687 M261.400 332.626 C 259.640 333.156,258.882 333.493,259.717 333.374 C 261.464 333.125,266.099 331.685,265.200 331.670 C 264.870 331.665,263.160 332.095,261.400 332.626 M253.800 334.609 C 252.700 334.915,251.635 335.173,251.433 335.182 C 251.232 335.192,251.161 335.294,251.276 335.409 C 251.506 335.640,256.348 334.586,256.707 334.226 C 257.069 333.864,255.954 334.011,253.800 334.609 M245.881 336.687 C 243.003 337.442,243.117 337.778,246.042 337.162 C 248.278 336.691,250.003 335.997,248.800 336.052 C 248.470 336.067,247.156 336.353,245.881 336.687 M237.681 338.879 C 236.076 339.328,234.840 339.773,234.935 339.868 C 235.114 340.047,241.672 338.460,241.967 338.166 C 242.342 337.792,240.426 338.110,237.681 338.879 M231.081 340.687 C 228.203 341.442,228.317 341.778,231.242 341.162 C 233.478 340.691,235.203 339.997,234.000 340.052 C 233.670 340.067,232.356 340.353,231.081 340.687 M224.200 342.626 C 222.440 343.156,221.682 343.493,222.517 343.374 C 224.264 343.125,228.899 341.685,228.000 341.670 C 227.670 341.665,225.960 342.095,224.200 342.626 M216.281 344.687 C 215.006 345.022,214.041 345.374,214.137 345.470 C 214.316 345.650,219.268 344.459,219.567 344.164 C 219.862 343.873,218.656 344.065,216.281 344.687 M208.681 346.687 C 205.804 347.442,205.972 347.874,208.878 347.194 C 211.149 346.662,212.727 346.000,211.600 346.052 C 211.270 346.067,209.956 346.353,208.681 346.687 M201.200 348.817 C 199.990 349.239,199.540 349.488,200.200 349.370 C 202.130 349.025,204.400 348.384,204.400 348.185 C 204.400 347.848,203.424 348.040,201.200 348.817 M193.800 350.721 C 192.480 351.074,191.674 351.421,192.008 351.493 C 192.343 351.565,193.693 351.276,195.008 350.852 C 197.906 349.917,197.125 349.832,193.800 350.721 M185.681 352.879 C 184.076 353.328,182.840 353.773,182.935 353.869 C 183.140 354.073,189.162 352.572,189.501 352.232 C 189.903 351.830,188.698 352.034,185.681 352.879 M179.000 354.721 C 177.680 355.074,176.870 355.416,177.200 355.481 C 177.530 355.546,178.880 355.256,180.200 354.836 C 183.114 353.909,182.321 353.833,179.000 354.721 M170.881 356.879 C 169.276 357.328,168.040 357.773,168.135 357.869 C 168.340 358.073,174.362 356.572,174.701 356.232 C 175.103 355.830,173.898 356.034,170.881 356.879 M163.482 358.888 C 161.768 359.334,160.442 359.776,160.537 359.870 C 160.740 360.073,166.763 358.570,167.101 358.232 C 167.436 357.897,166.966 357.983,163.482 358.888 M156.681 360.687 C 153.804 361.442,153.972 361.874,156.878 361.194 C 159.149 360.662,160.727 360.000,159.600 360.052 C 159.270 360.067,157.956 360.353,156.681 360.687 M69.043 362.600 C 69.173 363.700,69.538 365.050,69.854 365.600 L 70.429 366.600 70.145 365.600 C 69.989 365.050,69.624 363.700,69.334 362.600 L 68.808 360.600 69.043 362.600 M148.835 362.821 C 146.130 363.529,144.897 364.011,145.833 363.993 C 146.505 363.981,152.068 362.465,152.303 362.231 C 152.658 361.876,152.046 361.980,148.835 362.821 M141.881 364.687 C 139.004 365.442,139.172 365.874,142.078 365.194 C 144.349 364.662,145.927 364.000,144.800 364.052 C 144.470 364.067,143.156 364.353,141.881 364.687 M134.035 366.821 C 131.330 367.529,130.097 368.011,131.033 367.993 C 131.705 367.981,137.268 366.465,137.503 366.231 C 137.858 365.876,137.246 365.980,134.035 366.821 M71.417 368.761 C 72.663 371.049,76.075 374.623,77.800 375.446 C 78.999 376.018,78.999 376.018,78.000 375.333 C 76.122 374.046,72.467 370.100,71.625 368.449 C 71.162 367.542,70.686 366.800,70.567 366.800 C 70.448 366.800,70.830 367.682,71.417 368.761 M127.081 368.687 C 125.806 369.022,124.841 369.375,124.938 369.471 C 125.142 369.675,129.566 368.568,129.906 368.228 C 130.222 367.911,129.748 367.988,127.081 368.687 M118.600 370.994 C 116.840 371.507,115.633 371.944,115.918 371.964 C 116.744 372.022,121.762 370.724,122.180 370.345 C 122.730 369.845,122.224 369.937,118.600 370.994 M112.000 372.817 C 110.790 373.239,110.340 373.488,111.000 373.370 C 112.930 373.025,115.200 372.384,115.200 372.185 C 115.200 371.848,114.224 372.040,112.000 372.817 M104.600 374.721 C 103.280 375.074,102.474 375.421,102.808 375.493 C 103.143 375.565,104.493 375.276,105.808 374.852 C 108.706 373.917,107.925 373.832,104.600 374.721 M79.200 376.184 C 79.200 376.469,81.475 377.600,82.047 377.600 C 82.314 377.600,82.449 377.516,82.346 377.413 C 82.015 377.081,79.200 375.982,79.200 376.184 M96.481 376.879 C 94.876 377.328,93.644 377.777,93.744 377.877 C 93.944 378.077,100.400 376.408,100.400 376.156 C 100.400 375.874,99.440 376.051,96.481 376.879 M85.275 378.460 C 86.506 378.806,91.222 378.815,92.083 378.472 C 92.458 378.322,90.872 378.200,88.558 378.200 C 86.243 378.200,84.766 378.317,85.275 378.460 " stroke="none" fill="#cdf0f2" fill-rule="evenodd"></path></g></svg>